<svg width="24" height="24" viewBox="0 0 24 24" fill="none" xmlns="http://www.w3.org/2000/svg">
<g clip-path="url(#clip0_2172_756)">
<g clip-path="url(#clip1_2172_756)">
<path d="M10.9116 0.572973L0.422911 11.0531C0.288864 11.1866 0.182503 11.3454 0.109931 11.5201C0.0373577 11.6949 0 11.8822 0 12.0715C0 12.2607 0.0373577 12.4481 0.109931 12.6229C0.182503 12.7976 0.288864 12.9563 0.422911 13.0899L10.9116 23.57C11.0454 23.704 11.2043 23.8103 11.3792 23.8828C11.5541 23.9553 11.7416 23.9926 11.931 23.9926C12.1203 23.9926 12.3078 23.9553 12.4827 23.8828C12.6576 23.8103 12.8165 23.704 12.9503 23.57L17.3479 19.1759C17.853 18.6713 17.853 17.8532 17.3479 17.3486C16.843 16.844 16.0243 16.844 15.5192 17.3486L12.1853 20.6797C12.0449 20.82 11.8319 20.82 11.6916 20.6797L3.31557 12.3106C3.17517 12.1704 3.17517 11.9576 3.31557 11.8174L11.6916 3.44823C11.832 3.30795 12.0449 3.30795 12.1853 3.44823L15.5192 6.77936C16.0243 7.28395 16.843 7.28395 17.3479 6.77936C17.8529 6.27477 17.853 5.45675 17.3479 4.95216L12.9508 0.558454C12.3845 0.00718547 11.4734 0.0117453 10.9116 0.572973Z" fill="url(#paint0_linear_2172_756)"/>
<path d="M10.9116 0.572973L0.422911 11.0531C0.288864 11.1866 0.182503 11.3454 0.109931 11.5201C0.0373577 11.6949 0 11.8822 0 12.0715C0 12.2607 0.0373577 12.4481 0.109931 12.6229C0.182503 12.7976 0.288864 12.9563 0.422911 13.0899L10.9116 23.57C11.0454 23.704 11.2043 23.8103 11.3792 23.8828C11.5541 23.9553 11.7416 23.9926 11.931 23.9926C12.1203 23.9926 12.3078 23.9553 12.4827 23.8828C12.6576 23.8103 12.8165 23.704 12.9503 23.57L17.3479 19.1759C17.853 18.6713 17.853 17.8532 17.3479 17.3486C16.843 16.844 16.0243 16.844 15.5192 17.3486L12.1853 20.6797C12.0449 20.82 11.8319 20.82 11.6916 20.6797L3.31557 12.3106C3.17517 12.1704 3.17517 11.9576 3.31557 11.8174L11.6916 3.44823C12.0411 3.14704 12.6113 2.53673 13.4486 2.39393C14.0709 2.28798 14.7512 2.52137 15.4897 3.09436L12.9506 0.558454C12.3844 0.00718547 11.4732 0.0116253 10.9115 0.572853L10.9116 0.572973Z" fill="url(#paint1_linear_2172_756)"/>
<path d="M18.3639 16.3737C18.8688 16.8783 19.6876 16.8783 20.1926 16.3737L23.4366 13.1323C24.0006 12.5688 24.0006 11.6587 23.4366 11.0955L20.1643 7.83753C19.6582 7.33354 18.8392 7.33414 18.3339 7.83909C17.8288 8.34368 17.8288 9.1617 18.3339 9.66629L20.544 11.8746C20.6844 12.0149 20.6844 12.2278 20.544 12.3679L18.3639 14.5463C17.8588 15.0509 17.8588 15.8691 18.3639 16.3737Z" fill="url(#paint2_linear_2172_756)"/>
<path d="M11.9843 14.9533C13.5483 14.9533 14.8162 13.6864 14.8162 12.1236C14.8162 10.5608 13.5483 9.29395 11.9843 9.29395C10.4202 9.29395 9.15234 10.5608 9.15234 12.1236C9.15234 13.6864 10.4202 14.9533 11.9843 14.9533Z" fill="url(#paint3_linear_2172_756)"/>
</g>
</g>
<defs>
<linearGradient id="paint0_linear_2172_756" x1="2201.78" y1="0.148358" x2="4194.99" y2="1216.64" gradientUnits="userSpaceOnUse">
<stop stop-color="#4285EB"/>
<stop offset="1" stop-color="#2EC7FF"/>
</linearGradient>
<linearGradient id="paint1_linear_2172_756" x1="2469.18" y1="0.148461" x2="1484.59" y2="5085.72" gradientUnits="userSpaceOnUse">
<stop stop-color="#29CDFF"/>
<stop offset="0.379" stop-color="#148EFF"/>
<stop offset="1" stop-color="#0A60FF"/>
</linearGradient>
<linearGradient id="paint2_linear_2172_756" x1="840.963" y1="-233.512" x2="-439.929" y2="1768.5" gradientUnits="userSpaceOnUse">
<stop stop-color="#FA816E"/>
<stop offset="0.415" stop-color="#F74A5C"/>
<stop offset="1" stop-color="#F51D2C"/>
</linearGradient>
<linearGradient id="paint3_linear_2172_756" x1="780.906" y1="-394.443" x2="354.624" y2="1309.69" gradientUnits="userSpaceOnUse">
<stop stop-color="#FA8E7D"/>
<stop offset="0.513" stop-color="#F74A5C"/>
<stop offset="1" stop-color="#F51D2C"/>
</linearGradient>
<clipPath id="clip0_2172_756">
<rect width="24" height="24" fill="white"/>
</clipPath>
<clipPath id="clip1_2172_756">
<rect width="24" height="24" fill="white"/>
</clipPath>
</defs>
</svg>
