<svg width="24" height="24" viewBox="0 0 24 24" fill="none" xmlns="http://www.w3.org/2000/svg">
<g clip-path="url(#clip0_2172_694)">
<path d="M0.862887 1.14655C0.751494 1.14509 0.641137 1.16841 0.539565 1.21489C0.437994 1.26137 0.34767 1.32987 0.274939 1.41559C0.202208 1.50131 0.148832 1.60216 0.11856 1.71107C0.0882886 1.81997 0.0818551 1.93429 0.0997115 2.04599L3.33953 22.0247C3.37989 22.2691 3.50376 22.4914 3.6894 22.6523C3.87503 22.8132 4.11055 22.9026 4.35459 22.9046H19.8972C20.0802 22.907 20.2578 22.8425 20.3979 22.723C20.5379 22.6035 20.6311 22.4368 20.6603 22.2534L23.9002 2.04986C23.9181 1.93817 23.9116 1.82386 23.8813 1.71498C23.851 1.60609 23.7976 1.50526 23.7249 1.41956C23.6522 1.33386 23.5618 1.26538 23.4603 1.21892C23.3587 1.17245 23.2484 1.14914 23.137 1.15061L0.862887 1.14655ZM14.5051 15.586H9.54431L8.20108 8.45737H15.7072L14.5051 15.586Z" fill="#2684FF"/>
<path d="M22.8493 8.44727H15.6925L14.4913 15.5702H9.53451L3.68164 22.6272C3.86715 22.7901 4.10366 22.8807 4.34888 22.8828H19.883C20.0658 22.8852 20.2433 22.8208 20.3833 22.7014C20.5233 22.582 20.6163 22.4154 20.6456 22.2321L22.8493 8.44727Z" fill="url(#paint0_linear_2172_694)"/>
</g>
<defs>
<linearGradient id="paint0_linear_2172_694" x1="5374.47" y1="468.891" x2="3129.31" y2="3277.41" gradientUnits="userSpaceOnUse">
<stop offset="0.18" stop-color="#0052CC"/>
<stop offset="1" stop-color="#2684FF"/>
</linearGradient>
<clipPath id="clip0_2172_694">
<rect width="24" height="22" fill="white" transform="translate(0 1)"/>
</clipPath>
</defs>
</svg>
