<svg width="24" height="24" viewBox="0 0 24 24" fill="none" xmlns="http://www.w3.org/2000/svg">
<g clip-path="url(#clip0_2172_771)">
<path d="M2.80878 5.1963C2.76434 3.91848 3.75978 2.74023 5.10547 2.74023H18.8942C20.2399 2.74023 21.2353 3.91848 21.1909 5.1963C21.1482 6.42367 21.2037 8.01367 21.6038 9.31005C22.0052 10.6105 22.6821 11.4324 23.7908 11.5381V12.7357C22.6821 12.8414 22.0052 13.6632 21.6038 14.9637C21.2037 16.2601 21.1482 17.8501 21.1909 19.0775C21.2353 20.3553 20.2399 21.5334 18.8942 21.5334H5.10547C3.75978 21.5334 2.76434 20.3551 2.80878 19.0775C2.85153 17.8501 2.79603 16.2601 2.39572 14.9637C1.99447 13.6634 1.31572 12.8414 0.207031 12.7357V11.5381C1.31572 11.4325 1.99447 10.6105 2.39572 9.31005C2.79603 8.01367 2.85134 6.42367 2.80878 5.1963Z" fill="url(#paint0_linear_2172_771)"/>
<g filter="url(#filter0_d_2172_771)">
<path d="M12.5834 17.2004C14.7619 17.2004 16.0747 16.1337 16.0747 14.3743C16.0747 13.0444 15.138 12.0815 13.7471 11.9291V11.8737C14.769 11.7075 15.5709 10.7585 15.5709 9.69874C15.5709 8.18872 14.3787 7.20508 12.5621 7.20508H8.47461V17.2004H12.5834ZM10.0642 8.47268H12.1789C13.3285 8.47268 13.9813 8.98525 13.9813 9.91343C13.9813 10.904 13.2221 11.4581 11.8454 11.4581H10.0642V8.47268ZM10.0642 15.9328V12.6426H12.1647C13.6691 12.6426 14.4497 13.1967 14.4497 14.2773C14.4497 15.3578 13.6904 15.9328 12.2569 15.9328H10.0642Z" fill="url(#paint1_linear_2172_771)"/>
</g>
</g>
<defs>
<filter id="filter0_d_2172_771" x="4.54405" y="4.25716" width="15.4607" height="17.8562" filterUnits="userSpaceOnUse" color-interpolation-filters="sRGB">
<feFlood flood-opacity="0" result="BackgroundImageFix"/>
<feColorMatrix in="SourceAlpha" type="matrix" values="0 0 0 0 0 0 0 0 0 0 0 0 0 0 0 0 0 0 127 0" result="hardAlpha"/>
<feOffset dy="0.98264"/>
<feGaussianBlur stdDeviation="1.96528"/>
<feColorMatrix type="matrix" values="0 0 0 0 0 0 0 0 0 0 0 0 0 0 0 0 0 0 0.15 0"/>
<feBlend mode="normal" in2="BackgroundImageFix" result="effect1_dropShadow_2172_771"/>
<feBlend mode="normal" in="SourceGraphic" in2="effect1_dropShadow_2172_771" result="shape"/>
</filter>
<linearGradient id="paint0_linear_2172_771" x1="3.71151" y1="3.2376" x2="24.3194" y2="19.5963" gradientUnits="userSpaceOnUse">
<stop stop-color="#9013FE"/>
<stop offset="1" stop-color="#6610F2"/>
</linearGradient>
<linearGradient id="paint1_linear_2172_771" x1="9.19372" y1="7.86283" x2="13.7998" y2="15.6532" gradientUnits="userSpaceOnUse">
<stop stop-color="white"/>
<stop offset="1" stop-color="#F1E5FC"/>
</linearGradient>
<clipPath id="clip0_2172_771">
<rect width="24" height="24" fill="white"/>
</clipPath>
</defs>
</svg>
