<svg width="24" height="24" viewBox="0 0 24 24" fill="none" xmlns="http://www.w3.org/2000/svg">
<g clip-path="url(#clip0_2179_463)">
<g clip-path="url(#clip1_2179_463)">
<path d="M11.1349 0.0287769C11.0441 0.0383394 10.7608 0.0719019 10.5109 0.101339C9.50325 0.216277 8.36062 0.518902 7.35787 0.941339C3.72881 2.45765 0.9975 5.78446 0.243937 9.60028C0.0665625 10.5078 0.0234375 10.9537 0.0234375 12.0003C0.0234375 13.3493 0.1575 14.2803 0.512813 15.4567C1.67438 19.306 4.69837 22.3252 8.55769 23.4912C9.71925 23.842 10.6552 23.9761 11.9992 23.9761C13.3483 23.9761 14.2793 23.842 15.4556 23.4867C19.305 22.3252 22.3241 19.3012 23.4902 15.4418C23.841 14.2803 23.9751 13.3443 23.9751 12.0003C23.9751 11.429 23.9466 10.7765 23.9128 10.5361C23.5239 7.76184 22.3813 5.42896 20.4763 3.52321C18.5749 1.63209 16.2518 0.485152 13.5349 0.0962769C13.1606 0.0434019 11.4277 -0.00497308 11.1349 0.0287769ZM7.22306 7.58878C7.47806 7.66565 7.59731 7.73765 7.77019 7.91034C8.10637 8.25159 8.18325 8.43853 8.18325 8.9519C8.18325 9.33646 8.16862 9.40828 8.05369 9.60965C7.83244 9.9839 7.31906 10.3297 6.96394 10.339C6.714 10.3443 6.72431 10.2337 6.99769 9.94584C7.36237 9.56653 7.41506 9.42272 7.41506 8.8559C7.41056 8.30896 7.34325 8.12203 7.089 7.96828C6.8775 7.83871 6.64744 7.84828 6.31125 8.00634C5.4375 8.42447 4.49194 9.81628 4.12275 11.2422C3.63281 13.1429 4.5015 14.6641 5.93194 14.4048C6.34931 14.3279 7.13662 13.9252 7.47806 13.6079C7.76081 13.3493 7.76081 13.3443 7.78931 13.0229C7.85231 12.3503 8.32687 11.6787 8.96119 11.3667C9.25331 11.2223 9.32587 11.2085 9.71925 11.2085C10.0935 11.2085 10.1799 11.2276 10.3624 11.3279C10.9431 11.6598 10.8231 12.4323 10.1946 12.4323C9.82987 12.4323 9.64237 12.2448 9.90675 12.1447C10.1661 12.0487 10.0693 11.6883 9.76762 11.6069C9.41231 11.5154 9.00881 11.7556 8.75456 12.2163C8.44706 12.7732 8.433 13.4358 8.72531 13.7377C9.00881 14.0401 9.36394 13.8007 9.63787 13.1135C9.7815 12.7634 9.98794 12.5759 10.2283 12.5759C10.4392 12.5759 10.4781 12.7057 10.3864 13.0996C10.2517 13.709 10.3433 13.8672 10.7226 13.6805C10.8471 13.6225 11.0537 13.4887 11.1782 13.3927L11.4133 13.2052L11.5723 12.3745C11.7452 11.4436 11.8117 11.3183 12.1671 11.2518C12.5083 11.1888 12.5852 11.3572 12.4599 11.8897L12.3924 12.1878L12.6424 11.9328C13.2326 11.3279 13.9577 11.0305 14.2074 11.2803C14.3415 11.4143 14.3269 11.5827 14.1351 12.1775C14.0441 12.461 13.9189 12.9078 13.8619 13.1618C13.7754 13.5457 13.7702 13.6372 13.8188 13.6996C13.9725 13.8818 14.4426 13.6943 14.8601 13.2863L15.1048 13.0469L15.1341 12.5137C15.1626 11.8992 15.2197 11.6787 15.3831 11.4817C15.5368 11.2994 15.8152 11.1653 15.9639 11.2034C16.1126 11.2422 16.1126 11.3858 15.9786 11.8085C15.7911 12.3892 15.8108 13.7281 16.0028 13.7281C16.0796 13.7281 16.4728 13.3156 16.7228 12.97L16.9095 12.715L16.7608 12.562C16.5015 12.2883 16.4393 12.1109 16.4393 11.6641C16.4393 11.3382 16.4634 11.218 16.5446 11.059C16.6794 10.81 16.8904 10.6278 17.1401 10.5552C17.4037 10.4738 17.7304 10.6079 17.8644 10.8481C17.9993 11.0928 17.9657 11.6399 17.7926 12.0149L17.6681 12.2881H17.8359C18.0666 12.2881 18.1575 12.2309 18.5706 11.842C18.7866 11.6356 19.0363 11.4577 19.2231 11.3712C19.9577 11.0262 20.8221 11.2034 20.9655 11.7314C21.0855 12.154 20.8221 12.4514 20.3606 12.4177C20.0295 12.3937 19.9672 12.307 20.1593 12.1447C20.5048 11.8559 20.1593 11.4869 19.6648 11.621C19.3959 11.6933 19.0935 11.9952 18.9354 12.346C18.6182 13.0469 18.7866 13.8723 19.2422 13.8723C19.4246 13.8723 19.7467 13.5121 19.8713 13.1618C20.0199 12.7583 20.3319 12.5043 20.5671 12.5956C20.6968 12.6434 20.7064 12.773 20.625 13.181C20.5335 13.6278 20.5194 14.0453 20.5912 14.2372C20.6199 14.3088 20.7064 14.4436 20.7883 14.5345C20.9413 14.7072 20.9466 14.7697 20.8168 14.8516C20.7546 14.8947 20.6724 14.8758 20.4713 14.7653C20.1928 14.621 19.9526 14.3617 19.8662 14.117L19.8135 13.9733L19.6215 14.117C19.5109 14.1938 19.3382 14.2803 19.2377 14.3088C18.8393 14.4143 18.3493 14.1412 18.1194 13.6805C18.0278 13.5023 17.9993 12.9796 18.0666 12.778C18.1048 12.6674 18.1048 12.6674 17.9509 12.7443C17.8697 12.7876 17.6968 12.8352 17.5627 12.8498C17.3415 12.8742 17.3078 12.8982 17.0874 13.1765C16.7754 13.5646 16.2231 14.0885 15.9975 14.1991C15.5179 14.4385 15.3596 14.3712 15.2344 13.8766L15.1479 13.5457L14.9413 13.7281C14.6777 13.9587 14.1497 14.2372 13.8471 14.3045C13.5593 14.3667 13.2517 14.2752 13.1271 14.0832C12.9405 13.7954 13.0027 13.186 13.2999 12.365C13.5204 11.7556 13.3624 11.7462 12.8057 12.3269C12.3926 12.7634 12.2153 13.0754 12.1003 13.5603C11.9803 14.0643 11.8359 14.2465 11.5101 14.3234C11.313 14.3667 11.2213 14.2465 11.2603 13.9829L11.2888 13.7712L11.1064 13.8965C10.8471 14.0738 10.5204 14.2372 10.2949 14.2994C10.0693 14.3617 9.77194 14.2949 9.70012 14.1697C9.57056 13.9493 9.57056 13.9493 9.36919 14.1074C8.93194 14.4627 8.30794 14.3617 7.99144 13.8914L7.89019 13.7427L7.57387 14.0356C6.66131 14.8707 5.51944 15.245 4.67438 14.9857C3.59906 14.6598 3.00431 13.7377 3.01388 12.4083C3.01837 11.0738 3.60863 9.66759 4.60256 8.62603C5.16431 8.04009 5.69231 7.69434 6.23006 7.56478C6.61819 7.46878 6.85406 7.47365 7.22306 7.58878Z" fill="#00C4CC"/>
<path d="M16.9531 11.0027C16.8475 11.1081 16.8864 11.5307 17.0206 11.7996C17.0879 11.9387 17.1597 12.0493 17.1837 12.0493C17.2029 12.0493 17.246 11.9387 17.2797 11.8039C17.3997 11.3051 17.1837 10.7719 16.9531 11.0027Z" fill="#00C4CC"/>
</g>
</g>
<defs>
<clipPath id="clip0_2179_463">
<rect width="24" height="24" fill="white"/>
</clipPath>
<clipPath id="clip1_2179_463">
<rect width="24" height="24" fill="white"/>
</clipPath>
</defs>
</svg>
