<svg width="24" height="24" viewBox="0 0 24 24" fill="none" xmlns="http://www.w3.org/2000/svg">
<g clip-path="url(#clip0_2173_1202)">
<g clip-path="url(#clip1_2173_1202)">
<path d="M6.61173 6.53361L5.06055 4.98242L5.06711 16.1949L5.08567 16.719C5.09336 16.9655 5.13911 17.2438 5.21542 17.5322L17.5064 21.8662L20.5788 20.505L20.5799 20.5012L6.61173 6.53361Z" fill="#00D2B8"/>
<path d="M5.21552 17.5328L5.21627 17.5335C5.21552 17.5285 5.21289 17.5228 5.21289 17.5176C5.21289 17.5228 5.21364 17.5277 5.21552 17.5328ZM20.5789 20.5056L17.5065 21.8668L5.21627 17.5335C5.45102 18.4343 5.97077 19.4468 6.53008 20.0005L10.5411 23.9886L19.4595 24.0002L20.58 20.5018L20.5789 20.5056Z" fill="#55DDCA"/>
<path d="M0.285154 12.198C-0.111971 12.6219 0.0852794 13.4964 0.724654 14.1407L3.48259 16.9215L5.21697 17.5322C5.14065 17.2438 5.0949 16.9655 5.08722 16.719L5.06865 16.1949L5.06209 4.98242L0.285154 12.198Z" fill="#0081C6"/>
<path d="M17.6073 5.12672C17.3189 5.05303 17.0424 5.00747 16.7917 4.99959L16.2378 4.98047L5.06055 4.98197L20.5814 20.5015H20.5827L21.9459 17.4262L17.6073 5.12672Z" fill="#0079B3"/>
<path d="M17.5938 5.12402C17.5998 5.12534 17.6044 5.12702 17.6084 5.12759L17.6078 5.12702C17.6044 5.12534 17.5998 5.12534 17.5938 5.12402ZM20.0732 6.44384C19.51 5.8759 18.5108 5.35971 17.6084 5.12759L21.9464 17.4265L20.5833 20.5018H20.5819L23.9131 19.438L23.9202 10.3052L20.0732 6.44384Z" fill="#00A4E4"/>
<path d="M16.9996 3.40285L14.2195 0.643227C13.5766 0.00628907 12.7017 -0.191898 12.2789 0.204102L5.06055 4.98198L16.2378 4.98048L16.7917 4.9996C17.0424 5.00748 17.3189 5.05304 17.6073 5.12673L16.9996 3.40285Z" fill="#00D2B8"/>
</g>
</g>
<defs>
<clipPath id="clip0_2173_1202">
<rect width="24" height="24" fill="white"/>
</clipPath>
<clipPath id="clip1_2173_1202">
<rect width="24" height="24" fill="white"/>
</clipPath>
</defs>
</svg>
