<svg width="24" height="24" viewBox="0 0 24 24" fill="none" xmlns="http://www.w3.org/2000/svg">
<g clip-path="url(#clip0_2179_448)">
<path d="M11.9482 20.7613V17.3522C15.5767 17.3522 18.3761 13.7882 16.9764 10.0176C16.458 8.62297 15.3696 7.48653 13.9179 6.96997C10.1857 5.6271 6.60881 8.41635 6.60881 11.9803H3.1875C3.1875 6.29853 8.73413 1.80472 14.7994 3.66435C17.4431 4.49066 19.5165 6.55691 20.346 9.1911C22.2122 15.2344 17.7022 20.7613 11.9482 20.7613Z" fill="#0080FF"/>
<path d="M12.0009 17.3515H8.57961V13.9941H12.0009V17.3515ZM8.57961 19.9859H5.98761V17.3515H8.57961V19.9859ZM5.98761 17.3515H3.81055V15.1821H5.98761V17.3515Z" fill="#0080FF"/>
</g>
<defs>
<clipPath id="clip0_2179_448">
<rect width="24" height="24" fill="white"/>
</clipPath>
</defs>
</svg>
