<svg width="24" height="24" viewBox="0 0 24 24" fill="none" xmlns="http://www.w3.org/2000/svg">
<g clip-path="url(#clip0_2179_371)">
<path fill-rule="evenodd" clip-rule="evenodd" d="M13.8383 9.52539H15.957V11.6816H17.0258C17.5133 11.6816 18.0195 11.5879 18.4883 11.4379C18.7133 11.3629 18.9758 11.2504 19.2008 11.1191C18.9008 10.7254 18.7508 10.2379 18.7133 9.75039C18.657 9.09414 18.7883 8.23164 19.2383 7.72539L19.4633 7.46289L19.7258 7.66914C20.4008 8.21289 20.9445 8.94414 21.057 9.80664C21.8633 9.56289 22.8008 9.61914 23.5133 10.0316L23.7945 10.2004L23.6445 10.5004C23.0445 11.6629 21.7883 12.0379 20.5695 11.9629C18.732 16.5191 14.757 18.6754 9.91952 18.6754C7.42577 18.6754 5.13827 17.7379 3.82577 15.5254L3.80702 15.4879L3.61952 15.0941C3.16952 14.1191 3.03827 13.0504 3.13202 11.9816L3.16952 11.6629H4.96952V9.52539H7.08827V7.42539H11.307V5.30664H13.8383V9.52539Z" fill="#3A4D54"/>
<path d="M20.6996 10.3305C20.8496 9.22422 20.0246 8.36172 19.4996 7.94922C18.9184 8.62422 18.8246 10.4242 19.7434 11.1742C19.2184 11.6242 18.1496 12.0555 17.0246 12.0555H3.48713C3.37463 13.218 3.58088 14.2867 4.04963 15.2055L4.19963 15.4867C4.29338 15.6555 4.40588 15.8055 4.51838 15.9742C5.08088 16.0117 5.58713 16.0305 6.05588 16.0117C6.97463 15.993 7.72463 15.8805 8.30588 15.693C8.39963 15.6555 8.47463 15.7117 8.51213 15.7867C8.54963 15.8805 8.49338 15.9555 8.41838 15.993C8.34338 16.0117 8.26838 16.0492 8.17463 16.068C7.72463 16.1992 7.23713 16.2742 6.61838 16.3117H6.50588C6.26213 16.3305 5.99963 16.3305 5.71838 16.3305C5.41838 16.3305 5.13713 16.3305 4.79963 16.3117C5.92463 17.5867 7.68713 18.3367 9.89963 18.3367C14.5871 18.3367 18.5621 16.2555 20.3059 11.6055C21.5621 11.7367 22.7621 11.418 23.3059 10.3492C22.4621 9.84297 21.3371 10.0117 20.6996 10.3305Z" fill="#00AADA"/>
<path d="M20.6998 10.3305C20.8498 9.22422 20.0248 8.36172 19.4998 7.94922C18.9186 8.62422 18.8248 10.4242 19.7436 11.1742C19.2186 11.6242 18.1498 12.0555 17.0248 12.0555H4.27483C4.21858 13.8367 4.87483 15.1867 6.05608 15.993C6.97483 15.9742 7.72483 15.8617 8.30608 15.6742C8.39983 15.6367 8.47483 15.693 8.51233 15.768C8.54983 15.8617 8.49358 15.9367 8.41858 15.9742C8.34358 15.993 8.26858 16.0305 8.17483 16.0492C7.72483 16.1805 7.19983 16.2742 6.58108 16.3117L6.56233 16.293C8.15608 17.118 10.4623 17.0992 13.1248 16.0867C16.0873 14.943 18.8623 12.768 20.7936 10.293C20.7561 10.3117 20.7186 10.3117 20.6998 10.3305Z" fill="#28B8EB"/>
<path d="M3.50586 13.4629C3.58086 14.0816 3.76836 14.6629 4.04961 15.2066L4.19961 15.4879C4.29336 15.6566 4.40586 15.8066 4.51836 15.9754C5.08086 16.0129 5.58711 16.0316 6.05586 16.0129C6.97461 15.9941 7.72461 15.8816 8.30586 15.6941C8.39961 15.6566 8.47461 15.7129 8.51211 15.7879C8.54961 15.8816 8.49336 15.9566 8.41836 15.9941C8.34336 16.0129 8.26836 16.0504 8.17461 16.0691C7.72461 16.2004 7.19961 16.2941 6.58086 16.3316H6.50586C6.26211 16.3504 5.99961 16.3504 5.73711 16.3504C5.43711 16.3504 5.13711 16.3504 4.81836 16.3316C5.94336 17.6066 7.72461 18.3566 9.93711 18.3566C13.9496 18.3566 17.4371 16.8379 19.4621 13.4816H3.50586V13.4629Z" fill="#028BB8"/>
<path d="M4.40625 13.4629C4.65 14.5504 5.2125 15.4129 6.05625 15.9941C6.975 15.9754 7.725 15.8629 8.30625 15.6754C8.4 15.6379 8.475 15.6941 8.5125 15.7691C8.55 15.8629 8.49375 15.9379 8.41875 15.9754C8.34375 15.9941 8.26875 16.0316 8.175 16.0504C7.725 16.1816 7.2 16.2754 6.5625 16.3129C8.15625 17.1379 10.4625 17.1191 13.1063 16.1066C14.7 15.4879 16.2562 14.5691 17.6437 13.4629H4.40625Z" fill="#019BC6"/>
<path fill-rule="evenodd" clip-rule="evenodd" d="M5.32422 9.88125H7.16172V11.7188H5.32422V9.88125ZM5.47422 10.0312H5.62422V11.55H5.47422V10.0312ZM5.73672 10.0312H5.88672V11.55H5.73672V10.0312ZM6.01797 10.0312H6.16797V11.55H6.01797V10.0312ZM6.29922 10.0312H6.44922V11.55H6.29922V10.0312ZM6.58047 10.0312H6.73047V11.55H6.58047V10.0312ZM6.86172 10.0312H7.01172V11.55H6.86172V10.0312ZM7.42422 7.78125H9.26172V9.61875H7.42422V7.78125ZM7.59297 7.93125H7.74297V9.45H7.59297V7.93125ZM7.85547 7.93125H8.00547V9.45H7.85547V7.93125ZM8.13672 7.93125H8.28672V9.45H8.13672V7.93125ZM8.41797 7.93125H8.56797V9.45H8.41797V7.93125ZM8.68047 7.93125H8.83047V9.45H8.68047V7.93125ZM8.96172 7.93125H9.11172V9.45H8.96172V7.93125Z" fill="#00ACD3"/>
<path fill-rule="evenodd" clip-rule="evenodd" d="M7.42578 9.88086H9.26328V11.7184H7.42578V9.88086ZM7.59453 10.0309H7.74453V11.5496H7.59453V10.0309ZM7.85703 10.0309H8.00703V11.5496H7.85703V10.0309ZM8.13828 10.0309H8.28828V11.5496H8.13828V10.0309ZM8.41953 10.0309H8.56953V11.5496H8.41953V10.0309ZM8.68203 10.0309H8.83203V11.5496H8.68203V10.0309ZM8.96328 10.0309H9.11328V11.5496H8.96328V10.0309Z" fill="#23C2EE"/>
<path fill-rule="evenodd" clip-rule="evenodd" d="M9.54297 9.88086H11.3805V11.7184H9.54297V9.88086ZM9.69297 10.0309H9.84297V11.5496H9.69297V10.0309ZM9.97422 10.0309H10.1242V11.5496H9.97422V10.0309ZM10.2555 10.0309H10.4055V11.5496H10.2555V10.0309ZM10.518 10.0309H10.668V11.5496H10.518V10.0309ZM10.7992 10.0309H10.9492V11.5496H10.7992V10.0309ZM11.0805 10.0309H11.2305V11.5496H11.0805V10.0309Z" fill="#00ACD3"/>
<path fill-rule="evenodd" clip-rule="evenodd" d="M9.54297 7.78125H11.3805V9.61875H9.54297V7.78125ZM9.69297 7.93125H9.84297V9.45H9.69297V7.93125ZM9.97422 7.93125H10.1242V9.45H9.97422V7.93125ZM10.2555 7.93125H10.4055V9.45H10.2555V7.93125ZM10.518 7.93125H10.668V9.45H10.518V7.93125ZM10.7992 7.93125H10.9492V9.45H10.7992V7.93125ZM11.0805 7.93125H11.2305V9.45H11.0805V7.93125ZM11.6617 9.88125H13.4992V11.7188H11.6617V9.88125ZM11.8117 10.0312H11.9617V11.55H11.8117V10.0312ZM12.093 10.0312H12.243V11.55H12.093V10.0312ZM12.3555 10.0312H12.5055V11.55H12.3555V10.0312ZM12.6367 10.0312H12.7867V11.55H12.6367V10.0312ZM12.918 10.0312H13.068V11.55H12.918V10.0312ZM13.1992 10.0312H13.3492V11.55H13.1992V10.0312Z" fill="#23C2EE"/>
<path fill-rule="evenodd" clip-rule="evenodd" d="M11.6621 7.78125H13.4996V9.61875H11.6621V7.78125ZM11.8121 7.93125H11.9621V9.45H11.8121V7.93125ZM12.0934 7.93125H12.2434V9.45H12.0934V7.93125ZM12.3559 7.93125H12.5059V9.45H12.3559V7.93125ZM12.6371 7.93125H12.7871V9.45H12.6371V7.93125ZM12.9184 7.93125H13.0684V9.45H12.9184V7.93125ZM13.1996 7.93125H13.3496V9.45H13.1996V7.93125Z" fill="#00ACD3"/>
<path fill-rule="evenodd" clip-rule="evenodd" d="M11.6621 5.66211H13.4996V7.49961H11.6621V5.66211ZM11.8121 5.81211H11.9621V7.33086H11.8121V5.81211ZM12.0934 5.81211H12.2434V7.33086H12.0934V5.81211ZM12.3559 5.81211H12.5059V7.33086H12.3559V5.81211ZM12.6371 5.81211H12.7871V7.33086H12.6371V5.81211ZM12.9184 5.81211H13.0684V7.33086H12.9184V5.81211ZM13.1996 5.81211H13.3496V7.33086H13.1996V5.81211Z" fill="#23C2EE"/>
<path fill-rule="evenodd" clip-rule="evenodd" d="M13.7812 9.88086H15.6188V11.7184H13.7812V9.88086ZM13.9313 10.0309H14.0812V11.5496H13.9313V10.0309ZM14.1937 10.0309H14.3438V11.5496H14.1937V10.0309ZM14.475 10.0309H14.625V11.5496H14.475V10.0309ZM14.7562 10.0309H14.9062V11.5496H14.7562V10.0309ZM15.0375 10.0309H15.1875V11.5496H15.0375V10.0309ZM15.3187 10.0309H15.4688V11.5496H15.3187V10.0309Z" fill="#00ACD3"/>
<path fill-rule="evenodd" clip-rule="evenodd" d="M9.15078 14.6816C9.43203 14.6816 9.65703 14.9066 9.65703 15.1879C9.65703 15.4691 9.43203 15.6941 9.15078 15.6941C8.86953 15.6941 8.64453 15.4691 8.64453 15.1879C8.64453 14.9066 8.86953 14.6816 9.15078 14.6816Z" fill="#D4EEF1"/>
<path fill-rule="evenodd" clip-rule="evenodd" d="M9.15078 14.832C9.18828 14.832 9.24453 14.832 9.28203 14.8508C9.24453 14.8695 9.20703 14.9258 9.20703 14.982C9.20703 15.057 9.28203 15.132 9.35703 15.132C9.41328 15.132 9.46953 15.0945 9.48828 15.057C9.50703 15.0945 9.50703 15.1508 9.50703 15.1883C9.50703 15.3945 9.33828 15.5445 9.15078 15.5445C8.94453 15.5445 8.79453 15.3758 8.79453 15.1883C8.79453 15.0008 8.94453 14.832 9.15078 14.832ZM0.207031 13.6508H23.7195C23.2133 13.5195 22.107 13.3508 22.2758 12.6758C21.3383 13.7445 19.107 13.4258 18.5258 12.9008C17.8883 13.8195 14.2133 13.4633 13.9695 12.7508C13.182 13.6883 10.7258 13.6883 9.93828 12.7508C9.67578 13.4633 6.00078 13.8195 5.38203 12.9008C4.81953 13.4258 2.56953 13.7445 1.63203 12.6758C1.83828 13.332 0.713281 13.5195 0.207031 13.6508Z" fill="#3A4D54"/>
<path d="M10.4992 18.3383C9.24297 17.7383 8.56797 16.932 8.17422 16.0508C7.70547 16.182 7.14297 16.2758 6.50547 16.3133C6.26172 16.332 5.99922 16.332 5.73672 16.332C5.41797 16.332 5.09922 16.332 4.76172 16.3133C5.88672 17.4383 7.31172 18.3195 9.91797 18.3383H10.4992Z" fill="#BFDBE0"/>
<path d="M8.64336 16.857C8.47461 16.6133 8.30586 16.332 8.17461 16.0508C7.70586 16.182 7.14336 16.2758 6.50586 16.3133C6.93711 16.5383 7.57461 16.7633 8.64336 16.857Z" fill="#D4EEF1"/>
</g>
<defs>
<clipPath id="clip0_2179_371">
<rect width="24" height="24" fill="white"/>
</clipPath>
</defs>
</svg>
