<svg width="24" height="24" viewBox="0 0 24 24" fill="none" xmlns="http://www.w3.org/2000/svg">
<g clip-path="url(#clip0_2173_923)">
<path d="M23.751 18.4571C22.896 18.6746 22.3673 18.4665 21.8929 17.754C20.8279 16.1584 19.6523 14.6359 18.5179 13.0853C18.3716 12.8846 18.2198 12.6878 18.0304 12.4384C16.6879 14.2496 15.3473 15.9746 14.0891 17.769C13.6391 18.4103 13.1666 18.6896 12.3266 18.4628L17.3741 11.6884L12.6754 5.57026C13.4835 5.41276 14.0423 5.49338 14.5373 6.21713C15.6304 7.81463 16.836 9.33526 18.0379 10.944C19.2473 9.34088 20.4379 7.81838 21.5629 6.23588C22.0148 5.59463 22.5004 5.35088 23.3123 5.58713C22.6973 6.40276 22.0954 7.20526 21.4898 8.00213C20.6723 9.07651 19.8698 10.164 19.0223 11.2159C18.7204 11.5909 18.7691 11.8346 19.0391 12.189C20.6066 14.2496 22.1554 16.3309 23.751 18.4571ZM0.249766 11.5759C0.384766 10.899 0.474766 10.209 0.662266 9.54526C1.78727 5.52713 6.39977 3.85651 9.56852 6.34651C11.4248 7.80713 11.886 9.86588 11.7941 12.1871H1.33164C1.17414 16.3515 4.17227 18.8659 7.99352 17.5834C9.33414 17.1334 10.1235 16.0834 10.5191 14.7709C10.7198 14.1128 11.0516 14.0096 11.6704 14.1971C11.3535 15.8396 10.6354 17.2121 9.13539 18.0709C6.88539 19.3571 3.67352 18.9409 1.98414 17.154C0.986641 16.104 0.562891 14.7971 0.375391 13.3853C0.347266 13.1603 0.289141 12.939 0.244141 12.7159C0.247891 12.3359 0.249766 11.9559 0.249766 11.5759ZM1.35039 11.2965H10.806C10.7441 8.28526 8.86914 6.14588 6.30602 6.12713C3.49352 6.10463 1.47227 8.19338 1.35039 11.2965Z" fill="black"/>
</g>
<defs>
<clipPath id="clip0_2173_923">
<rect width="24" height="24" fill="white"/>
</clipPath>
</defs>
</svg>
