<svg width="24" height="24" viewBox="0 0 24 24" fill="none" xmlns="http://www.w3.org/2000/svg">
<g clip-path="url(#clip0_2181_26)">
<path d="M12 12C12 9.7909 13.7905 8 15.9992 8C18.2079 8 19.9984 9.7909 19.9984 12C19.9984 14.2092 18.2079 16 15.9992 16C13.7905 16 12 14.2092 12 12Z" fill="#1ABCFE"/>
<path d="M4.00195 20C4.00195 17.7909 5.79244 16 8.00115 16H12.0004V20C12.0004 22.2092 10.2099 24 8.00115 24C5.79244 24 4.00195 22.2092 4.00195 20Z" fill="#0ACF83"/>
<path d="M12 0V7.99994H15.9992C18.2079 7.99994 19.9984 6.2091 19.9984 3.99994C19.9984 1.79079 18.2079 0 15.9992 0H12Z" fill="#FF7262"/>
<path d="M4.00195 4C4.00195 6.20916 5.79244 8 8.00115 8H12.0004V0H8.00115C5.79244 0 4.00195 1.7909 4.00195 4Z" fill="#F24E1E"/>
<path d="M4.00195 12C4.00195 14.2092 5.79244 16 8.00115 16H12.0004V8H8.00115C5.79244 8 4.00195 9.7909 4.00195 12Z" fill="#A259FF"/>
</g>
<defs>
<clipPath id="clip0_2181_26">
<rect width="16" height="24" fill="white" transform="translate(4)"/>
</clipPath>
</defs>
</svg>
