<svg width="24" height="24" viewBox="0 0 24 24" fill="none" xmlns="http://www.w3.org/2000/svg">
<g clip-path="url(#clip0_2179_510)">
<path d="M3 19.3484L3.14927 19.1452L10.2089 6.12121L10.2238 5.98332L7.11188 0.299867C6.85102 -0.17621 6.11695 -0.0558233 6.03145 0.477131L3 19.3484Z" fill="#FFC24A"/>
<path d="M3.08789 19.1944L3.20074 18.9803L10.1865 6.09276L7.0822 0.386202C6.82423 -0.0848836 6.16905 0.0352293 6.0844 0.562578L3.08789 19.1944Z" fill="#FFA712"/>
<g filter="url(#filter0_i_2179_510)">
<path d="M3.08789 19.1944L3.20074 18.9803L10.1865 6.09276L7.0822 0.386202C6.82423 -0.0848836 6.16905 0.0352293 6.0844 0.562578L3.08789 19.1944Z" fill="black"/>
</g>
<path d="M12.4923 10.2824L14.8095 7.97513L12.4916 3.67308C12.2716 3.26584 11.6573 3.26461 11.4396 3.67308L10.2012 5.96917V6.16468L12.4922 10.2824H12.4923Z" fill="#F4BD62"/>
<path d="M12.452 10.1871L14.7047 7.94398L12.452 3.77339C12.2381 3.3775 11.7184 3.336 11.5068 3.73305L10.2619 6.06483L10.2246 6.18405L12.452 10.1871Z" fill="#FFA50E"/>
<g filter="url(#filter1_i_2179_510)">
<path d="M12.452 10.1871L14.7047 7.94398L12.452 3.77339C12.2381 3.3775 11.7184 3.336 11.5068 3.73305L10.2619 6.06483L10.2246 6.18405L12.452 10.1871Z" fill="black"/>
</g>
<path d="M3 19.3488L3.06764 19.2826L3.31345 19.1855L12.347 10.4351L12.4615 10.1322L10.2079 5.95703L3 19.3488Z" fill="#F6820C"/>
<path d="M12.7819 23.7622L20.9575 19.3291L18.6229 5.34927C18.5498 4.91189 17.9979 4.739 17.6759 5.05258L3 19.3492L11.1287 23.7618C11.3813 23.899 11.6659 23.971 11.9553 23.9711C12.2446 23.9711 12.5292 23.8992 12.7819 23.7622Z" fill="#FDE068"/>
<path d="M20.8834 19.2916L18.5665 5.41801C18.494 4.9839 18.035 4.80432 17.7155 5.11557L3.08984 19.3217L11.1293 23.6906C11.38 23.8267 11.6624 23.8982 11.9496 23.8983C12.2368 23.8984 12.5192 23.827 12.77 23.691L20.8835 19.2916L20.8834 19.2916Z" fill="#FCCA3F"/>
<path d="M12.7818 23.6312C12.5291 23.7683 12.2445 23.8402 11.9552 23.8401C11.6658 23.84 11.3813 23.768 11.1286 23.6309L3.06539 19.2817L3 19.3489L11.1286 23.7615C11.3813 23.8987 11.6658 23.9707 11.9552 23.9708C12.2446 23.9708 12.5292 23.8989 12.7819 23.7619L20.9575 19.3288L20.9374 19.209L12.7819 23.6313L12.7818 23.6312Z" fill="#EEAB37"/>
</g>
<defs>
<filter id="filter0_i_2179_510" x="3.08789" y="0.0917969" width="7.09766" height="19.1035" filterUnits="userSpaceOnUse" color-interpolation-filters="sRGB">
<feFlood flood-opacity="0" result="BackgroundImageFix"/>
<feBlend mode="normal" in="SourceGraphic" in2="BackgroundImageFix" result="shape"/>
<feColorMatrix in="SourceAlpha" type="matrix" values="0 0 0 0 0 0 0 0 0 0 0 0 0 0 0 0 0 0 127 0" result="hardAlpha"/>
<feOffset/>
<feGaussianBlur stdDeviation="124.619"/>
<feComposite in2="hardAlpha" operator="arithmetic" k2="-1" k3="1"/>
<feColorMatrix type="matrix" values="0 0 0 0 0 0 0 0 0 0 0 0 0 0 0 0 0 0 0.06 0"/>
<feBlend mode="normal" in2="shape" result="effect1_innerShadow_2179_510"/>
</filter>
<filter id="filter1_i_2179_510" x="10.2246" y="3.45508" width="4.48047" height="6.73242" filterUnits="userSpaceOnUse" color-interpolation-filters="sRGB">
<feFlood flood-opacity="0" result="BackgroundImageFix"/>
<feBlend mode="normal" in="SourceGraphic" in2="BackgroundImageFix" result="shape"/>
<feColorMatrix in="SourceAlpha" type="matrix" values="0 0 0 0 0 0 0 0 0 0 0 0 0 0 0 0 0 0 127 0" result="hardAlpha"/>
<feOffset dx="7.12109" dy="-64.0898"/>
<feGaussianBlur stdDeviation="24.9238"/>
<feComposite in2="hardAlpha" operator="arithmetic" k2="-1" k3="1"/>
<feColorMatrix type="matrix" values="0 0 0 0 0 0 0 0 0 0 0 0 0 0 0 0 0 0 0.09 0"/>
<feBlend mode="normal" in2="shape" result="effect1_innerShadow_2179_510"/>
</filter>
<clipPath id="clip0_2179_510">
<rect width="18" height="24" fill="white" transform="translate(3)"/>
</clipPath>
</defs>
</svg>
