<svg width="24" height="24" viewBox="0 0 24 24" fill="none" xmlns="http://www.w3.org/2000/svg">
<g clip-path="url(#clip0_2172_656)">
<g clip-path="url(#clip1_2172_656)">
<path d="M0 12C0 8.68749 1.17187 5.85937 3.51565 3.51562C5.85937 1.17187 8.68749 0 12 0C15.3125 0 18.1406 1.17187 20.4844 3.51562C22.8281 5.85937 24 8.68749 24 12C24 15.3125 22.8281 18.1406 20.4844 20.4844C18.1406 22.8281 15.3125 24 12 24C8.68749 24 5.85937 22.8281 3.51565 20.4844C1.17187 18.1406 0 15.3125 0 12ZM1.3125 12C1.3125 14.9375 2.35937 17.4531 4.45312 19.5469C6.54687 21.6406 9.06249 22.6875 12 22.6875C14.9375 22.6875 17.4531 21.6406 19.5469 19.5469C21.6406 17.4531 22.6875 14.9375 22.6875 12C22.6875 9.06249 21.6407 6.54687 19.5469 4.45312C17.4531 2.35937 14.9375 1.3125 12 1.3125C9.06249 1.3125 6.54689 2.35937 4.45312 4.45312C2.35937 6.54687 1.3125 9.06249 1.3125 12ZM4.68752 14.5781C4.62502 14.5156 4.62502 14.4531 4.68752 14.3906C4.8125 14.2656 4.96877 14.2187 5.15625 14.25C5.34374 14.2812 5.45312 14.3125 5.48437 14.3437C5.70312 14.4375 5.94532 14.6484 6.21092 14.9766C6.47652 15.3047 6.68747 15.5312 6.84374 15.6562C7.59374 16.2812 8.35934 16.3281 9.14059 15.7969C9.20309 15.5781 9.30467 15.3906 9.44527 15.2343C9.58587 15.0781 9.71872 14.9687 9.84372 14.9062C9.96874 14.8437 10.1875 14.75 10.5 14.625C9.46872 14.5312 8.63279 14.3515 7.99217 14.0859C7.35154 13.8203 6.84372 13.4843 6.46872 13.0781C5.96872 12.5156 5.66402 11.7812 5.55465 10.875C5.44525 9.96872 5.51557 9.14059 5.7656 8.39059C5.9531 7.92184 6.21872 7.49999 6.56245 7.12497C6.31245 6.34372 6.35932 5.4531 6.70307 4.4531C7.70307 4.5156 8.60932 4.85935 9.42182 5.48435C10.9843 5.0781 12.6093 5.06247 14.2968 5.43747C14.5155 5.28122 14.8515 5.08592 15.3046 4.85152C15.7577 4.61715 16.328 4.48432 17.0155 4.45307C17.1405 4.79682 17.2265 5.20307 17.2734 5.67182C17.3202 6.14057 17.2968 6.57807 17.2031 6.98432C17.9218 7.73432 18.2968 8.73432 18.328 9.98432C18.328 10.9843 18.1562 11.8124 17.8124 12.4687C17.4687 13.1249 16.8593 13.6718 15.9843 14.1093C15.3906 14.3906 14.6093 14.5624 13.6406 14.6249C14.0781 14.8437 14.3984 15.0702 14.6015 15.3046C14.8047 15.539 14.9375 15.9062 15 16.4062V17.8828L15.0468 19.3124C15.1406 19.4687 15.25 19.6015 15.375 19.7109C15.5 19.8203 15.6094 19.8984 15.7031 19.9453C15.7968 19.9922 15.8281 20.0625 15.7968 20.1562C15.7656 20.25 15.6406 20.2969 15.4219 20.2969C14.8906 20.2969 14.4687 20.1094 14.1562 19.7343C14.0625 19.5781 14.0156 19.3906 14.0156 19.1718V16.9218C14.0156 16.6718 13.9531 16.4921 13.8281 16.3828C13.7031 16.2734 13.5781 16.2031 13.4531 16.1718V19.1249C13.4531 19.6562 13.5156 19.9999 13.6406 20.1562C13.7656 20.3124 13.8437 20.4687 13.875 20.6249C13.9063 20.6562 13.8828 20.6796 13.8047 20.6952C13.7266 20.7108 13.5938 20.6874 13.4062 20.6249C13 20.5312 12.7187 20.3202 12.5625 19.9921C12.4062 19.664 12.3281 19.3124 12.3281 18.9374V16.0312H11.7187V18.9375C11.7187 19.3125 11.6406 19.6719 11.4843 20.0156C11.2656 20.4531 10.8593 20.6875 10.2656 20.7187C10.1719 20.6875 10.125 20.6562 10.125 20.625C10.1562 20.5937 10.25 20.4375 10.4062 20.1563C10.4375 20.0938 10.4766 19.9688 10.5234 19.7813C10.5703 19.5938 10.5938 19.375 10.5938 19.125V16.1719C10.4688 16.2031 10.3516 16.2734 10.2422 16.3828C10.1328 16.4922 10.0781 16.6719 10.0781 16.9219V19.1719C10.0781 19.3906 10.0312 19.5781 9.93749 19.7344C9.65624 20.1094 9.23437 20.2969 8.67189 20.2969C8.45314 20.2969 8.32814 20.25 8.29689 20.1563C8.26562 20.0938 8.27344 20.0391 8.32034 19.9922C8.36724 19.9453 8.43754 19.8906 8.53129 19.8281C8.62504 19.7656 8.68754 19.7187 8.71879 19.6875C8.84379 19.5938 8.93752 19.4688 9.00004 19.3125C9.09379 19.1875 9.11722 18.8594 9.07034 18.3281C9.02347 17.7969 9.01564 17.4531 9.04689 17.2969C8.23437 17.5781 7.40627 17.4375 6.56249 16.875C6.31249 16.625 6.06249 16.2656 5.81249 15.7969C5.62499 15.4531 5.24999 15.0469 4.68752 14.5781Z" fill="black"/>
</g>
</g>
<defs>
<clipPath id="clip0_2172_656">
<rect width="24" height="24" fill="white"/>
</clipPath>
<clipPath id="clip1_2172_656">
<rect width="24" height="24" fill="white"/>
</clipPath>
</defs>
</svg>
