<svg width="24" height="24" viewBox="0 0 24 24" fill="none" xmlns="http://www.w3.org/2000/svg">
<g clip-path="url(#clip0_2172_669)">
<path d="M12.0079 23.0035L16.4239 9.49121H7.5918L12.0079 23.0035Z" fill="#E24329"/>
<path d="M12.0072 23.0035L7.59116 9.49121H1.40234L12.0072 23.0035Z" fill="#FC6D26"/>
<path d="M1.40232 9.49121L0.060381 13.5976C0.000714354 13.7801 0.000706123 13.9768 0.0603575 14.1593C0.120009 14.3419 0.236258 14.501 0.392444 14.6138L12.0072 23.0036L1.40222 9.4913L1.40232 9.49121Z" fill="#FCA326"/>
<path d="M1.40234 9.49154H7.59116L4.93156 1.35311C4.79469 0.934332 4.19881 0.934425 4.06203 1.35311L1.40234 9.49154Z" fill="#E24329"/>
<path d="M12.0079 23.0035L16.4239 9.49121H22.6128L12.0079 23.0035Z" fill="#FC6D26"/>
<path d="M22.6127 9.49121L23.9547 13.5976C24.0143 13.7801 24.0143 13.9768 23.9546 14.1593C23.895 14.3419 23.7787 14.501 23.6225 14.6138L12.0078 23.0036L22.6127 9.4913V9.49121Z" fill="#FCA326"/>
<path d="M22.6127 9.49154H16.4238L19.0835 1.35311C19.2204 0.934332 19.8163 0.934425 19.953 1.35311L22.6127 9.49154Z" fill="#E24329"/>
</g>
<defs>
<clipPath id="clip0_2172_669">
<rect width="24" height="22" fill="white" transform="translate(0 1)"/>
</clipPath>
</defs>
</svg>
