<svg width="24" height="24" viewBox="0 0 24 24" fill="none" xmlns="http://www.w3.org/2000/svg">
<path d="M1.81095 10.288C1.77802 10.288 1.7451 10.255 1.77802 10.2221L2.00848 9.8929C2.0414 9.85998 2.07432 9.82706 2.14016 9.82706H6.28831C6.32123 9.82706 6.35416 9.85998 6.32123 9.8929L6.1237 10.1892C6.09078 10.2221 6.05786 10.255 5.99202 10.255L1.81095 10.288ZM0.0660898 11.3415C0.033168 11.3415 0.000246074 11.3085 0.0331679 11.2756L0.263621 10.9464C0.296543 10.9135 0.329464 10.8806 0.395308 10.8806H5.69572C5.72864 10.8806 5.76156 10.9135 5.76156 10.9464L5.6628 11.2756C5.6628 11.3085 5.59695 11.3415 5.56403 11.3415H0.0660898ZM2.86444 12.4279C2.83152 12.4279 2.7986 12.395 2.83152 12.362L2.99613 12.0657C3.02905 12.0328 3.06197 11.9999 3.12782 11.9999H5.43234C5.46527 11.9999 5.49819 12.0328 5.49819 12.0657L5.46527 12.3291C5.46527 12.362 5.43235 12.395 5.39942 12.395L2.86444 12.4279ZM14.9138 10.0575L12.9714 10.5513C12.8068 10.5843 12.7739 10.6172 12.6422 10.4196C12.4776 10.2221 12.3459 10.0904 12.0826 9.99166C11.3583 9.62952 10.634 9.72829 9.97555 10.1563C9.18543 10.6501 8.79037 11.4073 8.79037 12.362C8.79037 13.2838 9.44881 14.041 10.3706 14.1727C11.1607 14.2715 11.8192 14.0081 12.3459 13.4155C12.4447 13.2838 12.5435 13.1522 12.6751 12.9875H10.4365C10.206 12.9875 10.1402 12.8229 10.206 12.6254C10.3706 12.2633 10.634 11.6707 10.7986 11.3744C10.8315 11.3085 10.9303 11.1768 11.0949 11.1768H15.3089C15.276 11.5061 15.276 11.8024 15.243 12.1316C15.1114 12.9546 14.8151 13.7448 14.2883 14.4032C13.4653 15.4896 12.3788 16.181 10.9961 16.3785C9.84387 16.5431 8.79037 16.3127 7.86856 15.6213C7.01259 14.9629 6.51877 14.1069 6.38708 13.0534C6.22247 11.8024 6.61753 10.6501 7.37473 9.66245C8.19778 8.57603 9.2842 7.88467 10.634 7.65422C11.7204 7.45669 12.7739 7.58837 13.6957 8.21389C14.3212 8.60895 14.7492 9.16862 15.0455 9.85998C15.0784 9.99166 15.0455 10.0246 14.9138 10.0575Z" fill="#00ACD7"/>
<path d="M18.733 16.4775C17.6795 16.4446 16.7248 16.1483 15.9017 15.4569C15.2104 14.8644 14.7824 14.1071 14.6507 13.2183C14.4532 11.9014 14.8153 10.7491 15.6054 9.72855C16.4614 8.60921 17.482 8.04953 18.8647 7.78616C20.0499 7.58863 21.1692 7.68739 22.1569 8.37875C23.0787 9.00427 23.6383 9.86023 23.803 10.9796C24.0005 12.5598 23.5396 13.8109 22.4861 14.8973C21.7289 15.6874 20.7741 16.1483 19.7206 16.3788C19.3585 16.4446 19.0293 16.4446 18.733 16.4775ZM21.4984 11.8026C21.4984 11.638 21.4984 11.5392 21.4655 11.4076C21.268 10.2553 20.2145 9.59686 19.0951 9.86023C18.0087 10.0907 17.3174 10.782 17.054 11.8685C16.8565 12.7574 17.2844 13.6792 18.1075 14.0742C18.733 14.3376 19.3914 14.3047 19.984 14.0084C20.9388 13.5475 21.4326 12.7903 21.4984 11.8026Z" fill="#00ACD7"/>
</svg>
