<svg width="24" height="24" viewBox="0 0 24 24" fill="none" xmlns="http://www.w3.org/2000/svg">
<g clip-path="url(#clip0_2172_815)">
<path d="M6.98912 12.2034C6.98912 12.2034 6.98912 12.2058 6.98912 12.2073L6.67354 13.607C6.65651 13.6862 6.5792 13.7442 6.48975 13.7442H6.10898C6.08078 13.7442 6.05547 13.7634 6.04769 13.7909C5.69613 15.0101 5.22006 15.8481 4.59132 16.3512C4.05639 16.7796 3.39701 16.9793 2.51636 16.9793C1.7247 16.9793 1.19125 16.7191 0.73853 16.2057C0.140407 15.527 -0.107108 14.416 0.0426652 13.0773C0.313035 10.5642 1.58806 8.02847 4.04425 8.02847C4.79118 8.02158 5.37762 8.25716 5.78562 8.72732C6.21692 9.22453 6.43624 9.97355 6.4372 10.9537C6.43574 11.0427 6.36331 11.1145 6.27625 11.1145H4.47702C4.41334 11.1145 4.35644 11.056 4.35741 10.9916C4.34281 10.3139 4.14587 9.98338 3.75491 9.98338C3.06537 9.98338 2.65835 10.9404 2.44244 11.4711C2.14095 12.2122 1.98777 13.0168 2.01792 13.8185C2.03203 14.1918 2.09087 14.7165 2.43758 14.9339C2.74491 15.1267 3.18353 14.9988 3.44904 14.7854C3.71455 14.5719 3.92803 14.2026 4.01798 13.8657C4.03061 13.819 4.03161 13.7826 4.01944 13.7663C4.00681 13.7496 3.97179 13.7457 3.94505 13.7457H3.48308C3.43348 13.7457 3.38436 13.7226 3.3547 13.6852C3.3299 13.6537 3.32017 13.6149 3.32893 13.5765L3.64501 12.1744C3.66057 12.1026 3.72427 12.0485 3.80256 12.0386V12.0352H6.83449C6.84181 12.0352 6.84909 12.0352 6.85591 12.0367C6.93469 12.047 6.99012 12.1218 6.98866 12.2034H6.98912Z" fill="#0E100F"/>
<path d="M12.2105 10.5948C12.2091 10.6823 12.1366 10.7541 12.0496 10.7541H10.3924C10.2839 10.7541 10.193 10.6641 10.193 10.5544C10.193 10.0602 10.0257 9.81967 9.68338 9.81967C9.34102 9.81967 9.12024 10.0346 9.11393 10.4098C9.10664 10.8284 9.33809 11.2085 9.9975 11.8621C10.8655 12.6943 11.2132 13.4315 11.1966 14.4057C11.1694 15.9815 10.121 17 8.52602 17C7.71149 17 7.08907 16.7772 6.67525 16.3381C6.25511 15.8919 6.06254 15.2374 6.10291 14.3925C6.10483 14.3049 6.1768 14.2336 6.26386 14.2336H7.97799C8.02468 14.2336 8.07087 14.2567 8.102 14.2961C8.12873 14.33 8.1399 14.3718 8.13312 14.4112C8.11413 14.7161 8.16618 14.9438 8.28336 15.0697C8.35875 15.1513 8.46331 15.1926 8.59409 15.1926C8.91068 15.1926 9.09644 14.9639 9.10322 14.5656C9.10907 14.2213 9.00255 13.9194 8.42197 13.309C7.67211 12.56 6.99958 11.7864 7.02049 10.5697C7.03267 9.86443 7.30691 9.21918 7.79273 8.75295C8.30621 8.26016 9.00891 8 9.82437 8C10.6413 8.0059 11.2604 8.24393 11.6644 8.7077C12.0472 9.14738 12.2315 9.7823 12.211 10.5948H12.2105Z" fill="#0E100F"/>
<path d="M17.3464 16.7037L17.3571 8.3239C17.3586 8.23587 17.289 8.16406 17.202 8.16406H14.6369C14.5508 8.16406 14.5129 8.2398 14.4881 8.28996L10.7744 16.6526V16.6541C10.7744 16.6541 10.7734 16.6555 10.7729 16.656C10.7316 16.7588 10.8099 16.869 10.9188 16.869H12.7117C12.8085 16.869 12.8727 16.839 12.9043 16.7765L13.2602 15.9021C13.304 15.7855 13.3123 15.7747 13.4367 15.7747H15.1499C15.269 15.7747 15.2715 15.7772 15.2695 15.8962L15.2311 16.7091C15.2297 16.7972 15.2992 16.869 15.3863 16.869H17.1976C17.2438 16.869 17.2871 16.8493 17.3158 16.8144C17.3415 16.7834 17.3523 16.7441 17.3464 16.7037ZM14.173 13.9058C14.1564 13.9058 14.1433 13.9054 14.1326 13.9044C14.1059 13.902 14.0879 13.8758 14.0947 13.8493C14.0981 13.837 14.103 13.8208 14.1103 13.8006L15.395 10.5523C15.4062 10.5203 15.4203 10.4888 15.4349 10.4583C15.4558 10.4146 15.4811 10.4116 15.4888 10.4441C15.4957 10.4711 15.3415 13.7795 15.3415 13.7795C15.3294 13.9034 15.324 13.9083 15.2044 13.9187L14.1744 13.9064H14.172L14.173 13.9058Z" fill="#0E100F"/>
<path d="M21.0016 8.16407H19.64C19.5681 8.16407 19.4873 8.20292 19.4684 8.29046C19.4684 8.29046 17.5733 16.6983 17.5733 16.6993C17.5651 16.7382 17.5738 16.7765 17.5991 16.8085C17.6288 16.8459 17.6779 16.869 17.7275 16.869H19.4294C19.5209 16.869 19.5836 16.8233 19.6006 16.7436C19.6006 16.7436 19.8068 15.7934 19.8073 15.7905C19.8219 15.7162 19.7966 15.6587 19.7314 15.6237C19.7008 15.6075 19.6701 15.5913 19.64 15.5751L19.3449 15.4182L19.0511 15.2618C19.0132 15.2416 18.9753 15.2215 18.9378 15.2013C18.9189 15.1915 18.9072 15.1718 18.9077 15.1502C18.9082 15.1182 18.9344 15.0921 18.966 15.0921L19.8987 15.0965C20.1778 15.098 20.4569 15.0778 20.7312 15.0262C22.6627 14.6618 23.9455 13.0806 23.9825 10.9295C24.0141 9.09358 23.0114 8.16309 21.003 8.16309L21.0016 8.16407ZM20.5381 13.1682H20.5017C20.42 13.1682 20.4054 13.1588 20.403 13.1559C20.4015 13.1539 20.9408 10.7342 20.9413 10.7308C20.9549 10.661 20.9544 10.6206 20.9121 10.597C20.8581 10.5665 20.0709 10.1421 20.0709 10.1421C20.0519 10.1318 20.0407 10.1121 20.0412 10.0905C20.0417 10.059 20.0674 10.0329 20.0991 10.0329H21.3439C21.7315 10.0452 21.9474 10.3993 21.9372 11.0042C21.9192 12.0518 21.4319 13.1313 20.5381 13.1682Z" fill="#0E100F"/>
<path d="M22.3866 16.8687C22.6667 16.8687 22.886 16.6508 22.886 16.3572C22.886 16.0636 22.6667 15.8457 22.3866 15.8457C22.1065 15.8457 21.8848 16.0636 21.8848 16.3572C21.8848 16.6508 22.106 16.8687 22.3866 16.8687ZM22.0039 16.3552C22.0039 16.1059 22.1503 15.9426 22.3866 15.9426C22.6229 15.9426 22.7669 16.1054 22.7669 16.3552C22.7669 16.6051 22.6229 16.7693 22.3866 16.7693C22.1503 16.7693 22.0039 16.6065 22.0039 16.3552ZM22.1673 16.6296H22.3263V16.4329H22.3725C22.4916 16.4329 22.4396 16.6065 22.4688 16.6296H22.6336V16.6213C22.6025 16.6129 22.6526 16.3951 22.5145 16.372V16.3695C22.5816 16.3552 22.6249 16.306 22.6249 16.2323C22.6249 16.1265 22.5495 16.0695 22.4279 16.0695H22.1663V16.6296H22.1673ZM22.3263 16.3144V16.1831H22.3808C22.4352 16.1831 22.4664 16.2003 22.4664 16.2485C22.4664 16.2927 22.4352 16.3139 22.3808 16.3139H22.3263V16.3144Z" fill="#0E100F"/>
</g>
<defs>
<clipPath id="clip0_2172_815">
<rect width="24" height="9" fill="white" transform="translate(0 8)"/>
</clipPath>
</defs>
</svg>
