<svg width="24" height="24" viewBox="0 0 24 24" fill="none" xmlns="http://www.w3.org/2000/svg">
<g clip-path="url(#clip0_2179_156)">
<g clip-path="url(#clip1_2179_156)">
<path d="M11.9992 23.3901C18.2897 23.3901 23.3891 18.2907 23.3891 12.0002C23.3891 5.70979 18.2897 0.610352 11.9992 0.610352C5.70862 0.610352 0.609375 5.70979 0.609375 12.0002C0.609375 18.2909 5.70881 23.3901 11.9992 23.3901Z" fill="white"/>
<path d="M12 0C5.37262 0 0 5.37262 0 12C0 18.6274 5.37262 24 12 24C18.6274 24 24 18.6274 24 12C24 5.37262 18.6274 0 12 0ZM12 1.22044C17.9535 1.22044 22.7797 6.04669 22.7797 12C22.7797 17.9535 17.9535 22.7797 12 22.7797C6.0465 22.7797 1.22025 17.9535 1.22025 12C1.22025 6.0465 6.0465 1.22044 12 1.22044Z" fill="#4000BF"/>
<path d="M12.1361 3.45703C16.8539 3.45703 20.6786 7.28166 20.6786 11.9995C20.6786 16.7174 16.8539 20.542 12.1361 20.542C7.41838 20.542 3.59376 16.7174 3.59376 11.9995C3.59228 10.8825 3.81062 9.77612 4.23632 8.74341C4.84082 9.56672 5.81601 10.1013 6.91569 10.1013C8.75057 10.1013 10.2378 8.61403 10.2378 6.77916C10.2378 5.67928 9.70344 4.70428 8.87994 4.09978C9.91268 3.67415 11.0191 3.45563 12.1361 3.45703Z" fill="url(#paint0_linear_2179_156)"/>
</g>
</g>
<defs>
<linearGradient id="paint0_linear_2179_156" x1="12.1363" y1="20.542" x2="12.1363" y2="3.45703" gradientUnits="userSpaceOnUse">
<stop stop-color="#7400E1"/>
<stop offset="1" stop-color="#4000BF"/>
</linearGradient>
<clipPath id="clip0_2179_156">
<rect width="24" height="24" fill="white"/>
</clipPath>
<clipPath id="clip1_2179_156">
<rect width="24" height="24" fill="white"/>
</clipPath>
</defs>
</svg>
