<svg width="24" height="24" viewBox="0 0 24 24" fill="none" xmlns="http://www.w3.org/2000/svg">
<g clip-path="url(#clip0_2173_1225)">
<path d="M8.92873 18.3971C8.92873 18.3971 8.03492 18.9173 9.56567 19.0928C11.4204 19.3046 12.3682 19.2743 14.4116 18.888C14.4116 18.888 14.9499 19.2246 15.7003 19.5163C11.118 21.4795 5.33004 19.4025 8.92873 18.3971ZM8.36848 15.835C8.36848 15.835 7.36573 16.5773 8.89779 16.7359C10.8791 16.9405 12.4434 16.9571 15.1517 16.4359C15.1517 16.4359 15.5254 16.8156 16.1139 17.023C10.5748 18.643 4.40529 17.1505 8.36848 15.835Z" fill="#0074BD"/>
<path d="M13.088 11.4882C14.2177 12.7885 12.7917 13.9576 12.7917 13.9576C12.7917 13.9576 15.6584 12.478 14.3422 10.6244C13.1123 8.89656 12.1696 8.03838 17.2737 5.07812C17.2737 5.07831 9.26166 7.07875 13.088 11.4882Z" fill="#EA2D2E"/>
<path d="M19.148 20.2933C19.148 20.2933 19.8096 20.8389 18.419 21.2606C15.7748 22.0616 7.41158 22.3031 5.08883 21.2927C4.25427 20.9293 5.81989 20.4255 6.31246 20.3192C6.82602 20.208 7.11927 20.2282 7.11927 20.2282C6.19058 19.5744 1.11683 21.5126 4.54246 22.0686C13.8839 23.5828 21.5706 21.3866 19.148 20.2933ZM9.35839 13.1805C9.35839 13.1805 5.10477 14.1909 7.85221 14.5582C9.01246 14.7135 11.3243 14.6779 13.4793 14.4971C15.2399 14.3492 17.0067 14.0332 17.0067 14.0332C17.0067 14.0332 16.3865 14.2993 15.9372 14.6057C11.6168 15.7421 3.27271 15.2128 5.67514 14.0511C7.70614 13.0687 9.35839 13.1805 9.35839 13.1805ZM16.9891 17.4456C21.3805 15.1642 19.3499 12.9718 17.9326 13.2671C17.5861 13.3393 17.4306 13.4021 17.4306 13.4021C17.4306 13.4021 17.5596 13.1998 17.8056 13.1128C20.6093 12.1275 22.7652 16.0196 16.9013 17.5612C16.9013 17.5609 16.9686 17.4999 16.9891 17.4456Z" fill="#0074BD"/>
<path d="M14.342 0.297852C14.342 0.297852 16.7735 2.73085 12.0352 6.47091C8.23535 9.47204 11.1688 11.1828 12.0339 13.1382C9.81559 11.137 8.18847 9.3751 9.27991 7.73541C10.8827 5.32904 15.3228 4.16185 14.342 0.297852Z" fill="#EA2D2E"/>
<path d="M9.78928 23.6286C14.0035 23.8981 20.4768 23.4786 20.63 21.4844C20.63 21.4844 20.3354 22.2404 17.1468 22.8402C13.5494 23.5174 9.11166 23.4385 6.48047 23.0041C6.48047 23.0043 7.01953 23.4505 9.78928 23.6286Z" fill="#0074BD"/>
</g>
<defs>
<clipPath id="clip0_2173_1225">
<rect width="24" height="24" fill="white"/>
</clipPath>
</defs>
</svg>
