<svg width="24" height="24" viewBox="0 0 24 24" fill="none" xmlns="http://www.w3.org/2000/svg">
<g clip-path="url(#clip0_2179_561)">
<g clip-path="url(#clip1_2179_561)">
<path d="M20.4167 11.5651C20.4167 16.3201 16.6482 20.1747 11.9995 20.1747C7.35059 20.1747 3.58203 16.3201 3.58203 11.5651C3.58203 6.81008 7.35078 2.95508 11.9995 2.95508C16.6482 2.95508 20.4167 6.81008 20.4167 11.5651Z" fill="#D33833"/>
<path d="M3.92563 13.6966C3.92563 13.6966 3.31625 4.71819 11.5891 4.46187L11.012 3.5L6.52269 5.00694L5.24019 6.482L4.11781 8.63056L3.47656 11.1316L3.66875 12.7991" fill="#EF3D3A"/>
<path d="M6.23583 5.69225C4.75908 7.2035 3.8452 9.28963 3.8452 11.5978C3.8452 13.9053 4.75908 15.992 6.23583 17.5029C7.71333 19.0136 9.74958 19.946 12.0009 19.946C14.2522 19.946 16.2885 19.0136 17.766 17.5029C19.2427 15.992 20.1568 13.9053 20.1568 11.5978C20.1568 9.28963 19.2427 7.20331 17.766 5.69225C16.2885 4.18194 14.2522 3.2495 12.0009 3.24931C9.74977 3.2495 7.71333 4.18175 6.23583 5.69244V5.69225ZM5.86214 17.8683C4.29277 16.2631 3.32227 14.0448 3.32227 11.5978C3.32227 9.15031 4.29277 6.93219 5.86214 5.327C7.43152 3.72144 9.60352 2.72638 12.0009 2.72656C14.3986 2.72619 16.571 3.72144 18.1398 5.327C19.7096 6.93219 20.6801 9.1505 20.6799 11.5978C20.6799 14.0446 19.7096 16.2631 18.1398 17.8683C16.571 19.4737 14.3986 20.4689 12.0011 20.4689C9.60352 20.4689 7.43114 19.4737 5.86214 17.8683Z" fill="#231F20"/>
<path d="M15.5428 11.6125L14.2601 11.8049L12.5285 11.9972L11.4061 12.0293L10.3158 11.9974L9.48219 11.7407L8.74456 10.9392L8.16744 9.3038L8.03919 8.95111L7.2695 8.69461L6.82063 7.95698L6.5 6.89873L6.85269 5.96873L7.68631 5.68036L8.35981 6.00098L8.68044 6.70636L9.06538 6.64223L9.19344 6.48192L9.06538 5.74448L9.03313 4.81448L9.2255 3.53198L9.218 2.79923L9.80281 1.86455L10.8288 1.12692L12.6247 0.357422L14.6128 0.645984L16.3443 1.89661L17.1461 3.17911L17.6591 4.10911L17.7873 6.4178L17.4024 8.40605L16.697 10.1695L16.0237 11.0995" fill="#F0D6B7"/>
<path d="M16.5049 10.682L15.7356 11.4517V14.4337L15.0643 17.1825L14.7417 17.1913L14.998 20.2696L16.2163 20.1093L15.928 17.1592L15.3838 17.174L16.8582 17.0949C16.8582 17.0949 17.5954 15.2351 17.5954 15.1389C17.5954 15.0427 18.237 12.4455 18.237 12.4455L16.7937 10.9385L16.5051 10.6816L16.5049 10.682ZM8.77709 11.1628L7.97553 11.4836L5.41016 13.2472L5.57066 13.7604L6.30828 15.9406L6.62872 19.5645L6.85316 19.9488L10.0596 21.0395L10.2523 20.8145L9.86741 18.1211V17.3518L14.4527 17.1592L14.8052 16.9668L12.016 15.6521L12.529 14.6583L11.7915 14.9146L11.5028 14.562L11.118 12.8945L10.7972 12.7983L10.0918 12.5737L9.48247 12.0288L8.77709 11.1628Z" fill="#335061"/>
<path d="M6.85286 5.96942L7.68648 5.68067L8.35998 6.00148L8.68061 6.70686L9.06555 6.64273L9.16173 6.25798L8.96936 5.52055L9.16173 3.75673L9.00123 2.79486L9.57855 2.12136L10.8292 1.12742L10.4763 0.646484L8.71267 1.51217L7.97523 2.08948L7.55823 2.98723L6.91698 3.85292L6.72461 4.87911L6.85286 5.96942Z" fill="#6D6B6D"/>
<path d="M11.1455 0.754064C10.9257 0.751814 10.6687 0.774314 10.6687 0.774314L8.58461 1.57625L7.78267 2.378L7.42998 3.01925L8.16761 2.95513C8.16761 2.95513 8.64855 1.76863 10.5725 1.1915C11.7749 0.830752 11.5119 0.758002 11.1455 0.754064ZM9.00142 2.79463L7.2378 3.21144L6.72461 4.87888L6.85286 5.969L7.20536 5.74494C7.20536 5.74494 6.53205 3.49981 9.09723 3.17919L9.00142 2.79463Z" fill="#DCD9D8"/>
<path d="M13.1224 0.0885365C12.8754 0.0929211 12.6311 0.140384 12.4005 0.228786C10.4768 0.966224 9.06581 2.31285 9.09769 3.17854C9.15244 4.65304 9.12994 4.65416 9.12994 4.65416C9.12994 4.65416 9.67519 1.8321 12.4331 1.28685C14.7034 0.838162 15.8959 1.38285 16.3449 1.89585C16.3449 1.89585 14.7981 0.054599 13.1226 0.088349L13.1224 0.0885365ZM16.5589 2.21666C16.4567 2.2161 15.6377 2.23691 15.6075 3.0186C15.6075 3.0186 15.6075 3.14666 15.6716 3.27491C15.6716 3.27491 16.4093 2.4411 16.8581 2.88997L16.5696 2.21685C16.5696 2.21685 16.5658 2.21666 16.5589 2.21666ZM11.8367 2.59354C11.6792 2.59729 11.4849 2.6631 11.2463 2.82604C10.5409 3.30697 10.605 3.98047 10.7332 4.10872C10.8615 4.23697 10.8268 4.49497 10.9245 4.31779C11.022 4.1406 10.9899 3.56366 11.3426 3.40335C11.6953 3.24304 12.2737 3.0636 12.4976 3.36172C12.4976 3.36172 12.3998 2.5806 11.8367 2.59372V2.59354ZM16.7936 4.55779C16.7936 4.55779 16.2653 4.66916 16.2165 5.13491C16.1677 5.60047 16.7938 5.23091 16.89 5.19885L16.7936 4.5576V4.55779ZM12.9137 4.58985C12.9137 4.58985 12.2083 4.68604 12.2083 5.13491C12.2083 5.58379 13.0101 5.55172 13.2345 5.35935L12.9137 4.58985ZM7.206 5.74447L6.46875 6.5136L6.597 7.47566L6.98138 8.46941L7.39856 8.59804C6.78919 7.8606 7.07775 7.34722 7.206 6.64185C7.33406 5.93629 8.55281 6.6741 8.55281 6.6741L8.52056 6.19279L8.03981 5.80841L7.206 5.74447ZM14.4452 7.21579C14.2341 7.20641 14.1534 7.89735 14.1362 8.07566C14.1943 7.90316 14.7308 7.55629 14.7308 7.55629C14.7308 7.55629 14.7308 7.29454 14.469 7.21991C14.4613 7.21761 14.4533 7.21622 14.4452 7.21579ZM14.1362 8.07566C14.131 8.08883 14.1297 8.10321 14.1324 8.1171C14.1324 8.1171 14.1336 8.10191 14.1362 8.07566ZM8.65219 8.3196L8.23219 8.72647L8.32837 10.1374L9.35456 11.7407C9.35456 11.7407 10.5064 12.0006 10.3806 11.9012C9.00187 10.8109 8.90569 8.7906 8.87363 8.56597C8.84175 8.34172 8.65219 8.3196 8.65219 8.3196ZM12.2604 8.79754C12.1339 8.79941 12.0501 8.84029 12.0264 8.87179C11.9464 8.97866 12.1121 9.56029 12.1121 9.56029L12.2724 9.59254C12.2406 8.9511 12.6251 8.88679 12.6251 8.88679C12.483 8.81854 12.3589 8.79604 12.2604 8.79754Z" fill="#F7E4CD"/>
<path d="M8.55266 11.1327L5.41016 13.2488L5.76284 14.2431L6.59684 17.8341L6.62872 19.7263L7.07759 19.8865C7.71884 18.3471 6.46859 13.377 6.46859 13.377L9.48247 12.0304L8.55266 11.1327ZM9.79278 14.7792L9.70691 14.9803C9.70691 14.9803 9.64297 15.5575 9.64297 15.7178C9.64297 15.8783 9.70691 17.2253 9.70691 17.2253H10.2201V15.301L9.79259 14.779L9.79278 14.7792ZM9.80328 17.5137L8.36047 17.5778L8.77709 17.8665L9.80328 18.0268V17.5137ZM16.5049 10.6836L15.8959 11.3569L18.1405 13.0245L18.2046 12.255L16.5049 10.6838V10.6836ZM15.8637 16.9686L14.7417 17.1928L14.9018 18.091C15.3186 18.2833 16.0242 17.7702 16.0242 17.7702L15.8637 16.9686Z" fill="#49728B"/>
<path d="M9.48242 11.7404V12.0288L9.89005 12.4779L11.1725 13.055L11.2048 12.0933L10.3162 11.9965L9.48242 11.7404ZM18.8685 16.2937L17.8423 16.6145L16.8579 17.095L16.335 16.9994L15.9277 17.1594L16.2712 19.8534L17.5215 19.5003L19.8945 19.372L20.2472 18.2819L19.6059 16.39L18.8685 16.2937ZM14.7416 17.1912L12.8722 17.1916L9.86736 17.3517L9.92192 18.8272L10.2523 20.8147L10.916 23.5089L12.3909 23.8293L14.828 23.6369L14.8599 23.1558L14.5712 20.5585L14.7416 17.1912ZM14.9885 16.9351L14.283 15.1394L13.5454 14.0812C13.5454 14.0812 13.7057 13.6323 13.9303 13.6323H14.6677L15.3731 13.8888L15.3092 15.0753L14.9885 16.9351Z" fill="white"/>
<path d="M9.77197 12.1895L9.67578 12.3179L10.221 12.7025L11.1186 12.8946L11.0867 12.5103C10.7661 12.6065 9.77197 12.1895 9.77197 12.1895ZM14.2288 13.5681L13.4916 13.6641L14.7422 16.6143L14.9985 16.6465L15.1268 16.3259C15.1268 16.3259 14.2287 14.5941 14.2287 14.3376C14.2287 14.3376 14.3892 13.9529 14.6136 14.0489C14.8382 14.1453 15.3193 14.4018 15.3193 14.4018V13.7926L14.2288 13.5681ZM17.2753 16.9351L16.8585 17.0952L17.2112 18.8588C17.083 18.8268 16.2493 19.2119 16.2493 19.2119L16.345 19.7249L16.6982 19.5965L17.8202 19.4363L18.141 19.8531L19.1029 19.885L19.6802 19.7568L20.1932 18.9875L20.161 18.41L19.8085 17.3838C19.9047 18.1533 19.5197 18.8911 19.5197 18.8911C19.3594 18.8911 17.5639 18.7947 17.5639 18.7947C17.5639 18.6023 17.2753 16.9351 17.2753 16.9351ZM14.806 16.967L14.325 17.1595C14.325 17.1595 14.1649 20.4946 14.6458 22.8674C14.6458 22.8674 13.684 23.4766 12.2728 23.6367L14.9663 23.5405L15.2871 23.3481L14.9023 18.0893L14.806 16.967ZM15.6441 20.3976C15.5061 20.3984 15.301 20.4963 15.156 20.4867C15.1348 20.9931 15.2059 21.8054 15.2297 22.3368C15.5665 22.3371 15.7107 22.2633 15.9621 22.1785C15.9904 21.5532 15.7639 20.9744 15.6988 20.4035C15.681 20.3991 15.6625 20.3972 15.6441 20.3976Z" fill="#DCD9D8"/>
<path d="M15.8961 11.9653C15.4851 11.9845 14.9309 12.5085 14.6727 12.6004C14.7061 12.6964 14.7608 12.7723 14.7649 12.8948C14.9459 12.8502 15.1662 12.8807 15.3231 12.9578C15.1416 12.978 14.941 12.9769 14.821 13.0633C14.7769 13.1903 14.8313 13.3633 14.8019 13.5396C15.2324 13.6611 15.7242 13.726 16.2681 13.7419C16.3742 13.6045 16.4102 13.342 16.3975 13.0823C16.3825 12.7692 16.3002 12.1253 16.1069 12.0126C16.0431 11.9757 15.9722 11.962 15.8961 11.9653ZM11.6708 12.1056C11.2351 12.115 11.2804 12.8758 11.3016 13.3416C11.3194 13.735 11.5244 14.1512 11.6129 14.4128C11.6549 14.5347 11.6642 14.6644 11.7685 14.6884C11.953 14.7315 12.5616 14.4883 12.7351 14.3938C13.1016 14.194 13.3862 13.8763 13.6975 13.6632L13.7091 13.3523C13.522 13.2589 13.306 13.1925 13.0309 13.1805C13.2175 13.0868 13.4916 13.0881 13.6615 12.9765L13.6664 12.8524C13.3562 12.8286 13.2379 12.6904 13.0336 12.5785C12.6991 12.3958 12.1966 12.1965 11.7646 12.114C11.7337 12.1079 11.7023 12.1051 11.6708 12.1056ZM14.1889 12.7538C14.1061 12.7545 14.0072 12.7858 13.8946 12.8612C13.8732 13.0973 13.9283 13.1743 13.9757 13.4453C14.6307 13.6502 14.6367 12.7508 14.1889 12.7538Z" fill="#D33833"/>
<path d="M15.8544 11.7422L14.636 12.4476L14.5715 12.8001V13.5054L15.0204 13.6659C15.0204 13.6659 14.796 13.3453 14.9565 13.2491C15.1168 13.1529 15.2773 13.2491 15.3735 13.0888C15.4697 12.9283 15.3735 12.8321 15.4053 12.6397C15.4374 12.4474 15.5977 12.4155 15.758 12.3834C15.9183 12.3516 16.3674 12.2873 16.4315 12.4476L16.2392 11.8704L15.8544 11.7422ZM11.8164 11.9353C11.6576 11.9319 11.5128 11.9582 11.4067 12.0304C10.6528 12.5432 11.2605 13.7284 11.6298 14.4255C11.5986 14.0247 11.5649 13.6242 11.529 13.2238C11.4611 12.4776 11.7084 12.6079 12.3555 12.6079C12.4545 12.6079 12.9639 12.7256 13.0005 12.8003C13.1754 13.1574 12.708 13.0779 13.2018 13.3474C13.6188 13.5746 14.3553 13.2092 14.187 12.7039C14.0927 12.5914 13.6957 12.6688 13.5534 12.5951L12.8019 12.2055C12.5829 12.0917 12.1659 11.9426 11.8164 11.9353ZM11.6297 14.4253C11.6375 14.5251 11.6458 14.6246 11.6535 14.7242L11.7682 14.6899C11.73 14.6139 11.6822 14.5243 11.6298 14.4255L11.6297 14.4253Z" fill="#EF3D3A"/>
<path d="M12.6676 0.00119603C11.9944 0.013946 11.3361 0.125884 10.7875 0.327821C10.3797 0.477821 9.98464 0.612071 9.62651 0.822446C8.6682 1.38495 7.65082 1.76145 7.36676 2.89376C6.66664 3.20726 6.45551 4.10332 6.49076 5.1432C6.49751 5.34588 6.60757 5.5992 6.56951 5.78988C6.55001 5.88663 6.41876 6.01057 6.39251 6.07357C6.05689 6.87363 6.32595 7.92532 6.7137 8.49401C6.94807 8.83751 7.3362 9.14219 7.84807 9.22301C7.86851 9.52957 7.9422 9.79338 8.08376 10.1041C8.17339 10.3006 8.50807 10.6538 8.38489 10.9045C8.32301 11.0309 7.77795 11.3052 7.5972 11.4138C6.98689 11.7798 6.54457 12.0042 5.98114 12.4098C5.61664 12.6723 5.04645 12.706 5.13645 13.3113C5.19701 13.7196 5.42951 14.2259 5.56245 14.6354C5.70645 15.0773 5.9127 15.4821 6.0312 15.9408C6.29464 16.9628 6.34957 17.9258 6.4137 18.9241C6.43882 19.315 6.3972 19.7286 6.49864 19.9444C6.60326 20.1676 6.99101 20.2388 7.27114 20.3689C8.0802 20.743 8.93857 21.3143 9.99964 21.2009C10.2526 22.0514 10.4916 22.9572 10.7952 23.7021C11.8833 24.0933 13.6009 24.0321 14.7321 23.8962C15.076 23.8546 15.4388 23.6849 15.5196 23.3868C15.4954 23.203 15.4686 23.0211 15.4803 22.8038C15.8339 22.7307 16.3152 22.6703 16.393 22.2788C16.5021 21.7298 16.0463 20.9433 16.1984 20.3408C16.4031 20.2744 16.6218 20.2225 16.5891 19.8993C16.9341 19.7196 17.3434 19.6795 17.7803 19.6964C17.8366 19.8051 17.9166 19.9098 17.9886 19.9696C18.6006 20.0926 19.1933 20.1027 19.7015 19.9369C20.2765 19.7491 20.5508 18.5729 20.4194 18.0132C20.326 17.6166 20.1149 16.9669 19.9349 16.5829C19.4472 15.5404 17.9937 16.1948 17.2158 16.5814C17.5932 15.5886 17.9178 14.5593 18.2508 13.4455C18.3501 13.1118 18.5466 12.6387 18.5026 12.2929C18.4613 11.9678 17.9543 11.6262 17.6875 11.3686C17.5392 11.2257 16.8477 10.7007 16.8076 10.5042C16.7688 10.3141 17.0896 9.88338 17.1927 9.66794C17.3408 9.3597 17.4469 8.98244 17.5199 8.72576C18.0636 6.81401 18.1189 4.18751 17.3416 2.61588C17.0472 2.02057 16.2241 1.19838 15.7094 0.808946C14.9504 0.235196 13.789 -0.019804 12.6676 0.00119603ZM12.7572 0.533696C13.666 0.524884 14.6766 0.845508 15.361 1.23157C15.9329 1.55407 16.3548 2.17807 16.7571 2.69726C16.1929 2.52982 15.7128 2.81763 15.8003 3.28301C16.2726 2.85007 17.0794 3.27832 17.3181 3.75701C17.5463 4.21451 17.5448 4.8927 17.5799 5.57295C17.6648 7.22257 17.278 8.92451 16.4491 10.1168C16.2274 10.4352 16.0414 10.7832 15.7298 11.0024C14.9787 11.5298 13.837 12.0079 12.8594 11.68C11.5675 11.2465 10.9806 10.3857 10.27 9.40001C10.2893 9.94151 10.6701 10.3859 11.0463 10.8001C11.3734 11.161 11.7683 11.5688 12.1932 11.7372C11.8388 11.6539 11.2947 11.6279 11.1469 11.9461C10.3201 11.8911 9.5517 11.8066 9.16057 11.2461C8.85232 10.8044 8.5392 10.0531 8.39876 9.47276C8.37007 9.35351 8.32095 9.09963 8.33295 9.03457C8.37907 8.78276 8.82757 8.67213 8.65114 8.3202C8.32564 8.31719 8.25232 8.61644 7.95364 8.64607C7.1802 8.72257 6.63457 7.62101 6.66964 6.95632C6.69945 6.39119 7.1772 5.85045 7.83064 5.92188C8.29245 5.97251 8.44939 6.47651 8.53901 6.92501C8.80526 6.93926 9.18982 6.91357 9.31582 6.70582C9.29764 6.19901 9.06232 5.79251 9.07845 5.32676C9.10882 4.45151 9.58564 3.66176 9.21776 2.79963C9.61151 1.90638 10.7667 1.20138 11.6211 0.775196C11.9521 0.610196 12.3441 0.538196 12.7574 0.534071L12.7572 0.533696ZM10.4063 0.973571C10.4434 0.979571 10.4776 1.00845 10.5106 1.0437C10.5049 1.19576 10.3549 1.19257 10.2537 1.24132C10.0962 1.43501 9.86595 1.52557 9.67432 1.73782C9.47764 1.95532 9.2577 2.53957 8.99707 2.60407C8.86639 2.6367 8.71714 2.58157 8.60332 2.58907C8.30239 2.60801 8.09051 2.76213 7.78526 2.80638C8.17939 1.94482 9.40882 1.2477 10.3679 0.976008C10.3804 0.972359 10.3935 0.971527 10.4063 0.973571ZM12.0451 2.84351C11.5506 2.84407 10.9876 3.37263 10.8408 3.77595C10.7811 3.93982 10.687 4.26157 10.9234 4.31876C11.1884 3.72832 11.6226 3.15907 12.4966 3.36251C12.6644 3.0867 12.3644 2.88401 12.1428 2.85063C12.1104 2.8458 12.0778 2.84342 12.0451 2.84351ZM8.92207 2.93351C9.25995 3.79338 8.67964 4.81526 8.89582 5.75557C8.96201 6.04357 9.19095 6.49057 8.82533 6.50032C8.83489 5.68095 7.81845 5.16101 7.05251 5.6427C7.00132 5.02132 6.91264 4.14776 7.33639 3.68163C7.72732 3.25113 8.2662 2.9832 8.92207 2.93351ZM16.7551 4.35795C16.7271 4.82988 16.9024 5.11395 17.0241 5.4477C16.8138 5.58007 16.4044 5.49757 16.1673 5.60126C16.1504 6.29932 17.2473 5.95526 17.4141 5.56657C17.1648 5.20432 16.9939 4.7697 16.7963 4.35963L16.7551 4.35776V4.35795ZM12.9441 4.36863C12.8144 4.73688 13.1669 5.36201 13.3645 5.67813C13.1071 5.92807 12.6441 5.72051 12.2997 5.70438C11.971 6.22357 12.9415 6.32126 13.3579 6.19826C13.4719 6.1647 13.6692 5.99388 13.6964 5.91701C13.8121 5.59207 13.5788 5.44957 13.4588 5.33257C13.1926 5.07307 13.1314 4.71195 12.9441 4.36863ZM14.9221 4.70801C14.8969 4.70463 14.8668 4.71363 14.8306 4.73988C14.8071 5.60538 15.4503 6.32182 15.9299 6.89988C16.1643 7.18207 16.4466 7.34332 16.1866 7.78169C15.7673 7.94107 15.0888 8.39763 14.5058 8.29788C14.1965 8.24501 14.2662 7.89382 14.1552 7.70295C13.9418 7.98363 14.0254 8.40832 14.2452 8.5992C15.2725 8.70082 15.9717 8.26282 16.5987 7.85988C16.5738 7.70201 16.7884 7.41738 16.7288 7.18001C16.7082 7.09826 16.5222 6.97976 16.4093 6.8562C15.9494 6.35463 15.3192 5.6052 15.0687 5.01907C15.0462 4.96657 15.031 4.72245 14.9221 4.70801ZM7.61332 6.32707C7.37576 6.32332 7.16051 6.47988 7.1097 6.84888C7.21507 6.77988 7.30001 6.58357 7.48995 6.67695C7.32307 7.00263 7.3632 7.63695 7.59026 7.8432C7.58895 7.45657 7.52876 6.79563 7.85839 6.81569C8.0892 6.82957 8.13589 7.32382 8.33239 7.43595C8.46795 6.78382 8.00951 6.33307 7.61332 6.32707ZM16.9979 8.26957C16.4967 8.49832 16.0923 8.83151 15.4375 8.89432C15.4058 9.00251 15.4193 9.27551 15.4368 9.45494C16.2931 9.43713 16.7061 8.82513 16.9979 8.26957ZM12.8946 8.62976C13.1449 9.2997 14.2733 9.53594 15.2277 9.48832C15.2262 9.28994 15.2271 9.08894 15.1874 8.9262C14.4449 8.94794 13.4408 8.91682 12.8946 8.62976ZM12.7909 9.16563C12.3085 9.16619 12.7154 9.43451 12.7971 9.53951C12.9663 9.75701 13.1646 10.1281 13.4736 10.2923C13.9608 10.5511 14.9283 10.4425 15.2793 10.2998C15.409 10.2473 15.5136 10.1016 15.5618 9.97863C14.4668 10.0049 13.1688 10.114 12.7909 9.16563ZM16.4352 11.0088C16.8102 11.3108 17.0367 11.5951 17.3963 11.9181C17.5913 12.0931 17.9753 12.3027 18.0141 12.5856C18.0357 12.7435 17.9389 13.1303 17.9033 13.3079C17.7458 14.0868 17.3914 15.1158 17.0539 15.9319C16.9313 16.2286 16.8139 16.5994 16.6521 16.6636C16.2089 16.8391 15.6709 16.6465 15.2943 16.8811C15.8005 16.0026 16.3518 15.1728 16.8479 14.2838C16.7723 14.1076 16.5871 14.0324 16.5333 13.8361C16.8816 13.1781 16.7215 11.1355 15.8324 11.5668C15.9567 11.3841 16.2831 11.2334 16.4352 11.0088ZM8.61195 11.4738C8.69276 11.4419 9.28264 12.2093 9.36982 12.2716C9.84795 12.6109 10.4416 12.8791 10.9968 13.144C11.0307 13.3988 11.1093 13.729 11.2476 14.1708C11.4001 14.6586 11.5259 15.3471 12.1705 14.9954C12.1092 15.274 11.7511 15.4469 11.8499 15.7718C11.9118 15.9756 12.5886 16.2274 12.8031 16.3486C13.1989 16.5717 13.5601 16.6951 13.8642 16.8256C12.4823 16.8634 11.1846 16.9759 9.90757 17.1498C9.75457 16.9128 9.81626 16.5475 9.80014 16.1701C9.78251 15.7602 9.95295 14.8362 9.79189 14.7788C9.60982 14.7141 9.5757 15.0831 9.56914 15.1645C9.53501 15.5973 9.7752 16.5136 9.53839 17.0316C9.27926 16.9583 9.15157 16.7635 8.90876 16.675C8.81351 16.975 9.10601 16.9894 9.07601 17.1799C9.03626 17.4318 8.55907 17.2212 8.5617 17.5956C8.87239 17.6455 9.34901 17.4991 9.68107 17.6391C9.76789 18.6578 9.90739 19.6231 10.0602 20.7051C8.7387 20.6365 7.88332 19.9799 6.90926 19.5244C6.8487 17.3701 6.50539 15.1351 5.65526 13.3107C6.54701 12.6226 7.54489 11.8947 8.61214 11.4739L8.61195 11.4738ZM15.9398 11.9661C15.9991 11.9689 16.0548 11.9838 16.1056 12.0134C16.2991 12.1263 16.3814 12.7701 16.3964 13.0833C16.4089 13.3429 16.3728 13.6051 16.267 13.7427C15.7229 13.7268 15.2313 13.6621 14.8008 13.5406C14.8302 13.3643 14.7754 13.1909 14.8195 13.0638C14.9393 12.9775 15.1403 12.979 15.3216 12.9588C15.1649 12.8815 14.9448 12.8509 14.7638 12.8956C14.7595 12.7729 14.7046 12.6972 14.6714 12.6012C14.9389 12.5058 15.5253 11.9457 15.9398 11.9661ZM14.9648 11.9899C14.7364 12.1388 14.542 12.325 14.3228 12.484C13.8366 12.5082 13.5713 12.4504 13.2141 12.1713C13.2198 12.1488 13.2558 12.1589 13.2573 12.1313C13.7776 12.3633 14.4394 12.0368 14.9648 11.9899ZM9.83726 11.9991C10.1086 12.1876 10.6336 12.1411 11.0331 12.2112C11.0538 12.3393 10.9503 12.5074 10.9521 12.6858C10.6159 12.6651 9.55957 12.2808 9.83726 11.9991ZM11.6695 12.1066C11.6986 12.1058 11.7297 12.1086 11.7633 12.115C12.1953 12.1975 12.6978 12.3966 13.0323 12.5794C13.2366 12.6912 13.3549 12.8292 13.6651 12.8532C13.6638 12.8944 13.6619 12.9357 13.6604 12.9773C13.4905 13.0889 13.2162 13.0876 13.0298 13.1813C13.3047 13.1933 13.5211 13.2595 13.7082 13.3529L13.696 13.6639C13.3846 13.8771 13.1001 14.1946 12.7336 14.3944C12.5601 14.4889 11.9517 14.7323 11.7674 14.6892C11.6629 14.665 11.6536 14.5354 11.6118 14.4136C11.5231 14.152 11.3185 13.7359 11.3005 13.3426C11.2793 12.8766 11.2338 12.1154 11.6695 12.1066ZM14.1621 12.7559C14.1878 12.7538 14.2122 12.7546 14.2353 12.7579C14.6339 12.8166 14.605 13.6433 13.9743 13.4461C13.9268 13.1753 13.8719 13.0981 13.8931 12.862C13.9947 12.7943 14.0847 12.7621 14.1621 12.7559ZM14.5251 13.696C14.7535 13.7204 14.9343 14.0354 15.2601 14.0148C15.2078 14.8645 15.2352 15.7173 14.998 16.4958C14.5561 15.6854 14.296 14.707 13.7239 14.0176C13.7843 13.9534 13.8383 13.8824 13.8976 13.8168C14.1567 13.9251 14.3258 13.6746 14.5251 13.696ZM15.8391 13.9664C16.1538 13.9639 16.4114 14.1696 16.5529 14.3971C16.1097 15.1564 15.6856 15.9361 15.1598 16.6058C15.3801 15.9574 15.4746 14.8724 15.508 14.0451C15.6114 13.9952 15.7244 13.9683 15.8391 13.9664ZM13.4448 14.2557C13.9698 14.9221 14.2893 15.7791 14.641 16.6064C13.81 16.3559 12.961 15.9494 12.2328 15.5373C12.3756 14.9178 12.9359 14.5968 13.4448 14.2557ZM18.9781 16.4547C19.2063 16.4603 19.433 16.6456 19.5321 16.7958C19.7114 17.0665 19.8788 17.8636 19.9728 18.2868C20.1128 18.9166 19.798 19.5297 19.2972 19.6512C18.9327 19.7397 18.3736 19.7631 18.1349 19.6478C18.427 19.4883 18.866 19.4873 19.204 19.3778C18.7197 19.1693 18.0031 19.3658 17.4207 19.3294C17.3504 18.6104 17.2973 17.8308 17.1269 17.2632C17.4668 16.9019 18.2881 16.8151 18.7544 16.5168C18.8209 16.4738 18.8989 16.4522 18.9781 16.4547ZM18.9385 17.1256C18.3417 17.1432 17.8754 17.3013 17.6091 17.6764C18.0934 17.7074 18.4422 17.2249 18.9385 17.1256ZM16.5873 17.2728C16.6294 17.2746 16.6711 17.2793 16.711 17.2883C17.0283 17.8339 17.0965 18.7413 17.086 19.3998C16.8882 19.438 16.7598 19.5513 16.5198 19.5438C16.4584 18.7936 16.2843 18.0048 16.2126 17.29C16.327 17.2878 16.4603 17.2675 16.5873 17.2728ZM12.9117 17.2808C13.5379 17.2707 14.1454 17.3074 14.6714 17.4169C14.7998 18.2519 14.752 19.0754 14.8458 19.8938C14.9699 20.9828 14.8769 22.2252 15.0895 23.2456C13.9321 23.6043 12.3539 23.5696 11.0444 23.1721C10.4543 21.364 10.1326 19.6478 9.91057 17.6061C10.7706 17.4453 11.8675 17.2977 12.9117 17.2808ZM15.6912 17.3528C15.898 18.1004 15.8856 19.0516 15.9873 19.8966C15.6745 19.9653 15.4458 19.9988 15.1092 20.0494C15.0423 19.1716 14.9911 18.3066 15.0031 17.4299C15.2416 17.35 15.4519 17.3549 15.6912 17.3528ZM18.4073 17.7833C18.1711 17.7863 17.9584 17.8377 17.8673 17.9768C18.2779 18.0106 18.7527 17.9449 19.1573 17.9022C18.9728 17.8384 18.6751 17.7798 18.4073 17.7833ZM18.3396 18.3908C18.1281 18.3934 17.9416 18.4336 17.8458 18.5365C18.2778 18.5727 18.8429 18.5817 19.2976 18.5719C19.1133 18.4861 18.6921 18.3863 18.3396 18.3908ZM15.58 20.4038C15.6243 20.3969 15.6644 20.3954 15.6976 20.4042C15.7628 20.9751 15.9891 21.5538 15.9608 22.1791C15.7096 22.2638 15.5652 22.3381 15.2283 22.3375C15.2046 21.8061 15.1334 20.9939 15.1548 20.4873C15.2789 20.4955 15.4474 20.4246 15.58 20.4038Z" fill="#231F20"/>
<path d="M15.8406 13.9668C15.7257 13.9687 15.6127 13.9956 15.5092 14.0456C15.4759 14.8728 15.3818 15.9579 15.1613 16.6061C15.6872 15.9365 16.1111 15.1567 16.5544 14.3975C16.4126 14.1701 16.1552 13.9644 15.8406 13.9668ZM13.4462 14.2563C12.9373 14.5976 12.3774 14.9186 12.2344 15.5381C12.9626 15.9502 13.8116 16.3565 14.6426 16.607C14.2909 15.7801 13.9714 14.9229 13.4462 14.2563Z" fill="#81B0C4"/>
<path d="M14.9655 11.9902C14.7372 12.1393 14.5427 12.3253 14.3235 12.4845C13.8373 12.5085 13.572 12.4507 13.2148 12.1715C13.2207 12.149 13.2567 12.1592 13.258 12.1316C13.7783 12.3635 14.44 12.0371 14.9655 11.9902Z" fill="#F0D6B7"/>
<path d="M14.8371 14.3873C14.8371 14.4341 14.8185 14.4789 14.7854 14.512C14.7523 14.545 14.7075 14.5636 14.6607 14.5636C14.614 14.5636 14.5691 14.545 14.536 14.512C14.503 14.4789 14.4844 14.4341 14.4844 14.3873C14.4844 14.3405 14.503 14.2957 14.536 14.2626C14.5691 14.2295 14.614 14.2109 14.6607 14.2109C14.7075 14.2109 14.7523 14.2295 14.7854 14.2626C14.8185 14.2957 14.8371 14.3405 14.8371 14.3873ZM15.0135 15.205C15.0135 15.2518 14.9949 15.2966 14.9618 15.3297C14.9287 15.3628 14.8839 15.3814 14.8371 15.3814C14.7903 15.3814 14.7454 15.3628 14.7123 15.3297C14.6792 15.2966 14.6606 15.2518 14.6606 15.205C14.6606 15.1582 14.6792 15.1133 14.7123 15.0802C14.7454 15.0471 14.7903 15.0285 14.8371 15.0285C14.8839 15.0285 14.9287 15.0471 14.9618 15.0802C14.9949 15.1133 15.0135 15.1582 15.0135 15.205Z" fill="#1D1919"/>
</g>
</g>
<defs>
<clipPath id="clip0_2179_561">
<rect width="24" height="24" fill="white"/>
</clipPath>
<clipPath id="clip1_2179_561">
<rect width="24" height="24" fill="white"/>
</clipPath>
</defs>
</svg>
