<svg width="24" height="24" viewBox="0 0 24 24" fill="none" xmlns="http://www.w3.org/2000/svg">
<g clip-path="url(#clip0_2173_1019)">
<g clip-path="url(#clip1_2173_1019)">
<path d="M23.2735 11.8165C23.2735 10.3743 22.1808 9.16061 20.7138 8.8143L23.9994 0.0214844H7.71685L11.0099 8.84205C9.58904 9.2163 8.54166 10.4088 8.54166 11.8239C8.54166 12.8637 9.11504 13.7859 9.98598 14.3544C9.64248 14.7982 9.24479 15.2075 8.79423 15.5956C7.94616 16.3171 7.00566 16.8715 5.98979 17.2392C5.07291 16.6775 4.67579 15.6858 5.03466 14.798C6.43285 14.4099 7.44966 13.2241 7.44966 11.8304C7.44966 10.118 5.91366 8.73067 4.03341 8.73067C2.14604 8.73067 0.610977 10.1245 0.610977 11.8375C0.610977 12.6837 0.99254 13.46 1.60416 14.0144C1.55054 14.1119 1.49729 14.2085 1.44366 14.3125C0.93179 15.2699 0.350915 16.3516 0.128915 17.5653C-0.314148 19.9917 0.411665 21.9408 2.16141 23.0431C3.14729 23.6605 4.23273 23.9725 5.40179 23.9725C7.41066 23.9725 9.45123 23.057 11.4222 22.1692C12.8285 21.5386 14.2801 20.8794 15.709 20.5608C16.2365 20.4429 16.7864 20.3733 17.3673 20.2972C18.5435 20.1447 19.7587 19.9852 20.8514 19.4095C22.1273 18.7372 22.9983 17.6135 23.2509 16.3239C23.4412 15.332 23.2509 14.3337 22.7615 13.46C23.0958 12.9772 23.2746 12.4038 23.2735 11.8165ZM21.7838 11.8165C21.7838 12.7803 20.9202 13.564 19.8582 13.564C18.7962 13.564 17.9326 12.7803 17.9326 11.8165C17.9326 11.5044 18.0243 11.2064 18.1846 10.9499C18.2455 10.8524 18.3224 10.7559 18.3983 10.6724C18.4788 10.5866 18.5686 10.51 18.6659 10.4439L18.674 10.4365C18.7347 10.3949 18.8035 10.3531 18.8724 10.312C18.8724 10.312 18.8799 10.312 18.8799 10.3047C18.9104 10.2909 18.9412 10.2702 18.9721 10.2564C18.9794 10.2564 18.9867 10.249 18.9946 10.249C19.0255 10.2359 19.0636 10.222 19.1015 10.208C19.1376 10.1954 19.1733 10.1815 19.2085 10.1664C19.216 10.1664 19.2239 10.1589 19.2312 10.1589C19.262 10.1525 19.2927 10.1384 19.3229 10.1319C19.331 10.1319 19.3464 10.1245 19.3537 10.1245C19.3917 10.118 19.4225 10.1107 19.4605 10.1039H19.4686L19.583 10.0827C19.5909 10.0827 19.6055 10.0827 19.6135 10.0762C19.6443 10.0762 19.6745 10.0689 19.7052 10.0689H19.7433C19.7814 10.0689 19.8202 10.0623 19.8655 10.0623H19.9651C19.9951 10.0623 20.0187 10.0623 20.0487 10.0689H20.0641C20.1256 10.0764 20.1863 10.0827 20.2479 10.0968C21.1188 10.2629 21.7838 10.9705 21.7838 11.8165ZM9.84816 1.40805H21.8673L19.109 8.79311C18.9946 8.8143 18.8797 8.84861 18.7655 8.88311L15.8622 3.50936L12.9507 8.84842C12.8358 8.81411 12.7135 8.79292 12.5919 8.7723L9.84816 1.40805ZM15.3114 11.2128C15.1664 10.5609 14.7995 9.97867 14.2801 9.54874L15.8622 6.65055L17.4588 9.61099C16.985 10.0409 16.6413 10.5888 16.5037 11.2128H15.3114ZM11.4837 10.1178C11.5218 10.1103 11.5525 10.1039 11.5906 10.0966H11.6133C11.644 10.09 11.675 10.09 11.705 10.0825H11.7357C11.7665 10.0825 11.7892 10.076 11.8199 10.076H12.118C12.148 10.076 12.1715 10.0825 12.1942 10.0825C12.2095 10.0825 12.2169 10.0825 12.2322 10.09C12.263 10.0966 12.2857 10.0966 12.3166 10.1039C12.3237 10.1039 12.3318 10.1039 12.3472 10.1105C12.3854 10.1178 12.4235 10.1244 12.454 10.1317H12.4615C12.4923 10.1382 12.523 10.1448 12.553 10.1589C12.5611 10.1589 12.5684 10.1662 12.5838 10.1662C12.6065 10.1727 12.6372 10.18 12.6599 10.1939C12.668 10.1939 12.6753 10.2005 12.6834 10.2005C12.7134 10.2145 12.7443 10.2219 12.775 10.2357H12.7824C12.8204 10.2489 12.8512 10.2627 12.8819 10.2841H12.8894C12.92 10.298 12.9507 10.3184 12.9815 10.3323C12.989 10.3323 12.989 10.3398 12.9961 10.3398C13.0269 10.3529 13.0497 10.3741 13.0805 10.388L13.0885 10.3945C13.18 10.457 13.2642 10.5265 13.3477 10.5961L13.3557 10.6027C13.432 10.6788 13.5082 10.7622 13.5697 10.8524C13.7682 11.1299 13.8832 11.456 13.8832 11.8096C13.8832 12.7735 13.0195 13.5565 11.9575 13.5565C10.8955 13.5565 10.0319 12.7735 10.0319 11.8096C10.024 10.9981 10.643 10.3119 11.4837 10.1178ZM3.9646 10.0687C5.02679 10.0687 5.89023 10.8524 5.89023 11.8162C5.89023 12.7801 5.02679 13.5637 3.9646 13.5637C2.9026 13.5637 2.03898 12.7801 2.03898 11.8162C2.03898 10.8524 2.9026 10.0687 3.9646 10.0687ZM21.7377 16.0812C21.5699 16.9681 20.9656 17.7453 20.0795 18.2095C19.2466 18.6468 18.2227 18.7852 17.1453 18.9237C16.5573 18.9999 15.9384 19.0833 15.3421 19.2151C13.7529 19.5689 12.2249 20.2625 10.7425 20.9275C8.84766 21.7809 7.0591 22.585 5.40179 22.585C4.53816 22.585 3.76623 22.3632 3.0331 21.8988C1.35216 20.8449 1.4356 18.8688 1.63491 17.7869C1.81791 16.774 2.32998 15.8242 2.81916 14.9159C2.84916 14.8602 2.8726 14.8119 2.9026 14.7562C3.07116 14.8119 3.24685 14.8537 3.43004 14.8814C3.13998 16.3514 3.9646 17.8698 5.56941 18.619L5.86004 18.7574L6.17298 18.6534C7.51041 18.2234 8.7481 17.5233 9.84085 16.5871C10.4598 16.0599 10.9872 15.4915 11.4303 14.8741C11.606 14.902 11.7819 14.9094 11.9575 14.9094C13.547 14.9094 14.8837 13.9175 15.266 12.586H16.5492C16.9315 13.9242 18.2688 14.9092 19.8582 14.9092C20.4925 14.9092 21.0807 14.7498 21.5845 14.4794C21.7839 14.9994 21.8446 15.5399 21.7377 16.0812Z" fill="#99425B"/>
</g>
</g>
<defs>
<clipPath id="clip0_2173_1019">
<rect width="24" height="24" fill="white"/>
</clipPath>
<clipPath id="clip1_2173_1019">
<rect width="24" height="24" fill="white"/>
</clipPath>
</defs>
</svg>
