<svg width="24" height="24" viewBox="0 0 24 24" fill="none" xmlns="http://www.w3.org/2000/svg">
<g clip-path="url(#clip0_2173_1042)">
<g clip-path="url(#clip1_2173_1042)">
<path d="M21.8191 2.57129H11.5C11.5 3.80673 11.9908 4.99156 12.8644 5.86515C13.7379 6.73873 14.9228 7.22951 16.1582 7.22951H18.0591V9.06487C18.0608 11.6352 20.144 13.7185 22.7143 13.7201V3.46647C22.7143 2.97222 22.3136 2.57129 21.8191 2.57129Z" fill="#2684FF"/>
<path d="M16.7136 7.71289H6.39453C6.39613 10.2832 8.47932 12.3665 11.0497 12.3682H12.9506V14.2094C12.9539 16.7797 15.0385 18.8616 17.6089 18.8616V8.60824C17.6089 8.11382 17.208 7.71289 16.7136 7.71289Z" fill="url(#paint0_linear_2173_1042)"/>
<path d="M11.6043 12.8516H1.28516C1.28516 15.4242 3.37079 17.5098 5.94338 17.5098H7.85024V19.3451C7.85192 21.913 9.93151 23.9954 12.4996 24.0003V13.7468C12.4996 13.2524 12.0987 12.8516 11.6043 12.8516Z" fill="url(#paint1_linear_2173_1042)"/>
</g>
</g>
<defs>
<linearGradient id="paint0_linear_2173_1042" x1="2813.3" y1="12.8457" x2="1700.08" y2="1313.81" gradientUnits="userSpaceOnUse">
<stop offset="0.18" stop-color="#0052CC"/>
<stop offset="1" stop-color="#2684FF"/>
</linearGradient>
<linearGradient id="paint1_linear_2173_1042" x1="2883.63" y1="27.3572" x2="1595.92" y2="1446.3" gradientUnits="userSpaceOnUse">
<stop offset="0.18" stop-color="#0052CC"/>
<stop offset="1" stop-color="#2684FF"/>
</linearGradient>
<clipPath id="clip0_2173_1042">
<rect width="24" height="24" fill="white"/>
</clipPath>
<clipPath id="clip1_2173_1042">
<rect width="24" height="24" fill="white"/>
</clipPath>
</defs>
</svg>
