<svg width="24" height="24" viewBox="0 0 24 24" fill="none" xmlns="http://www.w3.org/2000/svg">
<g clip-path="url(#clip0_2173_1244)">
<path fill-rule="evenodd" clip-rule="evenodd" d="M22.9314 10.9943C22.8189 10.7508 22.7646 10.4626 22.7529 10.1913C22.7241 9.52358 22.7486 8.85346 22.7184 8.18577C22.6914 7.58783 22.4781 7.04896 21.9039 6.74071C21.3984 6.46939 20.8125 6.44239 20.25 6.43602V7.50308C20.4375 7.50946 20.3914 7.51527 20.4371 7.51771C21.1926 7.55483 21.4457 7.79446 21.4552 8.5439C21.4624 9.10115 21.4575 9.65877 21.4665 10.2158C21.4776 10.8918 21.5784 11.537 22.1966 11.9637C22.2071 11.971 22.2062 11.9978 22.2122 12.029C21.8976 12.2525 21.6486 12.5403 21.5762 12.9331C21.5183 13.2522 21.4844 13.5751 21.4749 13.8993C21.4569 14.4839 21.4755 15.0698 21.4588 15.6545C21.4457 16.1123 21.2288 16.3272 20.7831 16.4292C20.6152 16.4678 20.4375 16.4815 20.25 16.5053V17.5698C20.625 17.5473 20.8157 17.5325 21.0726 17.5047C22.0393 17.4001 22.5836 16.897 22.6952 15.9591C22.7301 15.6651 22.7261 15.3655 22.7327 15.0685C22.7451 14.5118 22.7387 13.9525 22.7886 13.3992C22.8394 12.8346 23.25 12.5226 23.8125 12.5538V11.438C23.4375 11.5051 23.0919 11.3429 22.9314 10.9943ZM5.30888 13.2693C5.30869 11.1038 5.25 8.9384 5.25 6.77314V6.43246C4.6875 6.43246 4.08262 6.42702 3.48919 6.43508C3.24825 6.43827 3.03581 6.45889 2.79694 6.49152C1.8825 6.61602 1.44169 7.04521 1.27969 7.95627C1.23281 8.21914 1.24219 8.49233 1.23825 8.76121C1.23094 9.27233 1.24556 9.78364 1.23731 10.2946C1.227 10.9381 0.923813 11.4368 0.267563 11.4747C0.244313 11.476 0.375 11.5028 0.1875 11.519V12.5136C0.9375 12.6314 1.17619 12.9342 1.22606 13.631C1.23394 13.742 1.236 13.8539 1.23713 13.9655C1.2435 14.588 1.23637 15.2114 1.2645 15.8328C1.29094 16.4127 1.41975 16.931 1.96781 17.2353C2.47969 17.5195 3.1875 17.5426 3.5625 17.5574V16.4954C3.5625 16.4864 3.52312 16.4781 3.48656 16.4759C2.673 16.4262 2.48962 16.2053 2.48475 15.3912C2.48156 14.8521 2.50463 14.3131 2.496 13.774C2.48513 13.0968 2.38613 12.4544 1.773 12.0258C1.76363 12.0192 1.77281 11.9915 1.76981 11.954C2.18212 11.6933 2.40131 11.2947 2.46094 10.8113C2.49394 10.5447 2.505 10.2743 2.50969 10.0053C2.51906 9.44783 2.50912 8.88983 2.52431 8.33277C2.535 7.94127 2.78494 7.65589 3.10388 7.59177C3.40613 7.53083 3.5625 7.53271 4.125 7.50439V7.88989C4.125 9.82302 4.05619 11.756 4.06631 13.6891C4.06988 14.3511 4.14319 15.0038 4.85287 15.2898C5.23875 15.4452 5.65219 15.493 6.09544 15.5976C6.1695 15.1641 6.19369 14.8045 6.25425 14.4486C5.43731 14.2143 5.30888 14.0928 5.30888 13.2693ZM10.3102 9.53933C8.934 8.88121 7.26375 9.45665 6.62287 10.837C6.14025 11.8765 6.1575 12.9464 6.58237 14.0005C6.81281 14.572 7.22925 14.9999 7.79606 15.2515C8.90306 15.743 10.0234 15.6235 11.1396 15.2785C11.1997 15.2598 11.2766 15.1439 11.2693 15.0824C11.2312 14.771 11.1681 14.4625 11.1116 14.141C10.8459 14.2079 10.6239 14.2763 10.3971 14.3189C9.79762 14.4316 9.19687 14.4314 8.61356 14.1995C8.03756 13.9707 7.65075 13.3126 7.74694 12.7501H11.6604C11.7083 12.1876 11.6893 11.4141 11.4499 10.7746C11.2361 10.2029 10.8671 9.80577 10.3102 9.53933ZM10.302 11.8128H7.73025C7.73156 11.0628 8.34225 10.3896 9.14344 10.405C9.84713 10.4185 10.3339 11.0628 10.302 11.8128ZM20.8223 14.1151C20.9145 13.1675 20.6284 12.6342 19.7846 12.2225C19.4854 12.0764 19.1677 11.9682 18.8629 11.8328C18.6347 11.7316 18.405 11.629 18.1916 11.5008C17.9839 11.3761 17.8969 11.1691 17.9276 10.9266C17.9578 10.6872 18.1117 10.5293 18.3341 10.4843C18.6036 10.4296 18.8859 10.3827 19.1569 10.4048C19.5397 10.4361 19.9174 10.5342 20.3124 10.6064L20.5622 9.51552C20.0276 9.43414 19.5293 9.32896 19.0256 9.28921C18.4656 9.24514 17.9201 9.33814 17.4075 9.60233C16.3243 10.1605 16.3044 11.8741 17.2999 12.4366C17.5972 12.6046 17.9154 12.7358 18.2248 12.8828C18.5505 13.0379 18.888 13.1727 19.1996 13.3523C19.4363 13.4886 19.5208 13.7266 19.4574 14.0039C19.3988 14.2617 19.2036 14.3766 18.9743 14.3986C18.6255 14.4318 18.2677 14.4636 17.9226 14.4226C17.5069 14.3731 17.1 14.2469 16.6742 14.1505L16.4571 15.2361C17.457 15.6115 18.4464 15.673 19.4454 15.4516C20.2815 15.2663 20.7577 14.7773 20.8223 14.1151ZM15.4944 12.3428C15.1271 12.148 14.7321 12.0059 14.3529 11.8323C14.1176 11.7245 13.8684 11.6309 13.6611 11.4815C13.2622 11.194 13.3365 10.643 13.8009 10.4956C14.0674 10.4108 14.3687 10.3846 14.6486 10.4056C15.03 10.4343 15.4063 10.5329 15.804 10.6049L16.0399 9.56502C15.8379 9.51008 15.6551 9.45027 15.4678 9.41089C14.7233 9.25414 13.9748 9.19339 13.2414 9.45121C12.6114 9.67283 12.1744 10.0872 12.0879 10.7843C11.9912 11.5628 12.2494 12.1775 12.9684 12.5472C13.2563 12.6953 13.5647 12.8028 13.8585 12.94C14.1518 13.0769 14.4512 13.2076 14.7236 13.3793C14.9319 13.5106 15.0141 13.7328 14.9554 13.9896C14.8971 14.2443 14.7114 14.3725 14.4804 14.3963C14.1317 14.4321 13.7737 14.4653 13.4284 14.425C13.011 14.3763 12.6028 14.2497 12.1695 14.1522C12.1056 14.4546 12.0306 14.7593 11.9839 15.0681C11.9738 15.1353 12.0486 15.2643 12.1116 15.2862C13.1211 15.6361 14.1486 15.6863 15.1753 15.3839C15.7884 15.2035 16.2173 14.8118 16.3037 14.1421C16.4018 13.3818 16.2204 12.7276 15.4944 12.3428Z" fill="#2A4D80"/>
</g>
<defs>
<clipPath id="clip0_2173_1244">
<rect width="24" height="24" fill="white"/>
</clipPath>
</defs>
</svg>
