<svg width="24" height="24" viewBox="0 0 24 24" fill="none" xmlns="http://www.w3.org/2000/svg">
<g clip-path="url(#clip0_2179_240)">
<path d="M12.2074 23.4149C18.3971 23.4149 23.4149 18.3971 23.4149 12.2074C23.4149 6.01774 18.3971 1 12.2074 1C6.01774 1 1 6.01774 1 12.2074C1 18.3971 6.01774 23.4149 12.2074 23.4149Z" fill="#0535C1"/>
<path d="M19.5951 8.85391H18.9247C18.5911 7.90084 17.618 7.32799 16.6228 7.49873C15.6276 7.66947 14.9012 8.53393 14.9043 9.54365C14.9046 10.6867 15.8311 11.6132 16.9741 11.6135H19.5951C20.3393 11.5887 20.9298 10.9783 20.9298 10.2337C20.9298 9.4891 20.3393 8.87869 19.5951 8.85391Z" fill="#EAEAEA"/>
<path d="M20.9741 10.2504V10.2336C20.9738 9.4715 20.3561 8.85382 19.594 8.85352H18.9043V8.88814H19.594C20.3491 8.8881 20.9641 9.49488 20.9741 10.2498V10.2504Z" fill="white" fill-opacity="0.2"/>
<path d="M16.9731 7.47318L18.0919 11.0066C18.4657 10.6311 19.0424 10.1135 19.0424 9.54244C19.0422 8.39946 18.1156 7.47292 16.9727 7.47266L16.9731 7.47318Z" fill="#E1E1E1"/>
<path d="M16.9722 11.6123C18.1153 11.6123 19.042 10.6856 19.042 9.54249C19.042 8.39935 18.1153 7.47266 16.9722 7.47266C15.829 7.47266 14.9023 8.39935 14.9023 9.54249C14.9023 10.6856 15.829 11.6123 16.9722 11.6123Z" fill="#EEEEEE"/>
<path d="M16.9721 7.50871C18.1084 7.50924 19.0319 8.42545 19.0414 9.56173V9.54492C19.0419 8.40194 18.1156 7.47505 16.9727 7.47461C15.8297 7.47417 14.9028 8.40041 14.9023 9.54339V9.5602C14.9127 8.42435 15.8362 7.50893 16.9721 7.50871Z" fill="white" fill-opacity="0.2"/>
<path d="M19.5931 11.5784H16.9716C15.8354 11.5778 14.9118 10.6616 14.9023 9.52539V9.5422C14.9029 10.685 15.8293 11.6112 16.9721 11.6115H19.5932C20.355 11.6112 20.9727 10.9938 20.9732 10.232V10.2151C20.9637 10.9706 20.3487 11.5781 19.5931 11.5784Z" fill="#212121" fill-opacity="0.1"/>
<path d="M9.15039 5.71094H15.0088V10.8052H9.15039V5.71094Z" fill="#FFF176"/>
<path d="M8.51367 13.4805H15.5183V20.4851H8.51367V13.4805Z" fill="white"/>
<path d="M16.283 10.2965H17.3019V12.3342H7.11328V10.2965H8.13215V6.22103L12.2076 3.67383L16.283 6.22098V10.2965ZM14.2453 10.2965V7.35039L12.2076 6.07686L10.1699 7.35039V10.2965H14.2453Z" fill="#F4481E"/>
<path d="M6.66016 21.948L8.3861 10.2969H16.0276L17.7535 21.948C16.0641 22.9121 14.152 23.4177 12.2068 23.4147C10.2617 23.4177 8.34958 22.9121 6.66016 21.948ZM14.4886 13.8124L9.69483 15.3698L9.11209 19.3025L15.0174 17.3835L14.4886 13.8124Z" fill="#F4481E"/>
<path d="M9.151 11.4442H8.37716C7.99059 10.3464 6.86875 9.68736 5.72165 9.88424C4.57455 10.0812 3.73666 11.0766 3.73828 12.2404C3.73916 13.559 4.80798 14.6276 6.12652 14.6281H9.151C10.0145 14.6062 10.7032 13.9 10.7032 13.0362C10.7032 12.1723 10.0145 11.466 9.151 11.4442Z" fill="#FAFAFA"/>
<path d="M10.7437 13.0542V13.0354C10.7437 12.1566 10.0305 11.4434 9.15172 11.4434H8.35547V11.4831H9.15172C10.0227 11.4833 10.732 12.1833 10.7437 13.0542Z" fill="white" fill-opacity="0.2"/>
<path d="M6.12553 9.85209L7.41591 13.9285C7.8474 13.4956 8.51271 12.8985 8.51271 12.2393C8.51183 10.9209 7.44336 9.85244 6.125 9.85156L6.12553 9.85209Z" fill="#E1E1E1"/>
<path d="M6.12647 14.6279C7.44543 14.6279 8.51466 13.5587 8.51466 12.2398C8.51466 10.9208 7.44543 9.85156 6.12647 9.85156C4.80751 9.85156 3.73828 10.9208 3.73828 12.2398C3.73828 13.5587 4.80751 14.6279 6.12647 14.6279Z" fill="white"/>
<path d="M6.12652 9.89033C7.43752 9.89112 8.50302 10.9482 8.51423 12.2592V12.2403C8.51433 11.9267 8.45266 11.6162 8.33275 11.3264C8.21283 11.0366 8.03702 10.7733 7.81535 10.5515C7.59367 10.3297 7.33048 10.1537 7.0408 10.0336C6.75112 9.91353 6.44061 9.85166 6.12702 9.85156C5.81343 9.85146 5.50288 9.91313 5.21312 10.033C4.92336 10.153 4.66006 10.3288 4.43824 10.5504C3.99027 10.9981 3.73848 11.6054 3.73828 12.2388V12.2576C3.75006 10.9469 4.81577 9.89059 6.12652 9.89033Z" fill="white" fill-opacity="0.2"/>
<path d="M9.15099 14.5876H6.12599C4.81498 14.5868 3.74949 13.5297 3.73828 12.2188V12.2376C3.73885 13.5563 4.8078 14.6252 6.12652 14.6258H9.15099C10.0298 14.6258 10.7429 13.9126 10.7429 13.0338V13.0145C10.7323 13.8862 10.0228 14.5874 9.15099 14.5876Z" fill="#212121" fill-opacity="0.1"/>
<path d="M12.2074 1.11715C18.3777 1.11715 23.3818 6.10293 23.4139 12.266L23.4149 12.2074C23.4149 6.01787 18.397 1 12.2074 1C6.01787 1 1 6.01787 1 12.2074C1 12.2268 1.00153 12.2457 1.00153 12.266C1.0331 6.10346 6.03621 1.11715 12.2074 1.11715Z" fill="white" fill-opacity="0.2"/>
<path d="M23.4139 12.1484C23.3813 18.3115 18.3777 23.2973 12.2074 23.2973C6.03674 23.2973 1.0331 18.311 1.00153 12.1484C1.00153 12.1688 1 12.1877 1 12.207C1 18.3966 6.01787 23.4145 12.2074 23.4145C18.397 23.4145 23.4149 18.3966 23.4149 12.207L23.4139 12.1484Z" fill="#263238" fill-opacity="0.2"/>
</g>
<defs>
<clipPath id="clip0_2179_240">
<rect width="24" height="24" fill="white"/>
</clipPath>
</defs>
</svg>
