<svg width="158" height="49" viewBox="0 0 158 49" fill="none" xmlns="http://www.w3.org/2000/svg">
<path d="M6.408 38H0.324L9.828 11.36H15.516L24.984 38H18.792L16.92 32.384H8.316L6.408 38ZM11.916 21.8L10.008 27.488H15.264L13.356 21.8C13.068 20.9 12.744 19.856 12.636 19.208C12.528 19.82 12.24 20.828 11.916 21.8ZM42.8805 38H23.3325V32.528L35.2125 16.76H23.6925V11.36H42.5205V16.58L30.4605 32.6H42.8805V38ZM49.4963 11.36V38H43.6643V11.36H49.4963ZM69.851 38H50.303V32.528L62.183 16.76H50.663V11.36H69.491V16.58L57.431 32.6H69.851V38Z" fill="#7562E7"/>
<path d="M79.532 38H73.772V11.36H79.532L90.764 28.316V11.36H96.524V38H90.764L79.532 21.08V38ZM99.0128 27.992V11.36H104.845V27.596C104.845 30.944 106.681 32.78 109.957 32.78C113.269 32.78 115.141 30.872 115.141 27.596V11.36H120.973V27.992C120.973 34.328 116.653 38.432 109.957 38.432C103.297 38.432 99.0128 34.364 99.0128 27.992ZM129.285 38H123.453V11.36H133.749C140.229 11.36 143.901 14.492 143.901 20C143.901 23.456 142.425 25.904 139.473 27.416L144.153 38H137.781L133.785 28.676H129.285V38ZM129.285 16.544V23.564H133.713C136.269 23.564 137.745 22.268 137.745 20C137.745 17.768 136.341 16.544 133.749 16.544H129.285Z" fill="#424242"/>
<path d="M151.544 38.468C149.708 38.468 148.232 36.992 148.232 35.228C148.232 33.428 149.708 31.952 151.544 31.952C153.308 31.952 154.856 33.428 154.856 35.228C154.856 36.992 153.308 38.468 151.544 38.468Z" fill="#CFFF71"/>
</svg>
