<svg width="89" height="27" viewBox="0 0 89 27" fill="none" xmlns="http://www.w3.org/2000/svg">
<path d="M3.56 21H0.18L5.46 6.2H8.62L13.88 21H10.44L9.4 17.88H4.62L3.56 21ZM6.62 12L5.56 15.16H8.48L7.42 12C7.26 11.5 7.08 10.92 7.02 10.56C6.96 10.9 6.8 11.46 6.62 12ZM23.8225 21H12.9625V17.96L19.5625 9.2H13.1625V6.2H23.6225V9.1L16.9225 18H23.8225V21ZM27.498 6.2V21H24.258V6.2H27.498ZM38.8061 21H27.9461V17.96L34.5461 9.2H28.1461V6.2H38.6061V9.1L31.9061 18H38.8061V21Z" fill="#7562E7"/>
<path d="M44.74 21H41.54V6.2H44.74L50.98 15.62V6.2H54.18V21H50.98L44.74 11.6V21ZM55.5627 15.44V6.2H58.8027V15.22C58.8027 17.08 59.8227 18.1 61.6427 18.1C63.4827 18.1 64.5227 17.04 64.5227 15.22V6.2H67.7627V15.44C67.7627 18.96 65.3627 21.24 61.6427 21.24C57.9427 21.24 55.5627 18.98 55.5627 15.44ZM72.3808 21H69.1408V6.2H74.8608C78.4608 6.2 80.5008 7.94 80.5008 11C80.5008 12.92 79.6808 14.28 78.0408 15.12L80.6408 21H77.1008L74.8808 15.82H72.3808V21ZM72.3808 9.08V12.98H74.8408C76.2608 12.98 77.0808 12.26 77.0808 11C77.0808 9.76 76.3008 9.08 74.8608 9.08H72.3808Z" fill="#F8F8F8"/>
<path d="M85.08 21.26C84.06 21.26 83.24 20.44 83.24 19.46C83.24 18.46 84.06 17.64 85.08 17.64C86.06 17.64 86.92 18.46 86.92 19.46C86.92 20.44 86.06 21.26 85.08 21.26Z" fill="#CFFF71"/>
</svg>
