<svg width="24" height="24" viewBox="0 0 24 24" fill="none" xmlns="http://www.w3.org/2000/svg">
<g clip-path="url(#clip0_2177_1284)">
<path d="M11.0441 3.12012L11.5643 4.09702C11.6812 4.2773 11.8079 4.43686 11.9571 4.58547C12.3946 5.01748 12.8023 5.47856 13.1776 5.96556C14.0589 7.12274 14.6533 8.40781 15.0778 9.79765C15.3324 10.6466 15.4707 11.5176 15.481 12.3983C15.5236 15.0311 14.621 17.2919 12.8012 19.1708C12.5052 19.4687 12.1854 19.7421 11.845 19.9881C11.6648 19.9881 11.5795 19.8499 11.5052 19.7226C11.3699 19.4865 11.2798 19.2273 11.2396 18.9582C11.1757 18.6397 11.1337 18.3212 11.1544 17.9923V17.8437C11.1398 17.812 10.9808 3.19503 11.0441 3.12012Z" fill="#599636"/>
<path d="M11.0448 3.08834C11.0235 3.0457 11.0022 3.07798 10.9809 3.09869C10.9912 3.31185 10.9169 3.50187 10.8006 3.68337C10.6727 3.86365 10.5034 4.0019 10.3335 4.1505C9.38946 4.96784 8.64643 5.95509 8.0514 7.05929C7.25965 8.54535 6.85159 10.138 6.73587 11.8147C6.68288 12.4195 6.92711 14.5535 7.11774 15.1693C7.63786 16.8039 8.57213 18.1737 9.7823 19.3625C10.0795 19.6488 10.3974 19.9143 10.7263 20.1695C10.8219 20.1695 10.8323 20.0842 10.8542 20.0209C10.8961 19.8854 10.9281 19.747 10.9498 19.6068L11.163 18.0147L11.0448 3.08834Z" fill="#6CAC48"/>
<path d="M11.5652 20.6353C11.5865 20.3917 11.7035 20.1895 11.8308 19.9879C11.7029 19.9349 11.6078 19.8296 11.5335 19.712C11.4695 19.6007 11.4164 19.4834 11.3752 19.3618C11.2266 18.916 11.1949 18.4483 11.1523 17.9927V17.7168C11.0993 17.7594 11.0883 18.12 11.0883 18.1736C11.0573 18.6551 10.9934 19.1339 10.8971 19.6067C10.8654 19.7979 10.8441 19.9885 10.7266 20.1584C10.7266 20.1798 10.7266 20.2011 10.7369 20.2327C10.9282 20.7955 10.9805 21.3686 11.0128 21.9527V22.1658C11.0128 22.4204 11.0025 22.3668 11.2138 22.4521C11.2991 22.4838 11.3941 22.4947 11.4793 22.5581C11.5433 22.5581 11.5536 22.5051 11.5536 22.4624L11.522 22.1122V21.1353C11.5116 20.9648 11.5433 20.7955 11.5646 20.6359L11.5652 20.6353Z" fill="#C2BFBF"/>
</g>
<defs>
<clipPath id="clip0_2177_1284">
<rect width="24" height="24" fill="white"/>
</clipPath>
</defs>
</svg>
