<svg width="24" height="24" viewBox="0 0 24 24" fill="none" xmlns="http://www.w3.org/2000/svg">
<g clip-path="url(#clip0_2177_1271)">
<g clip-path="url(#clip1_2177_1271)">
<path d="M22.1337 19.3898C20.846 19.3572 19.848 19.4883 19.011 19.8487C18.7695 19.9469 18.3831 19.947 18.3509 20.2583C18.4797 20.3894 18.4958 20.6025 18.6085 20.7826C18.8019 21.1103 19.1397 21.5527 19.4455 21.7822C19.7835 22.0443 20.1216 22.3064 20.4756 22.5358C21.1035 22.9291 21.8118 23.1584 22.4234 23.5517C22.7777 23.7809 23.1316 24.0761 23.4857 24.3218C23.6628 24.4527 23.7754 24.6659 24.0009 24.7477V24.6987C23.8881 24.5511 23.8559 24.3382 23.7433 24.1743C23.5825 24.0104 23.4213 23.863 23.2604 23.6991C22.7936 23.0602 22.2142 22.503 21.5864 22.0443C21.0714 21.6838 19.9445 21.1923 19.7353 20.586C19.7353 20.586 19.7191 20.5697 19.7031 20.5533C20.0572 20.5205 20.4756 20.3894 20.8138 20.2911C21.361 20.1435 21.86 20.1764 22.4234 20.0289C22.6809 19.9634 22.9385 19.8815 23.196 19.7995V19.6521C22.9064 19.3572 22.6971 18.964 22.3912 18.6854C21.5703 17.9643 20.6688 17.2599 19.7353 16.67C19.2362 16.3423 18.5923 16.1293 18.0612 15.8508C17.8682 15.7524 17.5461 15.7033 17.4335 15.5394C17.1436 15.179 16.9827 14.7039 16.7735 14.2778C16.3068 13.3766 15.856 12.3772 15.4535 11.4269C15.1639 10.7878 14.9868 10.1488 14.6327 9.55902C12.9747 6.77356 11.1719 5.08591 8.40337 3.43095C7.80773 3.08692 7.0995 2.93944 6.34297 2.75928C5.9407 2.7428 5.53815 2.71012 5.13578 2.69364C4.87821 2.57893 4.62064 2.26768 4.39526 2.12019C3.47793 1.53027 1.11157 0.252388 0.435536 1.94003C0.00088191 3.00498 1.07947 4.05355 1.44955 4.59441C1.7234 4.97121 2.07738 5.39717 2.27056 5.82322C2.38325 6.10161 2.41535 6.39676 2.52804 6.69163C2.78571 7.41236 3.027 8.21541 3.36515 8.88726C3.54223 9.23129 3.73532 9.5917 3.9607 9.90305C4.08948 10.0832 4.31477 10.1652 4.36316 10.4601C4.13787 10.7878 4.12168 11.2794 3.9928 11.689C3.41335 13.5405 3.63882 15.8344 4.45965 17.1943C4.71713 17.6038 5.32887 18.5052 6.14979 18.161C6.87421 17.8662 6.71323 16.9322 6.92232 16.113C6.9708 15.9161 6.93861 15.7852 7.03511 15.6541V15.687C7.26048 16.1456 7.48577 16.5882 7.69504 17.0469C8.19409 17.8497 9.06322 18.6854 9.78755 19.2426C10.174 19.5373 10.4798 20.0453 10.9627 20.2256V20.1763H10.9304C10.8338 20.0288 10.689 19.9634 10.5603 19.8486C10.2706 19.5538 9.94853 19.1933 9.72325 18.8656C9.0473 17.9479 8.45157 16.9321 7.92042 15.8835C7.66294 15.3757 7.43747 14.8185 7.22828 14.3106C7.1316 14.1138 7.1316 13.819 6.97071 13.7208C6.72924 14.0812 6.37517 14.3925 6.19809 14.8349C5.8924 15.5394 5.86011 16.4078 5.74743 17.3089C5.68303 17.3255 5.71514 17.3089 5.68294 17.3419C5.16798 17.2106 4.9909 16.67 4.79763 16.2112C4.31468 15.0479 4.23418 13.18 4.65283 11.8365C4.76552 11.4924 5.24847 10.411 5.05529 10.0833C4.9587 9.77196 4.63664 9.5917 4.45965 9.346C4.25047 9.03465 4.025 8.64156 3.88021 8.29734C3.49385 7.37978 3.30067 6.36389 2.8822 5.44633C2.68902 5.02027 2.35114 4.57802 2.07738 4.18474C1.7716 3.74239 1.43354 3.43095 1.19206 2.90666C1.11167 2.7265 0.998885 2.43154 1.12767 2.2349C1.15987 2.10381 1.22417 2.05474 1.35305 2.02197C1.56233 1.84162 2.15796 2.07103 2.36706 2.16936C2.96269 2.41497 3.46165 2.64457 3.9607 2.9886C4.18598 3.15247 4.42746 3.46381 4.71713 3.54575H5.0552C5.57034 3.66036 6.1497 3.57852 6.63265 3.72591C7.48586 4.00439 8.25839 4.41406 8.95062 4.8565C11.0593 6.21641 12.7976 8.14986 13.9727 10.4601C14.1659 10.8368 14.2463 11.1811 14.4234 11.5742C14.7616 12.3772 15.18 13.1964 15.5179 13.9829C15.856 14.7529 16.1778 15.5394 16.6608 16.1785C16.9023 16.5225 17.868 16.7028 18.3026 16.8831C18.6246 17.0304 19.1236 17.1616 19.4133 17.3418C19.9606 17.6857 20.5078 18.0792 21.023 18.4559C21.2805 18.6525 22.0853 19.0622 22.1337 19.3898Z" fill="#00546B"/>
<path d="M5.71453 5.15137C5.44095 5.15137 5.24787 5.18433 5.05469 5.2334V5.26617H5.08688C5.21576 5.52836 5.44095 5.70861 5.60185 5.93793C5.73072 6.20002 5.84332 6.46231 5.9722 6.72449C5.9882 6.70801 6.0043 6.69172 6.0043 6.69172C6.22977 6.52776 6.34237 6.26567 6.34237 5.87238C6.24578 5.75777 6.22968 5.64306 6.14919 5.52836C6.05269 5.3644 5.84332 5.28256 5.71453 5.15137Z" fill="#00546B"/>
</g>
</g>
<defs>
<clipPath id="clip0_2177_1271">
<rect width="24" height="24" fill="white"/>
</clipPath>
<clipPath id="clip1_2177_1271">
<rect width="24" height="25" fill="white"/>
</clipPath>
</defs>
</svg>
