<svg width="24" height="24" viewBox="0 0 24 24" fill="none" xmlns="http://www.w3.org/2000/svg">
<g clip-path="url(#clip0_2179_41)">
<path d="M20.8279 6.10339C19.6916 4.63203 18.1446 3.53068 16.3823 2.93862C14.6201 2.34656 12.7219 2.29039 10.9278 2.77721C9.13361 3.26403 7.52413 4.27198 6.30287 5.67357C5.08161 7.07517 4.30342 8.80746 4.06673 10.6513C3.83004 12.4952 4.14548 14.3679 4.97315 16.0325C5.80082 17.6971 7.10354 19.0789 8.71657 20.0031C10.3296 20.9273 12.1805 21.3523 14.0351 21.2245C15.8897 21.0968 17.6648 20.4218 19.1358 19.2852C23.2419 16.1119 24 10.2109 20.8279 6.10339Z" fill="#FF6C37"/>
<path d="M16.5595 8.4377L12.5965 12.4322L11.4766 11.2808C15.3771 7.38034 15.7683 7.73279 16.5595 8.4377Z" fill="white"/>
<path d="M12.5954 12.5416C12.5603 12.5407 12.5268 12.5268 12.5014 12.5025L11.3736 11.3747C11.3482 11.3484 11.334 11.3133 11.334 11.2767C11.334 11.2402 11.3482 11.2051 11.3736 11.1788C15.2191 7.33321 15.744 7.51326 16.6525 8.33565C16.6677 8.34782 16.6798 8.36337 16.688 8.38106C16.6961 8.39875 16.7001 8.4181 16.6994 8.43757C16.7053 8.47575 16.6906 8.51481 16.6604 8.53949L12.6973 12.5028C12.6695 12.5283 12.6331 12.542 12.5954 12.5416ZM11.6711 11.2807L12.5954 12.205L16.3549 8.4455C16.2251 8.28282 16.0399 8.17371 15.8347 8.13903C15.6295 8.10435 15.4187 8.14654 15.2426 8.25752C14.5612 8.56298 13.4648 9.49493 11.6711 11.2807Z" fill="#FF6C37"/>
<path d="M13.7313 13.5363L12.6504 12.432L16.6134 8.51562C17.6787 9.55742 16.0965 11.2965 13.7313 13.5363Z" fill="white"/>
<path d="M13.7323 13.6778C13.6976 13.675 13.6647 13.6613 13.6383 13.6387L12.5339 12.5578C12.5173 12.5177 12.5173 12.4726 12.5339 12.4324C12.5222 12.3995 12.5222 12.3635 12.5339 12.3305L16.497 8.36746C16.5245 8.34157 16.5609 8.32715 16.5987 8.32715C16.6365 8.32715 16.6729 8.34157 16.7005 8.36746C16.8288 8.48559 16.9302 8.62997 16.9978 8.79078C17.0654 8.95159 17.0975 9.12507 17.092 9.29941C17.092 10.3568 15.8857 11.6882 13.8339 13.6308C13.8065 13.6579 13.7707 13.6745 13.7323 13.6778ZM12.8549 12.4324L13.7399 13.3171C15.3063 11.8368 16.8024 10.3095 16.8101 9.27562C16.8186 9.05644 16.7461 8.8418 16.6065 8.67263L12.8549 12.4324Z" fill="#FF6C37"/>
<path d="M11.5082 11.3037L12.2915 12.087C12.2965 12.0914 12.3005 12.0968 12.3033 12.1029C12.306 12.109 12.3074 12.1156 12.3074 12.1222C12.3074 12.1289 12.306 12.1355 12.3033 12.1416C12.3005 12.1476 12.2965 12.1531 12.2915 12.1575L10.6388 12.5099C10.6054 12.5171 10.5706 12.5132 10.5397 12.4988C10.5088 12.4844 10.4834 12.4603 10.4674 12.4301C10.4514 12.4 10.4458 12.3654 10.4513 12.3317C10.4567 12.298 10.4731 12.2671 10.4978 12.2435L11.4612 11.2881C11.4612 11.2881 11.4926 11.2881 11.5082 11.3037Z" fill="white"/>
<path d="M10.5998 12.6669C10.5476 12.6662 10.4964 12.6522 10.4512 12.6261C10.4059 12.6 10.3681 12.5628 10.3413 12.5179C10.3112 12.4611 10.3003 12.3961 10.3102 12.3326C10.3201 12.2691 10.3503 12.2104 10.3963 12.1655L11.3517 11.2021C11.3862 11.1713 11.4308 11.1543 11.477 11.1543C11.5232 11.1543 11.5678 11.1713 11.6022 11.2021L12.3856 11.9854C12.432 12.0295 12.4502 12.0962 12.4326 12.1579C12.4149 12.2195 12.3632 12.2686 12.2995 12.2833L10.6468 12.6357L10.5998 12.6669ZM11.4771 11.4764L10.5922 12.3614L12.0569 12.048L11.4771 11.4764Z" fill="#FF6C37"/>
<path d="M18.6667 6.23654C18.0998 5.68965 17.2093 5.66674 16.6148 6.18279C16.0203 6.69885 15.9187 7.58468 16.3816 8.22203C16.8445 8.85939 17.7171 9.03797 18.3927 8.63323L17.3274 7.56794L18.6667 6.23654Z" fill="white"/>
<path d="M17.6093 8.99309C17.2836 8.98892 16.9664 8.88899 16.6971 8.70578C16.4278 8.52256 16.2184 8.26415 16.0949 7.96275C15.9715 7.66157 15.9392 7.33084 16.0018 7.01146C16.0645 6.69208 16.2194 6.39808 16.4474 6.16582C16.7609 5.858 17.1828 5.68555 17.6222 5.68555C18.0616 5.68555 18.4835 5.858 18.7971 6.16582C18.827 6.19108 18.8441 6.22838 18.8441 6.26774C18.844 6.2871 18.8398 6.30622 18.8316 6.32381C18.8235 6.34139 18.8117 6.35703 18.7971 6.36966L17.5282 7.568L18.4916 8.51581C18.5072 8.53071 18.5189 8.54921 18.5257 8.56969C18.5326 8.59017 18.5342 8.61201 18.5307 8.63329C18.5283 8.65383 18.5215 8.6736 18.5107 8.69121C18.4999 8.70883 18.4854 8.72385 18.4681 8.73521C18.2093 8.89698 17.9118 8.98625 17.6066 8.99368L17.6093 8.99309ZM17.6093 5.95405C17.0512 5.95699 16.5519 6.2927 16.3425 6.80582C16.1331 7.31893 16.2471 7.90959 16.6383 8.30375C16.8329 8.49947 17.082 8.63187 17.3531 8.6836C17.6243 8.73532 17.9047 8.70397 18.1577 8.59364L17.2333 7.66933C17.2186 7.65758 17.2068 7.64268 17.1986 7.62572C17.1905 7.60877 17.1862 7.59019 17.1862 7.57138C17.1862 7.55256 17.1905 7.53399 17.1986 7.51704C17.2068 7.50008 17.2186 7.48518 17.2333 7.47343L18.4552 6.24365C18.2123 6.05751 17.9153 5.95602 17.6093 5.95405Z" fill="#FF6C37"/>
<path d="M18.6909 6.25977L17.3516 7.59116L18.4169 8.65645C18.5241 8.5949 18.6239 8.52129 18.7144 8.43705C18.9936 8.14194 19.1472 7.74989 19.1428 7.34366C19.1384 6.93742 18.9764 6.54878 18.6909 6.25977Z" fill="white"/>
<path d="M18.3919 8.77375C18.3743 8.7747 18.3567 8.77169 18.3405 8.76493C18.3242 8.75816 18.3097 8.74783 18.2979 8.73469L17.2326 7.66939C17.2179 7.65765 17.2061 7.64274 17.1979 7.62578C17.1898 7.60883 17.1855 7.59026 17.1855 7.57144C17.1855 7.55263 17.1898 7.53405 17.1979 7.5171C17.2061 7.50014 17.2179 7.48524 17.2326 7.47349L18.564 6.16559C18.5769 6.1462 18.5944 6.1303 18.6149 6.1193C18.6354 6.1083 18.6583 6.10254 18.6815 6.10254C18.7048 6.10254 18.7277 6.1083 18.7482 6.1193C18.7687 6.1303 18.7861 6.1462 18.799 6.16559C18.9553 6.31873 19.0795 6.50152 19.1642 6.70326C19.249 6.90499 19.2927 7.12162 19.2927 7.34044C19.2927 7.55926 19.249 7.77588 19.1642 7.97761C19.0795 8.17935 18.9553 8.36214 18.799 8.51528C18.7068 8.61308 18.6013 8.69742 18.4856 8.76582C18.4565 8.7805 18.4231 8.78334 18.3919 8.77375ZM17.5305 7.56777L18.4154 8.45272C18.4763 8.41006 18.5339 8.36293 18.5878 8.31174C18.848 8.0523 18.9945 7.7002 18.9952 7.3328C18.9958 7.004 18.876 6.68637 18.6583 6.43992L17.5305 7.56777Z" fill="#FF6C37"/>
<path d="M16.7237 8.60234C16.6176 8.50272 16.4775 8.44727 16.332 8.44727C16.1865 8.44727 16.0464 8.50272 15.9403 8.60234L12.3926 12.1422L12.98 12.7375L16.7316 9.44793C16.7888 9.3931 16.8342 9.32714 16.8649 9.2541C16.8957 9.18107 16.9112 9.10252 16.9104 9.02327C16.9097 8.94403 16.8927 8.86578 16.8606 8.79334C16.8285 8.7209 16.7819 8.65609 16.7237 8.60234Z" fill="white"/>
<path d="M12.9496 12.8783C12.9145 12.8774 12.881 12.8635 12.8556 12.8392L12.2603 12.2439C12.2349 12.2176 12.2207 12.1825 12.2207 12.1459C12.2207 12.1094 12.2349 12.0742 12.2603 12.048L15.8083 8.51549C15.9105 8.41342 16.041 8.34441 16.1829 8.3174C16.3248 8.29039 16.4715 8.30664 16.6041 8.36403C16.7366 8.42143 16.8489 8.51732 16.9263 8.63927C17.0037 8.76123 17.0426 8.90362 17.0381 9.04799C17.034 9.14598 17.0105 9.24217 16.9687 9.33094C16.927 9.4197 16.868 9.49925 16.7952 9.56492L13.0436 12.8545C13.0163 12.8738 12.9828 12.8825 12.9496 12.8783ZM12.5346 12.1417L12.9261 12.5411L16.6072 9.33759C16.6983 9.25829 16.7526 9.14492 16.7561 9.0242C16.7597 8.90348 16.7121 8.78541 16.6231 8.70317C16.5409 8.62133 16.4296 8.57538 16.3137 8.57538C16.1977 8.57538 16.0864 8.62133 16.0042 8.70317L12.5346 12.1417Z" fill="#FF6C37"/>
<path d="M9.64395 16.1759C9.63393 16.1895 9.62853 16.206 9.62853 16.2229C9.62853 16.2398 9.63393 16.2563 9.64395 16.2699L9.8005 16.9513C9.80677 16.9914 9.80083 17.0325 9.78343 17.0691C9.76604 17.1058 9.73801 17.1364 9.70299 17.1569C9.66809 17.1773 9.62762 17.1861 9.5874 17.1821C9.54718 17.178 9.50928 17.1613 9.47918 17.1343L8.40625 16.1004L11.7507 12.7295H12.91L13.6934 13.5128C12.4714 14.5812 11.109 15.4772 9.64395 16.1759Z" fill="white"/>
<path d="M9.57362 17.3266C9.48492 17.3248 9.3974 17.2884 9.33865 17.2247L8.31272 16.1987C8.29802 16.187 8.28616 16.1721 8.27801 16.1551C8.26986 16.1382 8.26562 16.1196 8.26562 16.1008C8.26562 16.082 8.26986 16.0634 8.27801 16.0464C8.28616 16.0295 8.29802 16.0146 8.31272 16.0028L11.6804 12.6272C11.6993 12.6072 11.7239 12.5935 11.7509 12.5881H12.9178C12.9482 12.5774 12.9814 12.5774 13.0118 12.5881L13.7951 13.3715C13.81 13.3852 13.8214 13.4023 13.8282 13.4214C13.835 13.4405 13.8371 13.461 13.8342 13.481C13.8348 13.5005 13.8308 13.5198 13.8227 13.5375C13.8145 13.5552 13.8024 13.5707 13.7872 13.5829L13.7247 13.6379C12.4978 14.6607 11.148 15.5263 9.70668 16.2146L9.85559 16.849C9.8671 16.898 9.86754 16.9489 9.85688 16.998C9.84622 17.0471 9.82472 17.0932 9.79396 17.133C9.7632 17.1728 9.72395 17.2052 9.67907 17.2278C9.63419 17.2505 9.58482 17.2629 9.53456 17.264L9.57362 17.3266ZM8.61818 16.0968L9.5422 17.0288C9.55081 17.0364 9.56194 17.0407 9.57348 17.0407C9.58501 17.0407 9.59615 17.0364 9.60476 17.0288C9.61052 17.0208 9.61362 17.0112 9.61362 17.0013C9.61362 16.9915 9.61052 16.9818 9.60476 16.9738L9.44821 16.2924C9.43587 16.2435 9.44083 16.1919 9.46224 16.1462C9.48366 16.1005 9.52021 16.0637 9.56569 16.0419C10.9683 15.3628 12.2833 14.5159 13.4818 13.5198L12.8394 12.8774H11.79L8.61818 16.0968Z" fill="#FF6C37"/>
<path d="M7.59919 16.9044L8.38252 16.1211L9.5888 17.3274L7.66998 17.1943C7.63703 17.1917 7.60574 17.1788 7.58058 17.1574C7.55541 17.136 7.53766 17.1072 7.52984 17.075C7.52202 17.0429 7.52455 17.0092 7.53706 16.9786C7.54956 16.948 7.57141 16.9222 7.59948 16.9047L7.59919 16.9044Z" fill="white"/>
<path d="M9.61258 17.4446L7.70139 17.3116C7.58802 17.301 7.49051 17.2235 7.45056 17.1198C7.41062 17.0161 7.435 16.893 7.51342 16.8102L8.29675 16.0269C8.32303 16.0015 8.35815 15.9873 8.3947 15.9873C8.43125 15.9873 8.46637 16.0015 8.49265 16.0269L9.691 17.2252C9.70759 17.248 9.71653 17.2754 9.71653 17.3035C9.71653 17.3316 9.70759 17.3591 9.691 17.3818C9.67288 17.4111 9.64517 17.4335 9.61258 17.4446ZM7.70139 17.0061L9.26776 17.108L8.4063 16.3012L7.70139 17.0061Z" fill="#FF6C37"/>
<path d="M13.0197 12.8238L11.4375 13.0667L12.3539 12.1582L13.0197 12.8238Z" fill="white"/>
<path d="M11.4362 13.2151C11.4099 13.2158 11.384 13.2087 11.3617 13.1948C11.3394 13.1808 11.3217 13.1606 11.3108 13.1367C11.2942 13.114 11.2852 13.0866 11.2852 13.0584C11.2852 13.0302 11.2942 13.0028 11.3108 12.9801L12.2193 12.0638C12.2468 12.0379 12.2832 12.0234 12.321 12.0234C12.3589 12.0234 12.3953 12.0379 12.4228 12.0638L13.089 12.7293C13.1023 12.7504 13.1093 12.7748 13.1093 12.7998C13.1093 12.8247 13.1023 12.8492 13.089 12.8703C13.0824 12.896 13.0686 12.9193 13.0492 12.9374C13.0298 12.9554 13.0055 12.9675 12.9794 12.9722L11.413 13.2151H11.4362ZM12.3526 12.3613L11.8436 12.8703L12.7209 12.7372L12.3526 12.3613Z" fill="#FF6C37"/>
<path d="M13.0187 12.8231L11.9144 12.9641C11.8848 12.9708 11.8539 12.9678 11.8262 12.9555C11.7985 12.9433 11.7754 12.9224 11.7605 12.896C11.7456 12.8697 11.7395 12.8392 11.7433 12.8091C11.747 12.779 11.7604 12.751 11.7813 12.7291L12.3532 12.1572L13.0187 12.8231Z" fill="white"/>
<path d="M11.8839 13.1134C11.8327 13.1129 11.7826 13.0989 11.7386 13.0728C11.6946 13.0466 11.6583 13.0093 11.6334 12.9645C11.6035 12.9109 11.5919 12.849 11.6004 12.7882C11.6088 12.7274 11.6369 12.671 11.6804 12.6276L12.2522 12.0558C12.2798 12.0299 12.3162 12.0155 12.354 12.0155C12.3918 12.0155 12.4282 12.0299 12.4558 12.0558L13.1216 12.7216C13.1414 12.7404 13.1554 12.7645 13.1617 12.791C13.1681 12.8175 13.1667 12.8453 13.1575 12.871C13.1484 12.8968 13.1321 12.9193 13.1104 12.9359C13.0888 12.9525 13.0628 12.9624 13.0356 12.9645L11.9391 13.1055L11.8839 13.1134ZM11.8839 12.8235L12.7142 12.7216L12.3462 12.3536L11.8763 12.8235H11.8839ZM18.698 7.16078C18.6833 7.13606 18.66 7.11762 18.6325 7.10896C18.6051 7.1003 18.5754 7.10202 18.5491 7.11378C18.5362 7.12035 18.5246 7.12946 18.5153 7.14056C18.5059 7.15166 18.4988 7.16452 18.4945 7.1784C18.4858 7.2064 18.4885 7.23672 18.5021 7.2627C18.5571 7.37813 18.5418 7.5147 18.4631 7.61515C18.4533 7.62483 18.4456 7.63643 18.4406 7.64922C18.4355 7.66201 18.4332 7.67571 18.4337 7.68946C18.434 7.71701 18.4444 7.74347 18.4631 7.76377C18.4832 7.7717 18.5055 7.7717 18.5256 7.76377C18.5439 7.76835 18.563 7.76785 18.581 7.76231C18.5989 7.75677 18.6151 7.7464 18.6275 7.73234C18.692 7.65338 18.7329 7.55778 18.7454 7.45659C18.7578 7.3554 18.7414 7.25304 18.698 7.16078Z" fill="#FF6C37"/>
</g>
<defs>
<clipPath id="clip0_2179_41">
<rect width="24" height="24" fill="white"/>
</clipPath>
</defs>
</svg>
