<svg width="24" height="24" viewBox="0 0 24 24" fill="none" xmlns="http://www.w3.org/2000/svg">
<g clip-path="url(#clip0_2179_420)">
<path d="M17.6641 15.388L18.3574 13.6418H20.3593L19.4092 10.9928L20.5974 8L24.0007 17H21.4909L20.9093 15.388H17.6641Z" fill="#3D3D3D"/>
<path d="M15.5223 17L19.1656 8L16.7502 8.00001L14.258 13.816L12.4858 8.00002H10.6292L8.7263 13.816L7.38434 11.1658L6.16992 14.8923L7.40292 17H9.77994L11.4995 11.7843L13.139 17H15.5223Z" fill="#5A0FC8"/>
<path d="M2.29274 13.9104H3.78048C4.23114 13.9104 4.63244 13.8603 4.98438 13.7601L5.36913 12.5795L6.44444 9.2799C6.36251 9.15055 6.26897 9.02825 6.16382 8.91302C5.61171 8.30433 4.80392 8 3.74043 8H0V17H2.29274V13.9104ZM4.26199 10.0705C4.47765 10.2867 4.58546 10.576 4.58546 10.9384C4.58546 11.3036 4.49063 11.5933 4.30098 11.8073C4.09307 12.0452 3.71024 12.1642 3.15251 12.1642H2.29274V9.74625H3.15883C3.67863 9.74625 4.04635 9.85434 4.26199 10.0705Z" fill="#3D3D3D"/>
</g>
<defs>
<clipPath id="clip0_2179_420">
<rect width="24" height="9" fill="white" transform="translate(0 8)"/>
</clipPath>
</defs>
</svg>
