<svg width="24" height="24" viewBox="0 0 24 24" fill="none" xmlns="http://www.w3.org/2000/svg">
<path d="M23 12.0017C23 10.6064 21.2578 9.28413 18.5868 8.46413C19.2032 5.73366 18.9293 3.5613 17.7222 2.86581C17.4439 2.70266 17.1186 2.62539 16.7633 2.62539V3.58277C16.9603 3.58277 17.1186 3.62141 17.2513 3.69439C17.8335 4.02926 18.086 5.30434 17.8891 6.94434C17.842 7.3479 17.765 7.77292 17.6708 8.20654C16.8318 8.00046 15.9158 7.84161 14.9527 7.73858C14.3748 6.94434 13.7756 6.22308 13.172 5.59198C14.5675 4.29115 15.8773 3.57848 16.7676 3.57848V2.62109C15.5905 2.62109 14.0495 3.46256 12.4914 4.92224C10.9333 3.47115 9.39238 2.63827 8.21525 2.63827V3.59565C9.1013 3.59565 10.4154 4.30403 11.8108 5.59628C11.2116 6.22738 10.6123 6.94434 10.043 7.73858C9.07562 7.84161 8.1596 8.00046 7.32063 8.21083C7.22218 7.78151 7.14941 7.36507 7.09804 6.9658C6.89686 5.3258 7.14513 4.05073 7.72299 3.71156C7.85141 3.63429 8.01834 3.59994 8.21525 3.59994V2.64256C7.85569 2.64256 7.53037 2.71984 7.24786 2.88298C6.04505 3.57848 5.77538 5.74654 6.39605 8.46842C3.73359 9.29271 2 10.6107 2 12.0017C2 13.397 3.74215 14.7193 6.41317 15.5393C5.79678 18.2698 6.07073 20.4421 7.27782 21.1376C7.55605 21.3008 7.88137 21.378 8.24093 21.378C9.41806 21.378 10.959 20.5366 12.5171 19.0769C14.0752 20.528 15.6162 21.3609 16.7933 21.3609C17.1529 21.3609 17.4782 21.2836 17.7607 21.1205C18.9635 20.425 19.2332 18.2569 18.6125 15.535C21.2664 14.715 23 13.3927 23 12.0017ZM17.4268 9.13816C17.2684 9.69198 17.0715 10.263 16.849 10.834C16.6735 10.4905 16.4894 10.1471 16.2882 9.8036C16.0913 9.46015 15.8816 9.12528 15.6718 8.799C16.2797 8.88915 16.8661 9.00078 17.4268 9.13816ZM15.4664 13.7104C15.1325 14.29 14.7901 14.8395 14.4348 15.3504C13.797 15.4062 13.1506 15.4363 12.5 15.4363C11.8536 15.4363 11.2073 15.4062 10.5738 15.3547C10.2185 14.8438 9.87179 14.2986 9.53791 13.7233C9.2126 13.1609 8.91724 12.5899 8.64757 12.0146C8.91296 11.4393 9.2126 10.864 9.53363 10.3016C9.86751 9.72203 10.2099 9.1725 10.5652 8.66161C11.203 8.6058 11.8494 8.57575 12.5 8.57575C13.1464 8.57575 13.7927 8.6058 14.4262 8.65732C14.7815 9.16821 15.1282 9.71345 15.4621 10.2887C15.7874 10.8511 16.0828 11.4221 16.3524 11.9974C16.0828 12.5727 15.7874 13.148 15.4664 13.7104ZM16.849 13.1523C17.0801 13.7276 17.277 14.3029 17.4397 14.861C16.8789 14.9984 16.2882 15.1143 15.6761 15.2044C15.8859 14.8739 16.0956 14.5347 16.2925 14.187C16.4894 13.8435 16.6735 13.4957 16.849 13.1523ZM12.5086 17.7331C12.1105 17.321 11.7124 16.8616 11.3186 16.3593C11.7038 16.3765 12.0976 16.3894 12.4957 16.3894C12.8981 16.3894 13.2962 16.3808 13.6857 16.3593C13.3004 16.8616 12.9024 17.321 12.5086 17.7331ZM9.32389 15.2044C8.71606 15.1143 8.12964 15.0027 7.56889 14.8653C7.72727 14.3115 7.92417 13.7405 8.14676 13.1695C8.32226 13.5129 8.50632 13.8564 8.7075 14.1998C8.90868 14.5433 9.11415 14.8782 9.32389 15.2044ZM12.4872 6.27031C12.8852 6.68245 13.2833 7.14182 13.6771 7.64413C13.2919 7.62696 12.8981 7.61408 12.5 7.61408C12.0976 7.61408 11.6996 7.62266 11.31 7.64413C11.6953 7.14182 12.0934 6.68245 12.4872 6.27031ZM9.31961 8.799C9.10987 9.12957 8.90012 9.46873 8.70322 9.81648C8.50632 10.1599 8.32226 10.5034 8.14676 10.8468C7.91561 10.2716 7.71871 9.69627 7.55605 9.13816C8.1168 9.00507 8.7075 8.88915 9.31961 8.799ZM5.44578 14.1741C3.93049 13.5258 2.95026 12.6757 2.95026 12.0017C2.95026 11.3277 3.93049 10.4733 5.44578 9.82936C5.8139 9.67051 6.21627 9.52884 6.63147 9.39575C6.87546 10.2372 7.19649 11.113 7.59458 12.0103C7.20077 12.9033 6.88402 13.7748 6.64431 14.612C6.22055 14.4789 5.81818 14.3329 5.44578 14.1741ZM7.74868 20.309C7.16653 19.9742 6.91398 18.6991 7.11089 17.0591C7.15797 16.6555 7.23502 16.2305 7.32919 15.7969C8.16816 16.003 9.08418 16.1618 10.0473 16.2649C10.6252 17.0591 11.2244 17.7804 11.828 18.4115C10.4325 19.7123 9.12271 20.425 8.23237 20.425C8.03975 20.4207 7.87709 20.382 7.74868 20.309ZM17.902 17.0376C18.1031 18.6776 17.8549 19.9527 17.277 20.2919C17.1486 20.3691 16.9817 20.4035 16.7848 20.4035C15.8987 20.4035 14.5846 19.6951 13.1892 18.4029C13.7884 17.7718 14.3877 17.0548 14.957 16.2606C15.9244 16.1575 16.8404 15.9987 17.6794 15.7883C17.7778 16.2219 17.8549 16.6384 17.902 17.0376ZM19.5499 14.1741C19.1818 14.3329 18.7795 14.4746 18.3642 14.6077C18.1203 13.7662 17.7992 12.8904 17.4011 11.9931C17.7949 11.1001 18.1117 10.2286 18.3514 9.39146C18.7752 9.52455 19.1775 9.67051 19.5542 9.82936C21.0695 10.4776 22.0497 11.3277 22.0497 12.0017C22.0455 12.6757 21.0652 13.5301 19.5499 14.1741Z" fill="#61DAFB"/>
<path d="M12.4952 13.964C13.5756 13.964 14.4514 13.0856 14.4514 12.002C14.4514 10.9185 13.5756 10.04 12.4952 10.04C11.4149 10.04 10.5391 10.9185 10.5391 12.002C10.5391 13.0856 11.4149 13.964 12.4952 13.964Z" fill="#61DAFB"/>
</svg>
