<svg width="24" height="24" viewBox="0 0 24 24" fill="none" xmlns="http://www.w3.org/2000/svg">
<g clip-path="url(#clip0_2173_983)">
<path d="M16.6295 16.9991C17.5151 16.907 18.187 16.1393 18.1565 15.2181C18.126 14.2969 17.3624 13.56 16.4462 13.56H16.3852C15.4383 13.5907 14.7053 14.389 14.7359 15.3409C14.7665 15.8015 14.9497 16.2007 15.2245 16.4771C14.1862 18.5345 12.598 20.039 10.2158 21.298C8.59715 22.1578 6.91744 22.4649 5.23772 22.25C3.86334 22.0657 2.79441 21.4516 2.12241 20.4382C1.14516 18.9336 1.05356 17.3061 1.87819 15.6787C2.4585 14.5118 3.37462 13.6521 3.95494 13.2222C3.83278 12.823 3.6495 12.1475 3.55791 11.6562C-0.870564 14.8804 -0.412407 19.2407 0.931405 21.298C1.93922 22.8334 3.9855 23.7853 6.24553 23.7853C6.85631 23.7853 7.46709 23.7239 8.07797 23.5704C11.9872 22.8027 14.9497 20.4689 16.6295 16.9991ZM22.0047 13.1915C19.6836 10.4586 16.263 8.95401 12.3537 8.95401H11.8651C11.5902 8.4013 11.0099 8.03277 10.3686 8.03277H10.3074C9.36075 8.06349 8.62781 8.86183 8.65828 9.81381C8.68884 10.735 9.45234 11.4719 10.3686 11.4719H10.4296C11.1015 11.4412 11.6818 11.0113 11.9261 10.4279H12.4759C14.797 10.4279 16.9959 11.1034 18.9812 12.4238C20.5082 13.4372 21.6077 14.7576 22.2185 16.3542C22.7377 17.6439 22.7071 18.9029 22.1573 19.9777C21.3022 21.6051 19.8668 22.4956 17.9733 22.4956C16.7516 22.4956 15.5911 22.1271 14.9802 21.8507C14.6443 22.1578 14.0334 22.6491 13.6058 22.9562C14.9192 23.5703 16.263 23.9081 17.5457 23.9081C20.4776 23.9081 22.6461 22.2806 23.4707 20.6532C24.3563 18.8722 24.2952 15.8015 22.0047 13.1915ZM6.48984 17.521C6.5204 18.4423 7.28391 19.1792 8.20012 19.1792H8.26125C9.20803 19.1485 9.94097 18.3501 9.9104 17.3982C9.87994 16.477 9.11634 15.7401 8.20012 15.7401H8.13909C8.07797 15.7401 7.98628 15.7401 7.92534 15.7707C6.67312 13.6827 6.15394 11.4105 6.33722 8.95392C6.45928 7.11152 7.07016 5.51475 8.13909 4.19433C9.02475 3.05818 10.735 2.50547 11.8957 2.47484C15.1329 2.41339 16.5072 6.46663 16.5989 8.09413C16.9959 8.18621 17.6678 8.40121 18.126 8.55475C17.7594 3.58036 14.7053 1.00098 11.7735 1.00098C9.02475 1.00098 6.48984 2.99692 5.48194 5.94474C4.07709 9.87517 4.99331 13.6521 6.70359 16.6306C6.55097 16.8455 6.45928 17.1832 6.48984 17.521Z" fill="#764ABC"/>
</g>
<defs>
<clipPath id="clip0_2173_983">
<rect width="24" height="23" fill="white" transform="translate(0 1)"/>
</clipPath>
</defs>
</svg>
