<svg width="24" height="24" viewBox="0 0 24 24" fill="none" xmlns="http://www.w3.org/2000/svg">
<g clip-path="url(#clip0_2173_1189)">
<path d="M20.6527 13.3411C19.8136 13.3458 19.0871 13.5473 18.4777 13.8474C18.2527 13.402 18.0277 13.0129 17.9902 12.7224C17.948 12.3849 17.8965 12.1786 17.948 11.7755C17.9996 11.3723 18.2339 10.8004 18.2339 10.7536C18.2292 10.7114 18.1823 10.5051 17.6996 10.5004C17.2168 10.4958 16.7996 10.5942 16.7527 10.7208C16.7058 10.8473 16.6121 11.1379 16.5511 11.4379C16.4667 11.8786 15.5855 13.4395 15.0839 14.2598C14.9199 13.9411 14.7793 13.6598 14.7511 13.4348C14.7089 13.0973 14.6573 12.891 14.7089 12.4879C14.7605 12.0848 14.9949 11.5129 14.9949 11.4661C14.9902 11.4239 14.9433 11.2176 14.4605 11.2129C13.9777 11.2083 13.5605 11.3067 13.5137 11.4333C13.4668 11.5598 13.4152 11.8598 13.3121 12.1504C13.2136 12.4411 12.0417 15.0473 11.7371 15.727C11.5824 16.0739 11.4465 16.3504 11.348 16.5379C11.2496 16.7254 11.3433 16.552 11.3339 16.5708C11.2496 16.7301 11.2027 16.8192 11.2027 16.8192V16.8239C11.1371 16.9411 11.0667 17.0536 11.0339 17.0536C11.0105 17.0536 10.9636 16.7395 11.0433 16.3083C11.2167 15.4036 11.6386 13.9927 11.6339 13.9411C11.6339 13.9177 11.7136 13.6692 11.362 13.5427C11.0198 13.4161 10.898 13.627 10.8698 13.627C10.8417 13.627 10.8183 13.702 10.8183 13.702C10.8183 13.702 11.198 12.113 10.0917 12.113C9.39795 12.113 8.4417 12.8677 7.96827 13.5568C7.66826 13.7208 7.03077 14.0677 6.35577 14.438C6.09795 14.5787 5.83077 14.7287 5.57764 14.8646L5.52612 14.8083C4.1855 13.3786 1.70581 12.3661 1.80894 10.4442C1.84644 9.74575 2.09019 7.90357 6.57148 5.67232C10.2418 3.84419 13.1809 4.34575 13.6917 5.46138C14.4183 7.05513 12.1214 10.0176 8.30586 10.4442C6.85273 10.6083 6.08862 10.0458 5.89648 9.83482C5.69492 9.6145 5.6668 9.60513 5.5918 9.64732C5.46992 9.71294 5.54492 9.90981 5.5918 10.027C5.7043 10.3223 6.17305 10.8473 6.96992 11.1098C7.66831 11.3395 9.37461 11.4661 11.4371 10.6692C13.748 9.77388 15.5527 7.2895 15.023 5.21294C14.484 3.09888 10.9777 2.40513 7.66367 3.58169C5.69019 4.28482 3.55269 5.38169 2.01519 6.82075C0.187062 8.527 -0.103563 10.0176 0.0183124 10.6364C0.444922 12.8442 3.48706 14.2833 4.70581 15.3473C4.64488 15.3801 4.58862 15.4129 4.53706 15.4411C3.92769 15.741 1.60737 16.9551 1.02612 18.2395C0.369875 19.6926 1.12925 20.7379 1.6355 20.8786C3.20113 21.3145 4.80425 20.5317 5.67144 19.2426C6.53389 17.9536 6.43081 16.2801 6.03237 15.5161L6.01827 15.4879L6.49639 15.2067C6.80581 15.0239 7.1105 14.8551 7.37764 14.7098C7.22769 15.1176 7.11983 15.6004 7.06362 16.3035C6.998 17.1286 7.3355 18.1973 7.78081 18.6191C7.97769 18.8019 8.21206 18.8066 8.35738 18.8066C8.873 18.8066 9.10738 18.38 9.36519 17.8691C9.68394 17.2457 9.96519 16.5238 9.96519 16.5238C9.96519 16.5238 9.61362 18.4785 10.5746 18.4785C10.9261 18.4785 11.2777 18.0238 11.4371 17.7895V17.7941C11.4371 17.7941 11.4464 17.7801 11.4652 17.7473C11.4849 17.7182 11.5036 17.6885 11.5214 17.6583V17.6489C11.6621 17.4051 11.9761 16.8473 12.4449 15.9239C13.0495 14.7333 13.6308 13.2426 13.6308 13.2426C13.6308 13.2426 13.6871 13.6083 13.8605 14.2083C13.9636 14.5645 14.1886 14.9536 14.362 15.3333C14.2214 15.5301 14.137 15.6427 14.137 15.6427L14.1417 15.6474C14.0293 15.7974 13.9026 15.9568 13.7714 16.1161C13.2933 16.688 12.7214 17.3396 12.6464 17.5271C12.5574 17.7474 12.5761 17.9114 12.7496 18.0427C12.8761 18.1365 13.1011 18.1552 13.3402 18.1365C13.7714 18.1083 14.0714 18.0005 14.2214 17.9349C14.4558 17.8505 14.723 17.7239 14.9808 17.5364C15.4496 17.1896 15.7355 16.6974 15.7074 16.0412C15.6933 15.6802 15.5761 15.324 15.4308 14.9865C15.473 14.9255 15.5152 14.8645 15.5574 14.799C16.298 13.7161 16.8699 12.5255 16.8699 12.5255C16.8699 12.5255 16.9261 12.8912 17.0996 13.4912C17.1886 13.7958 17.3667 14.1287 17.5261 14.4568C16.8324 15.024 16.3964 15.6803 16.2464 16.1115C15.9699 16.9084 16.1855 17.2693 16.5933 17.3537C16.7761 17.3912 17.0386 17.3068 17.2355 17.2225C17.4792 17.1428 17.7745 17.0068 18.0464 16.8053C18.5152 16.4584 18.9652 15.9756 18.9417 15.324C18.9277 15.024 18.848 14.7287 18.7402 14.4475C19.3308 14.2037 20.0948 14.0631 21.0652 14.1803C23.1511 14.424 23.5636 15.7271 23.484 16.2709C23.4043 16.8147 22.9684 17.1146 22.823 17.2084C22.6777 17.2975 22.6308 17.3303 22.6449 17.3959C22.6636 17.4944 22.7292 17.4896 22.8558 17.4709C23.0292 17.4428 23.9527 17.0256 23.9902 16.0225C24.0464 14.7333 22.823 13.327 20.6527 13.3411ZM4.56519 18.7645C3.87612 19.5192 2.90581 19.8051 2.49331 19.5614C2.048 19.3036 2.22139 18.1926 3.06987 17.3911C3.5855 16.9036 4.25581 16.4536 4.69644 16.177C4.79487 16.1161 4.94487 16.0271 5.123 15.9192C5.15112 15.9005 5.16988 15.8911 5.16988 15.8911C5.20269 15.8723 5.24019 15.8489 5.27769 15.8254C5.59175 16.9692 5.29175 17.9723 4.56519 18.7645ZM9.60425 15.3379C9.36519 15.9239 8.85894 17.4286 8.55425 17.3442C8.2917 17.2739 8.13237 16.1348 8.50264 15.0098C8.69014 14.4426 9.08858 13.7676 9.32295 13.5051C9.70269 13.0832 10.1151 12.9426 10.2183 13.116C10.3402 13.3411 9.75425 14.9723 9.60425 15.3379ZM13.7621 17.3254C13.6589 17.3771 13.5652 17.4145 13.523 17.3864C13.4902 17.3677 13.5651 17.2974 13.5651 17.2974C13.5651 17.2974 14.0855 16.7396 14.2917 16.4817C14.4089 16.3318 14.5495 16.1583 14.6995 15.9614V16.0177C14.6996 16.6926 14.0527 17.1426 13.7621 17.3254ZM16.9683 16.5942C16.8933 16.5379 16.9027 16.3645 17.1558 15.8208C17.2542 15.6051 17.4792 15.2442 17.8683 14.902C17.9151 15.0426 17.9433 15.1785 17.9386 15.3051C17.9339 16.1489 17.3339 16.4629 16.9683 16.5942Z" fill="#CF649A"/>
</g>
<defs>
<clipPath id="clip0_2173_1189">
<rect width="24" height="18" fill="white" transform="translate(0 3)"/>
</clipPath>
</defs>
</svg>
