<svg width="24" height="24" viewBox="0 0 24 24" fill="none" xmlns="http://www.w3.org/2000/svg">
<g clip-path="url(#clip0_2173_947)">
<path d="M19.0957 7.8225V16.125L12.0345 20.31L11.9707 20.3681V23.475L12.0345 23.535L21.972 17.79V6.21L21.8782 6.1875L19.0657 7.755L19.0807 7.8225" fill="#2F406A"/>
<path d="M4.95023 16.2003L12.034 20.3103V23.5353L2.02148 17.7678V6.23277L2.12461 6.21777L4.92023 7.8434L4.95023 7.93715V16.2003Z" fill="#2379BD"/>
<path d="M4.95023 7.93484L2.02148 6.23234L12.0115 0.464844L21.979 6.20984L19.0952 7.82234L12.0115 3.77984L4.95023 7.93484Z" fill="#03AFEF"/>
<path d="M11.9128 15.249L11.8359 15.1703V12.0503L11.9128 12.0109L11.9316 11.934L14.6072 10.374L14.6897 10.3928V13.6084L11.9147 15.2509" fill="#2F406A"/>
<path d="M9.08984 13.7085V10.3691H9.16672L11.8873 11.9535L11.9098 12.0154V15.2498L9.08984 13.7085Z" fill="#2379BD"/>
<path d="M11.8667 8.72656L9.08984 10.3691L11.9117 12.0116L14.6867 10.3916L11.8667 8.72656Z" fill="#03AFEF"/>
<path d="M8.45773 17.2852L8.38086 17.2064V14.0864L8.45773 14.047L8.47648 13.9702L11.1521 12.4102L11.2346 12.4289V15.6427L8.45961 17.2852" fill="#2F406A"/>
<path d="M5.63672 15.7503V12.4053H5.71359L8.43797 13.9859L8.46047 14.0478V17.2859L5.63672 15.7503Z" fill="#2379BD"/>
<path d="M8.41172 10.7627L5.63672 12.4052L8.45859 14.0477L11.2336 12.4277L8.41172 10.7627Z" fill="#03AFEF"/>
<path d="M15.614 17.3623L15.5371 17.2836V14.1636L15.614 14.1242L15.6327 14.0473L18.3084 12.4873L18.3909 12.5061V15.7198L15.614 17.3623Z" fill="#2F406A"/>
<path d="M12.791 15.8208V12.4814H12.8679L15.5904 14.0621L15.6129 14.1239V17.3621L12.791 15.8208Z" fill="#2379BD"/>
<path d="M15.5621 10.8398L12.7871 12.4823L15.609 14.1248L18.384 12.5048L15.5621 10.8398Z" fill="#03AFEF"/>
<path d="M12.1589 19.3984L12.082 19.3197V16.1997L12.1589 16.1603L12.1777 16.0834L14.8533 14.5234L14.9358 14.5422V17.7559L12.1608 19.3984" fill="#2F406A"/>
<path d="M9.33789 17.8561V14.5186H9.41477L12.1354 16.1029L12.1579 16.1648V19.4029L9.33789 17.8561Z" fill="#2379BD"/>
<path d="M12.1129 12.876L9.33789 14.5185L12.1598 16.161L14.9348 14.541L12.1129 12.876Z" fill="#03AFEF"/>
<path d="M11.9128 10.8241L11.8359 10.7454V7.62539L11.9128 7.58602L11.9316 7.50914L14.6072 5.94727L14.6897 5.96602V9.18727L11.9147 10.8298" fill="#2F406A"/>
<path d="M9.08984 9.28086V5.94336H9.16672L11.8873 7.52773L11.9098 7.58961V10.824L9.08984 9.28086Z" fill="#2379BD"/>
<path d="M11.8667 4.30078L9.08984 5.94328L11.9117 7.58578L14.6867 5.96578L11.8667 4.30078Z" fill="#03AFEF"/>
<path d="M8.45773 12.8604L8.38086 12.7816V9.6616L8.45773 9.62223L8.47648 9.54535L11.1521 7.98535L11.2346 8.0041V11.2179L8.45961 12.8604" fill="#2F406A"/>
<path d="M5.63672 11.3179V7.97852H5.71359L8.43797 9.56289L8.46047 9.62477V12.861L5.63672 11.3179Z" fill="#2379BD"/>
<path d="M8.41172 6.33789L5.63672 7.98039L8.45859 9.62289L11.2336 8.00289L8.41172 6.33789Z" fill="#03AFEF"/>
<path d="M15.614 12.9375L15.5371 12.8588V9.73875L15.614 9.69937L15.6327 9.6225L18.3084 8.0625L18.3909 8.08125V11.295L15.614 12.9375Z" fill="#2F406A"/>
<path d="M12.791 11.3944V8.0625H12.8679L15.5885 9.64688L15.611 9.70875V12.9375L12.791 11.3944Z" fill="#2379BD"/>
<path d="M15.5623 6.41406L12.791 8.06219L15.6129 9.70469L18.3879 8.08469L15.5623 6.41406Z" fill="#03AFEF"/>
<path d="M12.1589 14.9717L12.082 14.8929V11.7729L12.1589 11.7336L12.1777 11.6567L14.8533 10.0967L14.9358 10.1154V13.3292L12.1608 14.9717" fill="#2F406A"/>
<path d="M9.33789 13.4302V10.0908H9.41477L12.1354 11.6752L12.1579 11.7371V14.9714L9.33789 13.4302Z" fill="#2379BD"/>
<path d="M12.1129 8.44922L9.33789 10.0917L12.1598 11.7342L14.9348 10.1142L12.1129 8.44922Z" fill="#03AFEF"/>
</g>
<defs>
<clipPath id="clip0_2173_947">
<rect width="24" height="24" fill="white"/>
</clipPath>
</defs>
</svg>
