<svg width="24" height="24" viewBox="0 0 24 24" fill="none" xmlns="http://www.w3.org/2000/svg">
<g clip-path="url(#clip0_2177_1298)">
<path d="M14.4426 23.423C13.8392 24.1879 12.6158 23.7688 12.6013 22.7923L12.3887 8.50879H21.9304C23.6587 8.50879 24.6226 10.518 23.5479 11.8804L14.4426 23.423Z" fill="url(#paint0_linear_2177_1298)"/>
<path d="M14.4426 23.423C13.8392 24.1879 12.6158 23.7688 12.6013 22.7923L12.3887 8.50879H21.9304C23.6587 8.50879 24.6226 10.518 23.5479 11.8804L14.4426 23.423Z" fill="url(#paint1_linear_2177_1298)" fill-opacity="0.2"/>
<path d="M10.563 0.439934C11.1663 -0.324965 12.3898 0.0941444 12.4043 1.07072L12.4975 15.3542H3.07511C1.34679 15.3542 0.382874 13.3449 1.4576 11.9825L10.563 0.439934Z" fill="#3ECF8E"/>
</g>
<defs>
<linearGradient id="paint0_linear_2177_1298" x1="12.3887" y1="11.6758" x2="20.8855" y2="15.2162" gradientUnits="userSpaceOnUse">
<stop stop-color="#249361"/>
<stop offset="1" stop-color="#3ECF8E"/>
</linearGradient>
<linearGradient id="paint1_linear_2177_1298" x1="8.62891" y1="6.49434" x2="12.5359" y2="13.8012" gradientUnits="userSpaceOnUse">
<stop/>
<stop offset="1" stop-opacity="0"/>
</linearGradient>
<clipPath id="clip0_2177_1298">
<rect width="23" height="24" fill="white" transform="translate(1)"/>
</clipPath>
</defs>
</svg>
