<svg width="24" height="24" viewBox="0 0 24 24" fill="none" xmlns="http://www.w3.org/2000/svg">
<g clip-path="url(#clip0_2172_743)">
<path d="M12 5.01855C8.80003 5.01855 6.79997 6.57 6 9.67281C7.2 8.12136 8.59997 7.53958 10.2 7.92746C11.1128 8.14872 11.7653 8.79096 12.4876 9.50173C13.6642 10.6597 15.0258 11.9999 18 11.9999C21.2 11.9999 23.2 10.4485 24 7.34568C22.8 8.89713 21.4 9.47891 19.8 9.09103C18.8872 8.86977 18.2347 8.22754 17.5124 7.51676C16.3358 6.35874 14.9742 5.01855 12 5.01855ZM6 11.9999C2.80003 11.9999 0.799969 13.5514 0 16.6542C1.2 15.1027 2.59997 14.521 4.2 14.9088C5.11284 15.1301 5.76534 15.7723 6.48759 16.4831C7.66416 17.6411 9.02578 18.9813 12 18.9813C15.2 18.9813 17.2 17.4299 18 14.3271C16.8 15.8785 15.4 16.4603 13.8 16.0724C12.8872 15.8512 12.2347 15.2089 11.5124 14.4981C10.3358 13.3401 8.97422 11.9999 6 11.9999Z" fill="url(#paint0_linear_2172_743)"/>
</g>
<defs>
<linearGradient id="paint0_linear_2172_743" x1="-170.68" y1="691.316" x2="-103.832" y2="1464.93" gradientUnits="userSpaceOnUse">
<stop stop-color="#2298BD"/>
<stop offset="1" stop-color="#0ED7B5"/>
</linearGradient>
<clipPath id="clip0_2172_743">
<rect width="24" height="14" fill="white" transform="translate(0 5)"/>
</clipPath>
</defs>
</svg>
