<svg width="24" height="24" viewBox="0 0 24 24" fill="none" xmlns="http://www.w3.org/2000/svg">
<g clip-path="url(#clip0_2173_1154)">
<g clip-path="url(#clip1_2173_1154)">
<path d="M0 12V0H24V24H0" fill="#007ACC"/>
<path d="M5.26172 12.0423V13.0203H8.38172V21.9003H10.5957V13.0203H13.7157V12.0603C13.7157 11.5203 13.7157 11.0823 13.6917 11.0703C13.6917 11.0523 11.7897 11.0463 9.47972 11.0463L5.27972 11.0643V12.0483L5.26172 12.0423ZM19.2837 11.0403C19.8957 11.1843 20.3637 11.4603 20.7837 11.8983C21.0057 12.1383 21.3357 12.5583 21.3597 12.6663C21.3597 12.7023 20.3217 13.4043 19.6917 13.7943C19.6677 13.8123 19.5717 13.7103 19.4757 13.5543C19.1637 13.1103 18.8457 12.9183 18.3477 12.8823C17.6277 12.8343 17.1477 13.2123 17.1477 13.8423C17.1477 14.0343 17.1837 14.1423 17.2557 14.2983C17.4177 14.6283 17.7177 14.8263 18.6477 15.2343C20.3637 15.9723 21.1077 16.4583 21.5577 17.1543C22.0677 17.9343 22.1817 19.1583 21.8397 20.0763C21.4557 21.0783 20.5197 21.7563 19.1817 21.9783C18.7617 22.0503 17.8017 22.0383 17.3517 21.9603C16.3917 21.7803 15.4737 21.3003 14.9097 20.6823C14.6877 20.4423 14.2617 19.8003 14.2857 19.7583L14.5137 19.6143L15.4137 19.0923L16.0917 18.6963L16.2477 18.9063C16.4457 19.2183 16.8897 19.6383 17.1477 19.7823C17.9277 20.1843 18.9717 20.1303 19.4877 19.6623C19.7097 19.4583 19.8057 19.2423 19.8057 18.9423C19.8057 18.6663 19.7637 18.5403 19.6257 18.3303C19.4337 18.0663 19.0497 17.8503 17.9697 17.3703C16.7277 16.8423 16.1997 16.5063 15.7077 15.9903C15.4257 15.6783 15.1677 15.1923 15.0477 14.7903C14.9577 14.4423 14.9277 13.5903 15.0117 13.2483C15.2697 12.0483 16.1757 11.2083 17.4717 10.9683C17.8917 10.8843 18.8817 10.9203 19.2957 11.0283L19.2837 11.0403Z" fill="white"/>
</g>
</g>
<defs>
<clipPath id="clip0_2173_1154">
<rect width="24" height="24" fill="white"/>
</clipPath>
<clipPath id="clip1_2173_1154">
<rect width="24" height="24" fill="white"/>
</clipPath>
</defs>
</svg>
