<svg width="24" height="24" viewBox="0 0 24 24" fill="none" xmlns="http://www.w3.org/2000/svg">
<g clip-path="url(#clip0_2179_551)">
<g clip-path="url(#clip1_2179_551)">
<path d="M12.0009 0.609375C5.70938 0.609375 0.609375 5.70938 0.609375 12.0008C0.609375 18.2917 5.70938 23.3921 12.0009 23.3921C18.2923 23.3921 23.3925 18.2917 23.3925 12.0008C23.3925 5.70938 18.2925 0.609375 12.0009 0.609375ZM14.5568 4.53225C14.6566 4.35932 14.7895 4.20775 14.9479 4.08619C15.1063 3.96463 15.2871 3.87545 15.4799 3.82376C15.6728 3.77206 15.8739 3.75887 16.0719 3.78491C16.2699 3.81096 16.4608 3.87574 16.6337 3.97556C16.8066 4.07538 16.9582 4.20829 17.0797 4.36669C17.2013 4.52508 17.2905 4.70588 17.3422 4.89874C17.3939 5.0916 17.4071 5.29275 17.381 5.49072C17.355 5.68868 17.2902 5.87957 17.1904 6.0525C17.0906 6.22547 16.9577 6.37708 16.7993 6.49866C16.6409 6.62025 16.4601 6.70942 16.2672 6.76108C16.0743 6.81275 15.8731 6.82589 15.6752 6.79977C15.4772 6.77364 15.2863 6.70875 15.1134 6.60881C14.7643 6.40718 14.5096 6.07518 14.4052 5.68578C14.3008 5.29638 14.3553 4.88147 14.5568 4.53225ZM12.0009 5.39381C12.6126 5.39381 13.2041 5.47875 13.7661 5.634C13.8163 5.94691 13.9358 6.24465 14.1158 6.50552C14.2957 6.76638 14.5316 6.98379 14.8063 7.14188C15.0803 7.30021 15.386 7.39563 15.7014 7.42122C16.0167 7.44681 16.3339 7.40192 16.6297 7.28981C17.7544 8.39569 18.4862 9.89962 18.5929 11.5749L16.4258 11.6068C16.2257 9.3375 14.3216 7.55813 12.0009 7.55813C11.3545 7.55748 10.7158 7.69847 10.1297 7.97119L9.07275 6.07762C9.983 5.62688 10.9852 5.39284 12.0009 5.39381ZM4.25513 13.5217C4.05537 13.5218 3.85756 13.4825 3.67301 13.406C3.48845 13.3296 3.32075 13.2176 3.17949 13.0763C3.03824 12.9351 2.92618 12.7674 2.84973 12.5829C2.77329 12.3983 2.73394 12.2005 2.73394 12.0008C2.73389 11.801 2.7732 11.6031 2.84963 11.4186C2.92606 11.234 3.03811 11.0663 3.17937 10.925C3.32064 10.7837 3.48835 10.6717 3.67293 10.5953C3.85751 10.5188 4.05535 10.4795 4.25513 10.4796C4.65562 10.484 5.0382 10.6462 5.31983 10.931C5.60147 11.2158 5.75942 11.6001 5.75942 12.0007C5.75942 12.4012 5.60147 12.7855 5.31983 13.0703C5.0382 13.3551 4.65562 13.5173 4.25513 13.5217ZM5.60344 13.6571C5.84962 13.457 6.04805 13.2044 6.18429 12.9179C6.32052 12.6313 6.39112 12.318 6.39094 12.0008C6.39094 11.3323 6.08363 10.7357 5.60344 10.344C6.01481 8.75231 7.005 7.39313 8.3355 6.50344L9.44756 8.36606C8.30531 9.16988 7.55869 10.4978 7.55869 12.0008C7.55869 13.5037 8.30513 14.8316 9.44756 15.6351L8.3355 17.4982C7.00444 16.6087 6.01425 15.2492 5.60344 13.6571ZM16.6343 20.0254C16.4614 20.1253 16.2705 20.1902 16.0725 20.2163C15.8745 20.2424 15.6733 20.2292 15.4804 20.1775C15.2875 20.1258 15.1067 20.0366 14.9483 19.915C14.7899 19.7933 14.6571 19.6417 14.5573 19.4687C14.1371 18.7418 14.3865 17.8121 15.114 17.3919C15.8409 16.9721 16.7711 17.2217 17.1909 17.9486C17.2908 18.1215 17.3556 18.3124 17.3817 18.5104C17.4078 18.7083 17.3946 18.9095 17.3429 19.1023C17.2912 19.2952 17.202 19.476 17.0804 19.6344C16.9588 19.7927 16.8072 19.9256 16.6343 20.0254ZM16.6297 16.7117C16.3339 16.5993 16.0168 16.5542 15.7014 16.5798C15.3859 16.6053 15.0802 16.7009 14.8063 16.8594C14.5317 17.0176 14.2958 17.235 14.1159 17.4959C13.936 17.7567 13.8165 18.0544 13.7663 18.3673C13.1914 18.5269 12.5975 18.6079 12.0009 18.6081C10.9852 18.609 9.98306 18.3748 9.07294 17.9239L10.1297 16.0301C10.7158 16.3029 11.3545 16.444 12.0009 16.4434C14.3218 16.4434 16.2257 14.6644 16.4252 12.3949L18.5929 12.4266C18.4862 14.1019 17.7544 15.6058 16.6297 16.7117Z" fill="#DD4814"/>
</g>
</g>
<defs>
<clipPath id="clip0_2179_551">
<rect width="24" height="24" fill="white"/>
</clipPath>
<clipPath id="clip1_2179_551">
<rect width="24" height="24" fill="white"/>
</clipPath>
</defs>
</svg>
