<svg width="24" height="24" viewBox="0 0 24 24" fill="none" xmlns="http://www.w3.org/2000/svg">
<g clip-path="url(#clip0_2179_197)">
<g clip-path="url(#clip1_2179_197)">
<path d="M23.7517 3.66373L12.6392 23.4552C12.4098 23.8639 11.8203 23.8663 11.5874 23.4596L0.254654 3.66557C0.000905097 3.2225 0.381344 2.68574 0.885516 2.77557L12.0099 4.75593C12.0809 4.76856 12.1536 4.76844 12.2245 4.75556L23.1162 2.77833C23.6187 2.68712 24.0009 3.21974 23.7517 3.66373Z" fill="url(#paint0_linear_2179_197)"/>
<path d="M17.3072 0.177683L9.08375 1.78263C9.01804 1.79545 8.95848 1.82966 8.91442 1.87987C8.87036 1.93008 8.84431 1.99346 8.84035 2.06003L8.33452 10.5694C8.33173 10.6161 8.33991 10.6628 8.3584 10.7057C8.3769 10.7487 8.40519 10.7868 8.44104 10.817C8.47689 10.8471 8.51931 10.8686 8.56494 10.8796C8.61056 10.8906 8.65813 10.8908 8.70387 10.8803L10.9934 10.3541C11.2076 10.3048 11.4012 10.4928 11.3571 10.7073L10.6769 14.025C10.6312 14.2482 10.8416 14.4391 11.0605 14.3729L12.4747 13.945C12.6939 13.8787 12.9046 14.0701 12.8582 14.2936L11.7772 19.5049C11.7096 19.8309 12.1449 20.0086 12.3264 19.7292L12.4477 19.5425L19.1487 6.22287C19.261 5.99987 19.0674 5.74557 18.8216 5.79287L16.4647 6.24588C16.2433 6.2884 16.0549 6.08298 16.1174 5.86724L17.6556 0.556232C17.7182 0.339945 17.5289 0.134426 17.3072 0.177683Z" fill="url(#paint1_linear_2179_197)"/>
</g>
</g>
<defs>
<linearGradient id="paint0_linear_2179_197" x1="-50.6985" y1="417.06" x2="3048.34" y2="4612.26" gradientUnits="userSpaceOnUse">
<stop stop-color="#41D1FF"/>
<stop offset="1" stop-color="#BD34FE"/>
</linearGradient>
<linearGradient id="paint1_linear_2179_197" x1="1230.37" y1="114.034" x2="1865.57" y2="4457.32" gradientUnits="userSpaceOnUse">
<stop stop-color="#FFEA83"/>
<stop offset="0.083" stop-color="#FFDD35"/>
<stop offset="1" stop-color="#FFA800"/>
</linearGradient>
<clipPath id="clip0_2179_197">
<rect width="24" height="24" fill="white"/>
</clipPath>
<clipPath id="clip1_2179_197">
<rect width="24" height="24" fill="white"/>
</clipPath>
</defs>
</svg>
