<svg width="24" height="24" viewBox="0 0 24 24" fill="none" xmlns="http://www.w3.org/2000/svg">
<g clip-path="url(#clip0_2179_26)">
<g clip-path="url(#clip1_2179_26)">
<path d="M0.68677 8.57936C0.68677 8.57936 0.118638 8.16232 0.800397 7.60547L2.3888 6.15911C2.3888 6.15911 2.8433 5.67217 3.32385 6.09643L17.9816 17.3974V22.8164C17.9816 22.8164 17.9745 23.6673 16.9022 23.5733L0.68677 8.57936Z" fill="#2489CA"/>
<path d="M4.46429 12.0723L0.686216 15.5701C0.686216 15.5701 0.297992 15.8642 0.686216 16.3897L2.44032 18.0144C2.44032 18.0144 2.85695 18.47 3.47243 17.9517L7.47776 14.8589L4.46429 12.0723Z" fill="#1070B3"/>
<path d="M11.096 12.1015L18.0249 6.71381L17.9799 1.3237C17.9799 1.3237 17.684 0.14732 16.6969 0.759614L7.47656 9.30521L11.096 12.1015Z" fill="#0877B9"/>
<path d="M16.9008 23.5805C17.3033 24 17.7909 23.8626 17.7909 23.8626L23.1905 21.1531C23.8818 20.6734 23.7847 20.0779 23.7847 20.0779V3.89795C23.7847 3.18682 23.0698 2.94093 23.0698 2.94093L18.3898 0.643627C17.3672 -5.36442e-06 16.6973 0.759336 16.6973 0.759336C16.6973 0.759336 17.5589 0.127757 17.9803 1.32342V22.7176C17.9803 22.8646 17.9495 23.0092 17.888 23.1394C17.7649 23.3925 17.4974 23.6288 16.8559 23.5299L16.9008 23.5805Z" fill="#3C99D4"/>
</g>
</g>
<defs>
<clipPath id="clip0_2179_26">
<rect width="24" height="24" fill="white"/>
</clipPath>
<clipPath id="clip1_2179_26">
<rect width="24" height="24" fill="white"/>
</clipPath>
</defs>
</svg>
