<svg width="24" height="24" viewBox="0 0 24 24" fill="none" xmlns="http://www.w3.org/2000/svg">
<g clip-path="url(#clip0_2179_173)">
<path d="M3.98572 20.8595L1.02734 3.32828L6.49709 1.05859L9.99022 3.13422L13.1901 1.40791L19.8572 3.96841L16.1185 22.9719L3.98572 20.8595Z" fill="url(#paint0_linear_2179_173)"/>
<path d="M22.972 8.4597L20.1396 1.4652L15.0018 1.02832L7.07031 8.64963L9.20462 18.4713L13.1912 21.2669L22.972 15.4632L20.5718 10.9624L22.972 8.4597Z" fill="url(#paint1_linear_2179_173)"/>
<path d="M18.5762 7.41777L20.5721 10.9626L22.9721 8.45989L21.21 4.10352L18.5762 7.41777Z" fill="url(#paint2_linear_2179_173)"/>
<path d="M5.14258 5.14355H18.8563V18.8573H5.14258V5.14355Z" fill="black"/>
<path d="M6.85225 16.2651H11.9954V17.1227H6.85225V16.2651ZM11.7207 6.8507L10.9553 9.85108L10.0801 6.85033H9.20913L8.33106 9.85145L7.56794 6.8507H6.36719L7.83719 11.9961H8.80169L9.64281 9.01708L10.4748 11.9959H11.4511L12.9188 6.85052L11.7207 6.8507ZM13.1335 11.2618L13.8029 10.4599C14.2239 10.8482 14.7714 11.0707 15.3439 11.0861C15.8009 11.0861 16.0889 10.903 16.0889 10.599V10.5851C16.0889 10.2973 15.9108 10.1509 15.0488 9.92964C14.0088 9.66452 13.3394 9.37595 13.3394 8.35202V8.33589C13.3394 7.40139 14.0907 6.7817 15.1446 6.7817C15.8402 6.76954 16.518 7.00177 17.0599 7.43795L16.4704 8.29277C16.0849 7.99155 15.617 7.81455 15.1287 7.78521C14.6943 7.78521 14.4657 7.98433 14.4657 8.24214V8.25827C14.4657 8.5967 14.6944 8.7152 15.5791 8.94452C16.6257 9.21845 17.2159 9.59345 17.2159 10.4936V10.5075C17.2159 11.5315 16.4337 12.1078 15.3203 12.1078C14.5147 12.1108 13.7362 11.817 13.1335 11.2825" fill="white"/>
</g>
<defs>
<linearGradient id="paint0_linear_2179_173" x1="8.88326" y1="1.502" x2="14.5239" y2="21.9557" gradientUnits="userSpaceOnUse">
<stop offset="0.28" stop-color="#07C3F2"/>
<stop offset="0.94" stop-color="#087CFA"/>
</linearGradient>
<linearGradient id="paint1_linear_2179_173" x1="10.6511" y1="4.09961" x2="20.2324" y2="18.2039" gradientUnits="userSpaceOnUse">
<stop offset="0.14" stop-color="#FCF84A"/>
<stop offset="0.37" stop-color="#07C3F2"/>
</linearGradient>
<linearGradient id="paint2_linear_2179_173" x1="20.166" y1="5.85879" x2="21.4196" y2="10.3297" gradientUnits="userSpaceOnUse">
<stop offset="0.28" stop-color="#07C3F2"/>
<stop offset="0.94" stop-color="#087CFA"/>
</linearGradient>
<clipPath id="clip0_2179_173">
<rect width="24" height="24" fill="white"/>
</clipPath>
</defs>
</svg>
